<svg width="24" height="20" viewBox="0 0 24 20" fill="none" xmlns="http://www.w3.org/2000/svg">
<path d="M21 0.230804H16.4628C15.0504 0.230804 13.8672 1.2058 13.548 2.5186H3C1.3428 2.5186 0 3.862 0 5.5186V16.7686C0 18.4258 1.3428 19.7686 3 19.7686H21C22.6572 19.7686 24 18.4258 24 16.7686V3.2308C24 1.5748 22.6572 0.230804 21 0.230804ZM14.427 15.4966C14.448 15.6154 14.4144 15.7372 14.3382 15.8308C14.2596 15.9232 14.145 15.976 14.0244 15.976H9.978C9.858 15.976 9.7416 15.9232 9.6654 15.832C9.5868 15.7402 9.5532 15.6196 9.573 15.5002L10.2858 11.1874C9.8112 10.7248 9.543 10.0996 9.543 9.4372C9.543 8.0812 10.6464 6.9784 12.0024 6.9784C13.3596 6.9784 14.4624 8.0806 14.4624 9.4372C14.4624 10.117 14.1822 10.7542 13.6866 11.2198L14.427 15.4966Z" fill="white"/>
</svg>
