<svg width="24" height="20" viewBox="0 0 24 20" fill="none" xmlns="http://www.w3.org/2000/svg">
	<path opacity="0.5" d="M21.6 2.5H12L9.6 0H2.4C1.08 0 0.012 1.125 0.012 2.5L0 17.5C0 18.875 1.08 20 2.4 20H21.6C22.92 20 24 18.875 24 17.5V5C24 3.625 22.92 2.5 21.6 2.5ZM15.6 6.25C16.92 6.25 18 7.375 18 8.75C18 10.125 16.92 11.25 15.6 11.25C14.28 11.25 13.2 10.125 13.2 8.75C13.2 7.375 14.28 6.25 15.6 6.25ZM20.4 16.25H10.8V15C10.8 13.3375 14.004 12.5 15.6 12.5C17.196 12.5 20.4 13.3375 20.4 15V16.25Z" fill="white" />
</svg>
