<svg width="24" height="20" viewBox="0 0 24 20" fill="none" xmlns="http://www.w3.org/2000/svg">
<path opacity="0.5" d="M21.8182 2.36363H11.6804L9.65839 0.341595C9.55612 0.239322 9.41764 0.181793 9.27272 0.181793H2.18184C0.979057 0.181844 0 1.16034 0 2.36363V17.6364C0 18.8397 0.979057 19.8182 2.18184 19.8182H21.8182C23.021 19.8182 24.0001 18.8397 24.0001 17.6364V4.54547C24 3.34218 23.021 2.36363 21.8182 2.36363ZM10.8963 10.9791C10.8963 10.9876 10.9038 11.0542 10.908 11.0893H10.9069C10.9048 11.1064 10.8963 11.1863 10.8963 11.2033C10.8857 11.4191 11.0039 11.6199 11.1967 11.7163L13.2944 12.7646C13.4894 12.8599 13.7216 12.8349 13.8878 12.6958C14.2916 12.3597 14.771 12.1818 15.2727 12.1818C16.4755 12.1818 17.4545 13.1603 17.4545 14.3637C17.4545 15.5669 16.4755 16.5455 15.2727 16.5455C14.0699 16.5455 13.0909 15.567 13.093 14.3653C13.0952 14.3483 13.1037 14.2694 13.1037 14.2518C13.1143 14.0366 12.9961 13.8353 12.8032 13.7389L10.7056 12.6906C10.6278 12.6522 10.5447 12.633 10.4616 12.633C10.3369 12.633 10.2134 12.6756 10.1132 12.7587C9.70835 13.0949 9.22894 13.2728 8.72719 13.2728C7.52452 13.2728 6.54546 12.2942 6.54546 11.0909C6.54546 9.88764 7.52452 8.90909 8.7273 8.90909C9.2291 8.90909 9.7085 9.08699 10.1122 9.42311C10.2784 9.56057 10.5107 9.58772 10.7056 9.49184L12.8033 8.44303C12.9961 8.34664 13.1143 8.14527 13.1037 7.93008C13.1026 7.89173 13.0984 7.85389 13.0909 7.8182C13.0909 6.61491 14.07 5.63636 15.2728 5.63636C16.4755 5.63636 17.4546 6.61486 17.4546 7.8182C17.4546 9.02154 16.4755 10 15.2728 10C14.771 10 14.2916 9.82213 13.8878 9.48601C13.7206 9.34754 13.4883 9.3214 13.2944 9.41728L11.1968 10.4661C11.0039 10.5625 10.8857 10.7639 10.8963 10.9791Z" fill="white"/>
</svg>
