<svg width="56" height="56" viewBox="0 0 56 56" fill="none" xmlns="http://www.w3.org/2000/svg">
<path d="M41.125 48.125V41.125H48.125V37.625H41.125V30.625H37.625V37.625H30.625V41.125H37.625V48.125H41.125Z" fill="#700327"/>
<path d="M11.375 39.375H25.375C25.3744 36.9172 26.0209 34.5026 27.2495 32.3739C28.478 30.2452 30.2453 28.4774 32.3736 27.2483C34.502 26.0192 36.9164 25.372 39.3742 25.3719C41.832 25.3717 44.2465 26.0186 46.375 27.2475V13.125C46.3736 12.6613 46.1888 12.217 45.8609 11.8891C45.533 11.5612 45.0887 11.3764 44.625 11.375H11.375C10.4467 11.375 9.5565 11.7437 8.90013 12.4001C8.24375 13.0565 7.875 13.9467 7.875 14.875V35.875C7.875 36.8033 8.24375 37.6935 8.90013 38.3499C9.5565 39.0063 10.4467 39.375 11.375 39.375Z" fill="#700327"/>
<path d="M11.375 14C11.1429 14 10.9204 14.0922 10.7563 14.2563C10.5922 14.4204 10.5 14.6429 10.5 14.875V18.375H12.25V15.75H14.875V14H11.375Z" fill="#00060A"/>
<path d="M10.5 20.125H12.25V21.875H10.5V20.125Z" fill="#00060A"/>
<path d="M48.125 36.75H42V30.625C42 30.3929 41.9078 30.1704 41.7437 30.0063C41.5796 29.8422 41.3571 29.75 41.125 29.75H37.625C37.3929 29.75 37.1704 29.8422 37.0063 30.0063C36.8422 30.1704 36.75 30.3929 36.75 30.625V36.75H30.625C30.3929 36.75 30.1704 36.8422 30.0063 37.0063C29.8422 37.1704 29.75 37.3929 29.75 37.625V41.125C29.75 41.3571 29.8422 41.5796 30.0063 41.7437C30.1704 41.9078 30.3929 42 30.625 42H36.75V48.125C36.75 48.3571 36.8422 48.5796 37.0063 48.7437C37.1704 48.9078 37.3929 49 37.625 49H41.125C41.3571 49 41.5796 48.9078 41.7437 48.7437C41.9078 48.5796 42 48.3571 42 48.125V42H48.125C48.3571 42 48.5796 41.9078 48.7437 41.7437C48.9078 41.5796 49 41.3571 49 41.125V37.625C49 37.3929 48.9078 37.1704 48.7437 37.0063C48.5796 36.8422 48.3571 36.75 48.125 36.75ZM47.25 40.25H41.125C40.8929 40.25 40.6704 40.3422 40.5063 40.5063C40.3422 40.6704 40.25 40.8929 40.25 41.125V47.25H38.5V41.125C38.5 40.8929 38.4078 40.6704 38.2437 40.5063C38.0796 40.3422 37.8571 40.25 37.625 40.25H31.5V38.5H37.625C37.8571 38.5 38.0796 38.4078 38.2437 38.2437C38.4078 38.0796 38.5 37.8571 38.5 37.625V31.5H40.25V37.625C40.25 37.8571 40.3422 38.0796 40.5063 38.2437C40.6704 38.4078 40.8929 38.5 41.125 38.5H47.25V40.25Z" fill="#00060A"/>
<path d="M47.25 26.775V13.125C47.2478 12.584 47.0784 12.0569 46.7652 11.6159C46.4519 11.1748 46.01 10.8413 45.5 10.661V7.875C45.5 7.17881 45.2234 6.51113 44.7312 6.01885C44.2389 5.52656 43.5712 5.25 42.875 5.25H18.375C18.1429 5.25 17.9204 5.15781 17.7563 4.99372C17.5922 4.82962 17.5 4.60706 17.5 4.375C17.5 3.67881 17.2234 3.01113 16.7312 2.51884C16.2389 2.02656 15.5712 1.75 14.875 1.75H4.375C3.67881 1.75 3.01113 2.02656 2.51884 2.51884C2.02656 3.01113 1.75 3.67881 1.75 4.375V37.625C1.75 38.3212 2.02656 38.9889 2.51884 39.4812C3.01113 39.9734 3.67881 40.25 4.375 40.25H24.5446C24.6923 42.7973 25.4933 45.2637 26.8703 47.4118C28.2473 49.5599 30.154 51.3174 32.407 52.5151C34.66 53.7129 37.1833 54.3106 39.7342 54.2506C42.285 54.1907 44.7775 53.4752 46.9718 52.173C49.166 50.8708 50.9881 49.0257 52.2628 46.8153C53.5374 44.6049 54.2216 42.1036 54.2495 39.5522C54.2775 37.0008 53.6482 34.4851 52.4223 32.2473C51.1964 30.0096 49.4152 28.125 47.25 26.775ZM3.5 37.625V4.375C3.5 4.14294 3.59219 3.92038 3.75628 3.75628C3.92038 3.59219 4.14294 3.5 4.375 3.5H14.875C15.1071 3.5 15.3296 3.59219 15.4937 3.75628C15.6578 3.92038 15.75 4.14294 15.75 4.375C15.75 5.07119 16.0266 5.73887 16.5188 6.23116C17.0111 6.72344 17.6788 7 18.375 7H42.875C43.1071 7 43.3296 7.09219 43.4937 7.25628C43.6578 7.42038 43.75 7.64294 43.75 7.875V10.5H11.375C10.2151 10.5014 9.10311 10.9628 8.28294 11.7829C7.46277 12.6031 7.00139 13.7151 7 14.875V35.875C7.00322 36.8248 7.31867 37.7472 7.89775 38.5H4.375C4.14294 38.5 3.92038 38.4078 3.75628 38.2437C3.59219 38.0796 3.5 37.8571 3.5 37.625ZM8.75 35.875V14.875C8.75 14.1788 9.02656 13.5111 9.51884 13.0188C10.0111 12.5266 10.6788 12.25 11.375 12.25H44.625C44.8571 12.25 45.0796 12.3422 45.2437 12.5063C45.4078 12.6704 45.5 12.8929 45.5 13.125V25.8353C43.3049 24.8348 40.8989 24.385 38.4907 24.5248C36.0824 24.6646 33.7447 25.3898 31.6801 26.6375C29.6156 27.8853 27.8866 29.6179 26.6432 31.685C25.3997 33.7522 24.6794 36.0915 24.5446 38.5H11.375C10.6788 38.5 10.0111 38.2234 9.51884 37.7312C9.02656 37.2389 8.75 36.5712 8.75 35.875ZM39.375 52.5C36.7791 52.5 34.2415 51.7302 32.0831 50.288C29.9247 48.8458 28.2425 46.796 27.2491 44.3977C26.2557 41.9994 25.9958 39.3604 26.5022 36.8144C27.0086 34.2684 28.2587 31.9298 30.0942 30.0942C31.9298 28.2587 34.2684 27.0086 36.8144 26.5022C39.3604 25.9958 41.9994 26.2557 44.3977 27.2491C46.796 28.2425 48.8458 29.9247 50.288 32.0831C51.7302 34.2415 52.5 36.7791 52.5 39.375C52.4961 42.8548 51.112 46.1909 48.6514 48.6514C46.1909 51.112 42.8548 52.4961 39.375 52.5Z" fill="#00060A"/>
</svg>
