<?xml version="1.0" encoding="iso-8859-1"?>
<!-- Generator: Adobe Illustrator 18.0.0, SVG Export Plug-In . SVG Version: 6.00 Build 0)  -->
<!DOCTYPE svg PUBLIC "-//W3C//DTD SVG 1.1//EN" "http://www.w3.org/Graphics/SVG/1.1/DTD/svg11.dtd">
<svg version="1.1" id="Capa_1" xmlns="http://www.w3.org/2000/svg" xmlns:xlink="http://www.w3.org/1999/xlink" x="0px" y="0px" width="20" height="20"
	 viewBox="0 0 395 395" style="enable-background:new 0 0 395 395;" xml:space="preserve">
<g>
	<path d="M131.946,88.121c-0.946-1.474-2.577-2.365-4.328-2.365c-1.752,0-3.382,0.891-4.328,2.365l-63.334,98.705
		c-1.094,1.705-1.085,3.893,0.022,5.588c1.107,1.695,3.109,2.582,5.107,2.268l39.682-6.266v115.686c0,2.541,2.06,4.6,4.601,4.6h36.5
		c2.541,0,4.6-2.06,4.6-4.6V188.417l39.681,6.266c0.268,0.042,0.537,0.063,0.803,0.063c1.718,0,3.346-0.863,4.305-2.331
		c1.107-1.696,1.116-3.884,0.022-5.588L131.946,88.121z"/>
	<path d="M329.914,200.318l-39.682,6.266V90.897c0-2.541-2.06-4.6-4.6-4.6h-36.5c-2.541,0-4.601,2.06-4.601,4.6v115.686
		l-39.681-6.266c-1.999-0.31-4,0.573-5.107,2.268c-1.107,1.696-1.116,3.884-0.022,5.588l63.333,98.705
		c0.946,1.474,2.577,2.365,4.328,2.365c1.751,0,3.382-0.891,4.328-2.365l63.334-98.705c1.094-1.705,1.085-3.893-0.022-5.588
		C333.914,200.89,331.914,200.005,329.914,200.318z"/>
	<path d="M313.001,0H81.999C36.785,0,0,36.784,0,81.998v230.993C0,358.211,36.785,395,81.999,395h231.002
		C358.216,395,395,358.211,395,312.991V81.998C395,36.784,358.216,0,313.001,0z M380,312.991C380,349.94,349.945,380,313.001,380
		H81.999C45.056,380,15,349.94,15,312.991V81.998C15,45.055,45.056,15,81.999,15h231.002C349.945,15,380,45.055,380,81.998V312.991z
		"/>
</g>
</svg>
