<svg width="19" height="19" viewBox="0 0 19 19" fill="none" xmlns="http://www.w3.org/2000/svg">
<path d="M15.3188 7.94841C14.7804 5.21716 12.3817 3.16675 9.5 3.16675C7.21208 3.16675 5.225 4.46508 4.23542 6.36508C1.8525 6.61841 0 8.63716 0 11.0834C0 13.7038 2.12958 15.8334 4.75 15.8334H15.0417C17.2267 15.8334 19 14.0601 19 11.8751C19 9.78508 17.3771 8.09091 15.3188 7.94841ZM15.0417 14.2501H4.75C3.00042 14.2501 1.58333 12.833 1.58333 11.0834C1.58333 9.33383 3.00042 7.91675 4.75 7.91675H5.31208C5.83458 6.088 7.505 4.75008 9.5 4.75008C11.9067 4.75008 13.8542 6.69758 13.8542 9.10425V9.50008H15.0417C16.3558 9.50008 17.4167 10.5609 17.4167 11.8751C17.4167 13.1892 16.3558 14.2501 15.0417 14.2501Z" fill="#A4A4A4"/>
</svg>
