<svg width="732" height="525" viewBox="0 0 732 525" fill="none" xmlns="http://www.w3.org/2000/svg">
<path fill-rule="evenodd" clip-rule="evenodd" d="M46.6751 -137.154L477.363 223.949L430.689 263.132L0.000504078 -97.9712L46.6751 -137.154Z" fill="#990033"/>
<path fill-rule="evenodd" clip-rule="evenodd" d="M435.765 334.336C470.373 363.478 526.482 363.478 561.089 334.336C595.697 305.194 595.697 257.945 561.089 228.803C526.482 199.661 470.373 199.661 435.765 228.803C401.158 257.945 401.158 305.194 435.765 334.336ZM462.978 311.421C482.556 327.908 514.299 327.908 533.877 311.421C553.456 294.934 553.456 268.204 533.877 251.718C514.299 235.231 482.556 235.231 462.978 251.718C443.399 268.204 443.399 294.934 462.978 311.421Z" fill="#990033"/>
<path fill-rule="evenodd" clip-rule="evenodd" d="M954.231 525L521.977 160.183L568.605 120.855L1000.86 485.672L954.231 525Z" fill="black"/>
<path fill-rule="evenodd" clip-rule="evenodd" d="M565.254 51.1799C530.6 21.9983 474.415 21.9983 439.76 51.1799C405.106 80.3616 405.106 127.674 439.76 156.856C474.415 186.038 530.6 186.038 565.254 156.856C599.909 127.674 599.909 80.3616 565.254 51.1799ZM537.937 74.1828C518.37 57.7054 486.645 57.7054 467.077 74.1828C447.51 90.6601 447.51 117.375 467.077 133.853C486.645 150.33 518.37 150.33 537.937 133.853C557.505 117.375 557.505 90.6601 537.937 74.1828Z" fill="black"/>
</svg>
