<svg width="352" height="418" viewBox="0 0 352 418" fill="none" xmlns="http://www.w3.org/2000/svg">
<path fill-rule="evenodd" clip-rule="evenodd" d="M454.419 27.2203L206.603 278.394L179.713 251.174L427.529 3.08443e-05L454.419 27.2203Z" fill="#990033"/>
<path fill-rule="evenodd" clip-rule="evenodd" d="M130.847 254.134C110.848 274.317 110.848 307.039 130.847 327.222C150.847 347.405 183.272 347.405 203.272 327.222C223.271 307.039 223.271 274.317 203.272 254.134C183.272 233.952 150.847 233.952 130.847 254.134ZM146.573 270.004C135.259 281.422 135.259 299.934 146.573 311.352C157.887 322.77 176.232 322.77 187.546 311.352C198.86 299.934 198.86 281.422 187.546 270.004C176.232 258.586 157.887 258.586 146.573 270.004Z" fill="#990033"/>
<path fill-rule="evenodd" clip-rule="evenodd" d="M0 556.499L250.365 304.412L277.355 331.605L26.9901 583.693L0 556.499Z" fill="black"/>
<path fill-rule="evenodd" clip-rule="evenodd" d="M325.171 329.651C345.198 309.441 345.198 276.674 325.171 256.464C305.144 236.254 272.675 236.254 252.648 256.464C232.621 276.674 232.621 309.441 252.648 329.651C272.675 349.861 305.144 349.861 325.171 329.651ZM309.385 313.72C320.693 302.309 320.693 283.807 309.385 272.395C298.077 260.984 279.743 260.984 268.435 272.395C257.127 283.807 257.127 302.309 268.435 313.72C279.743 325.132 298.077 325.132 309.385 313.72Z" fill="black"/>
</svg>
