<svg width="20" height="20" viewBox="0 0 20 20" fill="none" xmlns="http://www.w3.org/2000/svg">
<g clip-path="url(#clip0)">
<path d="M0.470581 7.72278L2.00775 7.38861C2.14142 6.97937 2.30698 6.5802 2.50244 6.19568L1.65146 4.87198C1.49948 4.63547 1.5329 4.32495 1.73157 4.12628L4.12628 1.73157C4.32495 1.5329 4.63547 1.49948 4.87198 1.65146L6.19568 2.50244C6.5802 2.30698 6.97937 2.14142 7.38861 2.00775L7.72278 0.470581C7.78244 0.195923 8.02567 0 8.30673 0H11.6933C11.9743 0 12.2176 0.195923 12.2772 0.470581L12.6114 2.00775C13.0206 2.14142 13.4198 2.30698 13.8043 2.50244L15.128 1.65146C15.3645 1.49948 15.675 1.5329 15.8737 1.73157L18.2684 4.12628C18.4671 4.32495 18.5005 4.63547 18.3485 4.87198L17.4976 6.19568C17.693 6.5802 17.8586 6.97937 17.9922 7.38861L19.5294 7.72278C19.8041 7.78259 20 8.02567 20 8.30673V11.6933C20 11.9743 19.8041 12.2174 19.5294 12.2772L17.9922 12.6114C17.8586 13.0206 17.693 13.4198 17.4976 13.8043L18.3485 15.128C18.5005 15.3645 18.4671 15.675 18.2684 15.8737L15.8737 18.2684C15.675 18.4671 15.3645 18.5005 15.128 18.3485L13.8043 17.4976C13.4198 17.693 13.0206 17.8586 12.6114 17.9922L12.2772 19.5294C12.2176 19.8041 11.9743 20 11.6933 20H8.30673C8.02567 20 7.78244 19.8041 7.72278 19.5294L7.38861 17.9922C6.97937 17.8586 6.5802 17.693 6.19568 17.4976L4.87198 18.3485C4.63547 18.5005 4.32495 18.4673 4.12628 18.2684L1.73157 15.8737C1.5329 15.675 1.49948 15.3645 1.65146 15.128L2.50244 13.8043C2.30698 13.4198 2.14142 13.0206 2.00775 12.6114L0.470581 12.2772C0.195923 12.2174 0 11.9743 0 11.6933V8.30673C0 8.02567 0.195923 7.78259 0.470581 7.72278ZM6.41434 10C6.41434 11.9771 8.02292 13.5857 10 13.5857C11.9771 13.5857 13.5857 11.9771 13.5857 10C13.5857 8.02292 11.9771 6.41434 10 6.41434C8.02292 6.41434 6.41434 8.02292 6.41434 10Z" fill="#A4A4A4"/>
</g>
<defs>
<clipPath id="clip0">
<rect width="20" height="20" fill="white" transform="matrix(-1 0 0 1 20 0)"/>
</clipPath>
</defs>
</svg>
