<svg width="19" height="19" viewBox="0 0 19 19" fill="none" xmlns="http://www.w3.org/2000/svg">
<path d="M9.5 0C4.256 0 0 4.256 0 9.5C0 14.744 4.256 19 9.5 19C14.744 19 19 14.744 19 9.5C19 4.256 14.744 0 9.5 0ZM10.45 16.15H8.55V14.25H10.45V16.15ZM12.4165 8.7875L11.5615 9.6615C10.8775 10.355 10.45 10.925 10.45 12.35H8.55V11.875C8.55 10.83 8.9775 9.88 9.6615 9.1865L10.8395 7.9895C11.191 7.6475 11.4 7.1725 11.4 6.65C11.4 5.605 10.545 4.75 9.5 4.75C8.455 4.75 7.6 5.605 7.6 6.65H5.7C5.7 4.5505 7.4005 2.85 9.5 2.85C11.5995 2.85 13.3 4.5505 13.3 6.65C13.3 7.486 12.958 8.246 12.4165 8.7875Z" fill="#A4A4A4"/>
</svg>
