<svg width="1000" height="1000" viewBox="0 0 1000 1000" fill="none" xmlns="http://www.w3.org/2000/svg">
<path fill-rule="evenodd" clip-rule="evenodd" d="M669.773 441C699.401 441 725.234 456.675 739.056 480.012C744.208 488.642 747.643 498.418 749 508.721V529.152C747.55 539.544 744.115 549.231 738.973 557.95C725.152 581.287 699.309 596.962 669.681 596.962C640.137 596.962 614.211 581.287 600.388 557.95H315.279L221.688 714H129L269.387 480.012H600.479C614.3 456.675 640.137 441 669.773 441ZM669.773 480.012C647.636 480.012 629.749 497.449 629.749 519.025C629.749 540.512 647.636 557.95 669.773 558.037C691.904 558.037 709.788 540.601 709.788 519.025C709.788 497.449 691.904 480.012 669.773 480.012Z" fill="black"/>
<path fill-rule="evenodd" clip-rule="evenodd" d="M385.005 287.905C405.244 293.451 422.229 306.569 432.529 323.912V324.176H669.966C780.469 324.176 870 411.419 870 519.087C870 626.756 780.469 714 669.966 714H597.417L550.616 635.999H669.966C736.284 635.999 790.044 583.618 790.044 519C790.044 454.381 736.284 402 669.966 402H432.258C428.825 407.899 424.578 413.18 419.79 417.935C410.936 426.562 400.093 433.253 387.987 437.126C380.126 439.591 371.724 440.999 362.96 440.999C354.557 440.999 346.426 439.768 338.837 437.391C326.549 433.604 315.526 427.002 306.582 418.375C301.613 413.445 297.276 407.986 293.661 402C286.886 390.555 283 377.173 283 363C283 357.542 283.633 352.171 284.718 347.065C286.524 338.79 289.596 331.043 293.752 324C304.232 306.48 321.399 293.276 341.909 287.817C348.684 285.968 355.822 285 363.14 285C370.73 285 378.048 285.968 385.005 287.905ZM363.14 401.912C378.32 401.912 391.51 393.637 398.286 381.576C401.449 376.029 403.165 369.691 403.165 362.912C403.165 341.519 385.547 324.176 363.683 323.912L363.502 323.648L363.321 323.912H363.14C341.005 323.912 323.116 341.343 323.116 362.912C323.116 369.955 325.013 376.47 328.356 382.192C335.222 393.989 348.233 401.912 363.14 401.912Z" fill="#990033"/>
</svg>
