<svg width="20" height="20" viewBox="0 0 20 20" fill="none" xmlns="http://www.w3.org/2000/svg">
<path d="M17.5 1.85889H13.719C12.542 1.85889 11.556 2.67139 11.29 3.76539H2.5C1.119 3.76539 0 4.88489 0 6.26539V15.6404C0 17.0214 1.119 18.1404 2.5 18.1404H17.5C18.881 18.1404 20 17.0214 20 15.6404V4.35889C20 2.97889 18.881 1.85889 17.5 1.85889ZM12.0225 14.5804C12.04 14.6794 12.012 14.7809 11.9485 14.8589C11.883 14.9359 11.7875 14.9799 11.687 14.9799H8.315C8.215 14.9799 8.118 14.9359 8.0545 14.8599C7.989 14.7834 7.961 14.6829 7.9775 14.5834L8.5715 10.9894C8.176 10.6039 7.9525 10.0829 7.9525 9.53089C7.9525 8.40089 8.872 7.48189 10.002 7.48189C11.133 7.48189 12.052 8.40039 12.052 9.53089C12.052 10.0974 11.8185 10.6284 11.4055 11.0164L12.0225 14.5804Z" fill="white"/>
</svg>
