<svg width="64" height="38" viewBox="0 0 64 38" fill="none" xmlns="http://www.w3.org/2000/svg">
<path d="M52.4742 17.265C51.2853 15.1985 49.063 13.8104 46.5142 13.8104C43.9655 13.8104 41.7431 15.1985 40.5543 17.265H12.0754L10.6922 19.6356L0 37.9844H7.97254L10.6922 33.3134L11.9977 31.0754L16.0228 24.1663H40.5465C41.7354 26.2328 43.9655 27.6208 46.5065 27.6208C49.0552 27.6208 51.2776 26.2328 52.4664 24.1663C52.9094 23.3943 53.2046 22.5365 53.329 21.6163V19.8071C53.2124 18.8948 52.9171 18.0292 52.4742 17.265ZM43.0719 20.7195C43.0719 18.809 44.6105 17.265 46.5142 17.265C48.418 17.265 49.9566 18.809 49.9566 20.7195C49.9566 22.63 48.418 24.1741 46.5142 24.1741C44.6105 24.1663 43.0719 22.6222 43.0719 20.7195Z" fill="#00060A"/>
<path d="M26.0701 3.44675C25.1843 1.91053 23.7235 0.748614 21.9829 0.257335C21.3845 0.0857778 20.7551 0 20.1024 0C19.473 0 18.8591 0.0857797 18.2763 0.249539C16.5124 0.73302 15.036 1.90273 14.1347 3.45454C13.7772 4.07839 13.513 4.76462 13.3576 5.49764C13.2644 5.94993 13.21 6.42561 13.21 6.90909C13.21 8.16458 13.5441 9.34989 14.1269 10.3636C14.4377 10.8939 14.8107 11.3774 15.2381 11.8141C16.0073 12.5783 16.9553 13.1631 18.0121 13.4985C18.6649 13.709 19.3642 13.8182 20.0869 13.8182C20.8406 13.8182 21.5633 13.6934 22.2393 13.4751C23.2805 13.1319 24.213 12.5393 24.9745 11.7751C25.3863 11.354 25.7516 10.8861 26.0468 10.3636H46.491C52.1946 10.3636 56.818 15.0035 56.818 20.7273C56.818 26.4511 52.1946 31.0909 46.491 31.0909H36.2262L40.2513 38H46.491C55.9944 38 63.6949 30.2721 63.6949 20.7351C63.6949 11.198 55.9944 3.47014 46.491 3.47014H26.0701V3.44675ZM16.1006 10.3558L16.155 10.2701L16.2016 10.3558H16.1006ZM23.1251 8.55448C22.5423 9.62282 21.4078 10.3558 20.1024 10.3558C18.8203 10.3558 17.7013 9.65401 17.1108 8.60907C16.8232 8.1022 16.6601 7.52514 16.6601 6.90129C16.6601 4.99077 18.1986 3.44675 20.1024 3.44675H20.1179L20.1335 3.42335L20.149 3.44675C22.0295 3.47014 23.5447 5.00636 23.5447 6.90129C23.5447 7.50174 23.3971 8.06321 23.1251 8.55448ZM24.0731 10.3558L24.1275 10.2701L24.1741 10.3558H24.0731Z" fill="#700327"/>
</svg>
