<svg width="211" height="98" viewBox="0 0 211 98" fill="none" xmlns="http://www.w3.org/2000/svg">
<g clip-path="url(#clip5)">
<path d="M39.626 87.8595H29.7196L27.5885 92.5823H25.6367L33.7602 74.8978H35.617L43.7405 92.5823H41.7571L39.626 87.8595ZM38.9403 86.3377L34.6781 76.8394L30.4159 86.3377H38.9403Z" fill="#13050F"/>
<path d="M65.4839 92.5821L61.4221 86.8937C60.9685 86.9462 60.5043 86.9671 59.9979 86.9671H55.2187V92.5716H53.3408V74.8871H59.9979C64.5133 74.8871 67.2563 77.1646 67.2563 80.9534C67.2563 83.7346 65.7793 85.6762 63.1945 86.5159L67.5411 92.5821H65.4839ZM65.3784 80.9639C65.3784 78.1301 63.5005 76.5139 59.9451 76.5139H55.2187V85.3824H59.9451C63.5005 85.3824 65.3784 83.7346 65.3784 80.9639Z" fill="#13050F"/>
<path d="M77.8486 74.8976H85.624C91.3843 74.8976 95.3194 78.4346 95.3194 83.7347C95.3194 89.0348 91.3843 92.5717 85.624 92.5717H77.8486V74.8976ZM85.4657 89.8009C89.422 89.8009 91.9962 87.3975 91.9962 83.7347C91.9962 80.0718 89.4325 77.6684 85.4657 77.6684H81.1508V89.7904H85.4657V89.8009Z" fill="#13050F"/>
<path d="M117.464 92.5821L113.835 87.408C113.603 87.429 113.381 87.429 113.149 87.429H109.14V92.5821H105.838V74.8976H113.149C117.823 74.8976 120.713 77.2696 120.713 81.1843C120.713 83.8606 119.342 85.8337 116.926 86.7678L121.019 92.5821H117.464ZM112.991 77.6789H109.129V84.7317H112.991C115.881 84.7317 117.38 83.4198 117.38 81.1948C117.39 78.9593 115.892 77.6789 112.991 77.6789Z" fill="#13050F"/>
<path d="M131.4 74.8976H134.703V92.5821H131.4V74.8976Z" fill="#13050F"/>
<path d="M162.766 74.8976L155.022 92.5821H151.772L143.997 74.8976H147.574L153.492 88.5415L159.463 74.8976H162.766Z" fill="#13050F"/>
<path d="M185.365 89.8219V92.5716H172.029V74.8871H185.006V77.6368H175.331V82.2338H183.919V84.9416H175.331V89.8219H185.365Z" fill="#13050F"/>
<path d="M133.489 29.3271C131.875 26.5459 128.858 24.6777 125.397 24.6777C121.937 24.6777 118.92 26.5459 117.306 29.3271H78.6398L76.7619 32.5177L62.2451 57.213H73.0694L76.7619 50.9264L78.5343 47.9142L83.9992 38.6154H117.295C118.909 41.3967 121.937 43.2648 125.387 43.2648C128.847 43.2648 131.865 41.3967 133.479 38.6154C134.08 37.5764 134.481 36.4219 134.65 35.1835V32.7486C134.492 31.5206 134.091 30.3556 133.489 29.3271ZM120.724 33.9765C120.724 31.4052 122.813 29.3271 125.397 29.3271C127.982 29.3271 130.071 31.4052 130.071 33.9765C130.071 36.5479 127.982 38.6259 125.397 38.6259C122.813 38.6154 120.724 36.5374 120.724 33.9765Z" fill="#13050F"/>
<path d="M97.6399 10.7295C96.4372 8.66192 94.4538 7.09812 92.0906 6.43692C91.2783 6.20602 90.4237 6.09058 89.5375 6.09058C88.683 6.09058 87.8495 6.20603 87.0583 6.42643C84.6634 7.07713 82.6589 8.65142 81.4351 10.74C80.9498 11.5796 80.5911 12.5032 80.3801 13.4897C80.2535 14.0985 80.1797 14.7387 80.1797 15.3894C80.1797 17.0791 80.6333 18.6744 81.4246 20.0388C81.8466 20.7525 82.353 21.4032 82.9332 21.9909C83.9777 23.0194 85.2648 23.8066 86.6996 24.2579C87.5858 24.5413 88.5353 24.6882 89.5164 24.6882C90.5398 24.6882 91.5209 24.5203 92.4388 24.2264C93.8525 23.7646 95.1185 22.967 96.1524 21.9384C96.7115 21.3717 97.2074 20.742 97.6083 20.0388H125.365C133.109 20.0388 139.386 26.2835 139.386 33.987C139.386 41.6905 133.109 47.9352 125.365 47.9352H111.429L116.894 57.234H125.365C138.268 57.234 148.723 46.8332 148.723 33.9975C148.723 21.1618 138.268 10.761 125.365 10.761H97.6399V10.7295ZM84.1043 20.0283L84.1781 19.9129L84.2414 20.0283H84.1043ZM93.6415 17.6039C92.8502 19.0417 91.3099 20.0283 89.5375 20.0283C87.7968 20.0283 86.2776 19.0837 85.4758 17.6774C85.0854 16.9952 84.8639 16.2185 84.8639 15.3789C84.8639 12.8075 86.9528 10.7295 89.5375 10.7295H89.5586L89.5797 10.698L89.6008 10.7295C92.1539 10.761 94.2112 12.8285 94.2112 15.3789C94.2112 16.187 94.0107 16.9427 93.6415 17.6039ZM94.9286 20.0283L95.0024 19.9129L95.0657 20.0283H94.9286Z" fill="#700327"/>
</g>
<defs>
<clipPath id="clip5">
<rect width="211" height="98" fill="white"/>
</clipPath>
</defs>
</svg>
