<svg width="219" height="29" viewBox="0 0 219 29" fill="none" xmlns="http://www.w3.org/2000/svg">
<path d="M78.4156 18.2751H68.8594L66.8036 22.8486H64.9209L72.7572 5.72321H74.5483L82.3846 22.8486H80.4713L78.4156 18.2751ZM77.7541 16.8014L73.6426 7.60344L69.5311 16.8014H77.7541Z" fill="#00060A"/>
<path d="M103.359 22.8476L99.4411 17.3391C99.0035 17.3899 98.5557 17.4102 98.0672 17.4102H93.457V22.8375H91.6455V5.71204H98.0672C102.423 5.71204 105.069 7.91751 105.069 11.5865C105.069 14.2798 103.644 16.1601 101.151 16.9732L105.344 22.8476H103.359ZM103.257 11.5967C103.257 8.85255 101.446 7.28737 98.0163 7.28737H93.457V15.8755H98.0163C101.446 15.8755 103.257 14.2798 103.257 11.5967Z" fill="#00060A"/>
<path d="M115.287 5.72223H122.788C128.344 5.72223 132.14 9.14732 132.14 14.2799C132.14 19.4124 128.344 22.8375 122.788 22.8375H115.287V5.72223ZM122.635 20.1543C126.451 20.1543 128.934 17.8269 128.934 14.2799C128.934 10.7328 126.461 8.40538 122.635 8.40538H118.473V20.1442H122.635V20.1543Z" fill="#00060A"/>
<path d="M153.501 22.8476L150 17.8371C149.776 17.8574 149.563 17.8574 149.339 17.8574H145.472V22.8476H142.286V5.72223H149.339C153.847 5.72223 156.636 8.01917 156.636 11.8101C156.636 14.4018 155.313 16.3125 152.982 17.2171L156.931 22.8476H153.501ZM149.186 8.41554H145.461V15.2454H149.186C151.975 15.2454 153.42 13.975 153.42 11.8203C153.43 9.65549 151.985 8.41554 149.186 8.41554Z" fill="#00060A"/>
<path d="M166.945 5.72223H170.131V22.8476H166.945V5.72223Z" fill="#00060A"/>
<path d="M197.202 5.72223L189.732 22.8476H186.597L179.097 5.72223H182.547L188.256 18.9347L194.016 5.72223H197.202Z" fill="#00060A"/>
<path d="M219 20.1747V22.8375H206.137V5.71204H218.654V8.37486H209.322V12.8265H217.606V15.4486H209.322V20.1747H219Z" fill="#00060A"/>
<path d="M39.3817 12.8665C38.4914 11.3265 36.8271 10.2921 34.9184 10.2921C33.0097 10.2921 31.3455 11.3265 30.4551 12.8665H9.12793L8.09211 14.6332L0.0849609 28.3075H6.05541L8.09211 24.8264L9.06973 23.1586L12.0841 18.0096H30.4493C31.3396 19.5497 33.0097 20.5841 34.9126 20.5841C36.8213 20.5841 38.4855 19.5497 39.3759 18.0096C39.7076 17.4343 39.9287 16.795 40.0218 16.1093V14.761C39.9345 14.0811 39.7134 13.436 39.3817 12.8665ZM32.3405 15.441C32.3405 14.0172 33.4927 12.8665 34.9184 12.8665C36.3441 12.8665 37.4963 14.0172 37.4963 15.441C37.4963 16.8648 36.3441 18.0154 34.9184 18.0154C33.4927 18.0096 32.3405 16.859 32.3405 15.441Z" fill="#00060A"/>
<path d="M19.6082 2.56865C18.9449 1.4238 17.8509 0.557897 16.5474 0.191777C16.0993 0.0639251 15.6279 0 15.1391 0C14.6678 0 14.2081 0.0639265 13.7716 0.185967C12.4507 0.546275 11.345 1.41799 10.67 2.57446C10.4023 3.03938 10.2045 3.55079 10.0881 4.09706C10.0183 4.43412 9.97754 4.78862 9.97754 5.14893C9.97754 6.08457 10.2278 6.96791 10.6642 7.7234C10.897 8.11857 11.1763 8.47888 11.4963 8.80432C12.0724 9.37384 12.7824 9.8097 13.5738 10.0596C14.0626 10.2165 14.5863 10.2979 15.1275 10.2979C15.6919 10.2979 16.2331 10.2049 16.7394 10.0422C17.5192 9.78645 18.2175 9.34478 18.7877 8.77526C19.0962 8.46145 19.3697 8.11276 19.5908 7.7234H34.901C39.1722 7.7234 42.6346 11.1812 42.6346 15.4468C42.6346 19.7124 39.1722 23.1702 34.901 23.1702H27.2139L30.2282 28.3191H34.901C42.0178 28.3191 47.7846 22.56 47.7846 15.4526C47.7846 8.34522 42.0178 2.58609 34.901 2.58609H19.6082V2.56865ZM12.1423 7.71758L12.183 7.65366L12.2179 7.71758H12.1423ZM17.4028 6.37514C16.9663 7.17131 16.1167 7.71758 15.1391 7.71758C14.179 7.71758 13.341 7.19455 12.8988 6.41582C12.6834 6.03808 12.5612 5.60803 12.5612 5.14312C12.5612 3.71932 13.7134 2.56865 15.1391 2.56865H15.1508L15.1624 2.55122L15.174 2.56865C16.5823 2.58609 17.717 3.73094 17.717 5.14312C17.717 5.5906 17.6064 6.00902 17.4028 6.37514ZM18.1127 7.71758L18.1534 7.65366L18.1884 7.71758H18.1127Z" fill="#700327"/>
</svg>
