<svg width="316" height="36" viewBox="0 0 316 36" fill="none" xmlns="http://www.w3.org/2000/svg">
<path fill-rule="evenodd" clip-rule="evenodd" d="M118.469 0.0247803H103.119V35.0987H118.469C129.841 35.0987 137.61 28.0798 137.61 17.5618C137.61 7.04374 129.841 0.0247803 118.469 0.0247803ZM131.05 17.5578C131.05 24.8267 125.968 29.5963 118.157 29.5963V29.5755H109.639V5.51938H118.157C125.988 5.51938 131.05 10.2889 131.05 17.5578Z" fill="#700327"/>
<path fill-rule="evenodd" clip-rule="evenodd" d="M174.162 24.8475L181.327 35.1156H188.346L180.265 23.577C185.035 21.7233 187.742 17.8077 187.742 12.4966C187.742 4.72789 182.035 0.020813 172.809 0.020813H158.375V35.1156H164.894V24.8892H172.809C173.267 24.8892 173.704 24.8892 174.162 24.8475ZM164.873 5.54011H172.496C178.224 5.54011 181.181 8.0811 181.161 12.5174C181.161 16.9329 178.203 19.5364 172.496 19.5364H164.873V5.54011Z" fill="#700327"/>
<path d="M208.841 0.020813H215.36V35.1156H208.841V0.020813Z" fill="#700327"/>
<path d="M270.763 0.020813L255.475 35.1156H249.06L233.71 0.020813H240.771L252.455 27.0969L264.243 0.020813H270.763Z" fill="#700327"/>
<path d="M315.375 29.6379V35.0948H289.049V0H314.667V5.45687H295.568V14.5794H312.522V19.953H295.568V29.6379H315.375Z" fill="#700327"/>
<path fill-rule="evenodd" clip-rule="evenodd" d="M8.10331 25.7471H27.6606L31.8678 35.1196H35.7834L19.746 0.0247803H16.0803L0.0429688 35.1196H3.8961L8.10331 25.7471ZM17.8921 3.87411L26.3065 22.7232H9.47764L17.8921 3.87411Z" fill="#700327"/>
<path fill-rule="evenodd" clip-rule="evenodd" d="M70.6904 23.827L78.7091 35.1156H82.7705L74.1895 23.0772C79.2923 21.4109 82.2081 17.5578 82.2081 12.0384C82.2081 4.51962 76.7929 0 67.8786 0H54.7363V35.0948H58.4437V23.9728H67.8786C68.8784 23.9728 69.7948 23.9311 70.6904 23.827ZM67.7746 3.22829C74.7935 3.22829 78.5009 6.43576 78.5009 12.0593C78.5009 17.5578 74.7935 20.8277 67.7746 20.8277H58.4437V3.22829H67.7746Z" fill="#700327"/>
</svg>
