<svg width="19" height="19" viewBox="0 0 19 19" fill="none" xmlns="http://www.w3.org/2000/svg">
<g clip-path="url(#clip0)">
<path d="M9.5 0C4.256 0 0 4.256 0 9.5C0 14.744 4.256 19 9.5 19C14.744 19 19 14.744 19 9.5C19 4.256 14.744 0 9.5 0ZM8.55 17.0335C4.7975 16.568 1.9 13.376 1.9 9.5C1.9 8.911 1.976 8.3505 2.0995 7.7995L6.65 12.35V13.3C6.65 14.345 7.505 15.2 8.55 15.2V17.0335ZM15.105 14.6205C14.858 13.851 14.155 13.3 13.3 13.3H12.35V10.45C12.35 9.9275 11.9225 9.5 11.4 9.5H5.7V7.6H7.6C8.1225 7.6 8.55 7.1725 8.55 6.65V4.75H10.45C11.495 4.75 12.35 3.895 12.35 2.85V2.4605C15.1335 3.591 17.1 6.3175 17.1 9.5C17.1 11.476 16.34 13.2715 15.105 14.6205Z" fill="#A4A4A4"/>
</g>
<defs>
<clipPath id="clip0">
<rect width="19" height="19" fill="white"/>
</clipPath>
</defs>
</svg>
