<svg width="532" height="391" viewBox="0 0 532 391" fill="none" xmlns="http://www.w3.org/2000/svg">
<path d="M492.294 297.904L463.288 295.475L459.036 298.36C452.658 298.816 446.583 300.486 441.724 303.22C440.053 304.131 438.535 305.194 437.32 306.257L432.156 305.346V316.28C432.156 320.988 435.194 325.544 441.42 329.188C453.721 336.326 473.767 336.326 486.068 329.188C487.435 328.429 488.801 327.518 489.864 326.607V315.672L476.045 313.243L492.446 308.99L492.294 297.904Z" fill="#700327"/>
<path d="M431.246 305.042L431.854 304.586L432.157 304.738L437.017 305.65C438.384 304.586 439.75 303.523 441.269 302.764C445.977 300.182 452.051 298.512 458.733 297.904L462.986 295.019H463.289L493.055 297.449V298.208V309.75L492.599 309.902L479.539 313.395L490.473 315.369V327.366L490.321 327.67C489.106 328.733 487.739 329.644 486.373 330.403C473.768 337.541 453.418 337.541 440.965 330.403C435.043 326.91 431.55 322.355 431.398 317.343V316.887L431.246 305.042ZM463.441 296.386L459.189 299.271C452.659 299.879 446.736 301.397 442.18 303.979C440.662 304.89 439.143 305.801 437.928 307.016L437.624 307.32L437.169 307.168L432.917 306.409V316.432C432.917 320.988 436.106 325.392 441.725 328.581C453.874 335.567 473.464 335.567 485.613 328.581C486.828 327.822 487.891 327.062 488.954 326.303V316.28L475.135 313.85V312.635L475.742 312.483L491.688 308.383V298.664L463.441 296.386Z" fill="#13050F"/>
<path d="M463.594 305.346L492.296 297.905C490.322 295.323 487.285 293.045 483.184 291.071C470.883 285.452 452.964 285.907 441.726 292.134C428.969 299.271 428.817 310.965 441.27 318.103C453.571 325.24 473.617 325.24 485.918 318.103C487.285 317.343 488.5 316.432 489.715 315.521L463.594 305.346C463.594 305.498 463.594 305.346 463.594 305.346Z" fill="white"/>
<path d="M433.373 298.512C435.044 295.931 437.777 293.501 441.27 291.527C452.812 285.148 470.883 284.693 483.336 290.464C487.436 292.286 490.626 294.716 492.752 297.449L493.055 297.753L492.904 298.512L492.448 298.664L466.024 305.498L490.17 315.065L490.322 315.977L490.018 316.28C488.803 317.343 487.588 318.255 486.222 319.014C473.617 326.152 453.267 326.152 440.814 319.014C434.588 315.369 431.095 310.51 431.247 305.346C431.247 302.916 432.006 300.638 433.373 298.512ZM490.929 297.449C488.955 295.171 486.222 293.349 482.881 291.83C470.732 286.363 453.267 286.819 442.181 292.893C436.258 296.234 432.917 300.638 432.917 305.194C432.917 309.75 435.955 314.154 441.726 317.495C453.875 324.481 473.465 324.481 485.614 317.495C486.525 317.04 487.437 316.432 488.196 315.825L462.986 305.802V304.587L463.594 304.435L490.929 297.449Z" fill="#13050F"/>
<path d="M489.562 315.673L463.594 305.498L472.554 322.962C477.413 322.203 482.121 320.684 485.918 318.406C487.285 317.495 488.499 316.736 489.562 315.673C489.562 315.825 489.562 315.673 489.562 315.673Z" fill="white"/>
<path d="M462.682 305.346L463.441 304.435L464.048 304.739L490.321 315.066L490.473 315.977L490.169 316.28C488.954 317.192 487.739 318.103 486.372 318.862C482.576 320.988 477.868 322.659 472.705 323.57L472.097 323.722L462.682 305.346ZM488.043 315.977L465.263 307.017L473.008 322.051C477.716 321.14 481.968 319.621 485.461 317.647C486.372 317.192 487.284 316.584 488.043 315.977Z" fill="#13050F"/>
<path d="M463.594 305.499V323.57C466.631 323.57 469.668 323.267 472.554 322.811L463.594 305.499Z" fill="#13050F"/>
<path d="M483.79 319.469V330.252C485.461 329.796 488.194 327.67 490.016 326.455L489.713 315.673L483.79 319.469Z" fill="#13050F"/>
<path d="M462.834 304.891L464.049 304.587L464.353 305.194L473.768 323.57L472.705 323.722C469.668 324.177 466.631 324.481 463.593 324.481H462.834V304.891ZM471.338 322.355L464.353 308.687V322.811C466.631 322.811 469.06 322.659 471.338 322.355Z" fill="#13050F"/>
<path d="M463.593 323.722V305.65L457.215 323.418C459.341 323.57 461.467 323.722 463.593 323.722Z" fill="#700327"/>
<path d="M463.138 304.739L464.504 304.891V305.498V324.329H463.745C461.619 324.329 459.493 324.177 457.215 323.874L456.304 323.722L463.138 304.739ZM462.834 322.811V309.902L458.278 322.507C459.797 322.811 461.315 322.811 462.834 322.811Z" fill="#13050F"/>
<path d="M471.786 323.033L471.766 333.967L473.284 333.97L473.304 323.036L471.786 323.033Z" fill="#13050F"/>
<path d="M437.668 316.293L437.648 327.227L439.167 327.23L439.187 316.296L437.668 316.293Z" fill="#13050F"/>
<path d="M441.198 318.932L441.179 329.866L442.697 329.868L442.716 318.934L441.198 318.932Z" fill="#13050F"/>
<path d="M484.741 300.006L484.722 310.94L486.24 310.943L486.259 300.009L484.741 300.006Z" fill="#13050F"/>
<path d="M479.388 335.415C485.159 334.352 489.714 331.163 491.992 329.493C493.055 328.733 493.663 327.518 493.815 326.152L494.118 322.507L495.637 322.659L495.333 326.303C495.182 327.974 494.27 329.644 493.055 330.707C490.777 332.53 485.918 335.871 479.843 336.934L479.388 335.415Z" fill="#13050F"/>
<path d="M475.747 336.251L469.881 337.069L470.091 338.573L475.956 337.755L475.747 336.251Z" fill="#13050F"/>
<path d="M463.291 282.111C469.821 281.503 475.592 283.477 475.896 283.477L475.44 284.996C475.44 284.996 469.669 283.022 463.443 283.629L463.291 282.111Z" fill="#13050F"/>
<path d="M477.995 284.297L477.439 285.71L481.962 287.489L482.518 286.075L477.995 284.297Z" fill="#13050F"/>
<path d="M59.9397 248.701C61.762 248.701 63.4325 248.245 65.103 247.182L78.3152 238.982C80.745 237.463 83.6304 237.463 86.0602 238.83L98.2093 245.664L99.1205 243.993L86.9714 237.159C83.9341 235.489 80.2894 235.489 77.404 237.311L64.1919 245.512C61.762 247.03 58.5729 247.03 56.1431 245.664L38.6788 235.489L37.7676 237.159L55.2319 247.334C56.5987 248.245 58.2692 248.701 59.9397 248.701Z" fill="#13050F"/>
<path d="M113.092 261.306L114.003 259.635C109.751 257.357 108.84 254.168 108.84 252.042C108.84 250.371 107.928 248.853 106.562 248.093L103.828 246.575L102.917 248.245L105.651 249.764C106.41 250.219 107.017 251.131 107.017 252.042C107.017 254.32 107.777 258.42 113.092 261.306Z" fill="#13050F"/>
<path d="M44.7546 207.849L47.3363 204.508C46.7288 204.053 45.6658 202.838 45.6658 201.775C45.6658 200.864 46.8807 200.104 47.64 199.649C52.9552 196.612 58.1186 199.497 58.2705 199.649L60.3965 196.004C60.0928 195.852 52.9552 191.752 45.362 196.004C42.7804 197.523 41.4136 199.345 41.2617 201.471C41.2617 205.116 44.4509 207.698 44.7546 207.849Z" fill="#13050F"/>
<path d="M37.9206 225.314C37.7688 223.947 37.0095 219.088 37.6169 214.836C38.0725 212.102 40.9579 214.684 43.6915 217.721C51.4365 210.431 63.2819 204.661 77.4052 201.472C79.5313 201.016 81.8092 201.32 83.3279 202.231L94.2621 208.609L95.6288 203.598H102.918C102.918 203.598 105.348 207.394 103.526 214.987C103.526 215.595 103.07 216.202 102.311 216.658L63.8893 238.83C62.3707 239.741 59.789 239.741 58.2704 238.83L39.4393 227.592C38.5281 227.136 38.0725 226.529 37.9206 225.77C37.9206 225.618 37.9206 225.466 37.9206 225.314Z" fill="#700327"/>
<path d="M58.1175 239.437L38.9827 228.351C37.9197 227.743 37.3122 226.984 37.0085 226.073C37.0085 225.921 36.8566 225.617 36.8566 225.466C36.5529 223.947 35.9454 219.087 36.5529 214.683C36.7047 213.468 37.3122 213.013 37.9197 212.861C38.8308 212.557 40.1976 212.861 43.6905 216.354C51.5874 209.216 63.4328 203.597 77.2524 200.56C79.5303 200.104 82.112 200.408 83.7825 201.319L93.6536 207.09L94.8685 202.534H103.373L103.677 202.99C103.828 203.142 106.258 207.242 104.436 214.987C104.436 215.898 103.828 216.657 102.765 217.265L64.3439 239.437C63.4328 239.893 62.2178 240.196 61.0029 240.196C60.2436 240.196 59.0287 239.893 58.1175 239.437ZM96.3872 204.508L94.8685 209.975L82.8713 202.99C81.5045 202.23 79.3784 201.927 77.5561 202.382C63.7365 205.42 51.8911 211.038 44.1461 218.328L43.3868 218.935L42.7793 218.176C39.4383 214.379 38.3752 214.531 38.3752 214.379C38.3752 214.379 38.3752 214.531 38.2234 214.835C37.6159 219.087 38.2234 223.795 38.5271 225.162V225.314V225.466C38.679 225.921 38.9827 226.377 39.5902 226.68L58.725 237.766C59.9399 238.526 62.066 238.526 63.4328 237.766L102.006 215.594C102.462 215.291 102.765 214.987 102.765 214.835V214.683C104.132 209.064 103.069 205.723 102.462 204.508H96.3872Z" fill="#13050F"/>
<path d="M39.2872 217.113L58.422 228.199C59.9406 229.11 62.5223 229.11 64.0409 228.199L102.462 206.027C103.981 205.116 103.981 203.749 102.462 202.838L83.3276 191.752C81.809 190.841 79.3792 190.537 77.4049 190.993C59.1813 195.093 44.9061 203.293 37.9204 213.772C37.1611 214.987 37.6167 216.354 39.2872 217.113Z" fill="white"/>
<path d="M57.8135 228.958L38.6786 217.872C37.6156 217.265 36.8563 216.354 36.7044 215.443C36.5525 214.683 36.7044 213.924 37.16 213.165C44.1457 202.534 58.7246 194.182 77.1001 190.081C79.3781 189.626 81.9598 189.93 83.6303 190.841L102.765 201.927C103.828 202.534 104.436 203.445 104.436 204.357C104.436 205.268 103.828 206.179 102.765 206.786L64.3436 228.958C63.4324 229.414 62.2175 229.718 61.0026 229.718C59.9396 229.87 58.7246 229.566 57.8135 228.958ZM77.4039 192.056C59.484 196.004 45.5125 204.053 38.6786 214.38C38.5268 214.683 38.3749 214.987 38.5268 215.291C38.6786 215.746 38.9824 216.202 39.7417 216.506L58.8765 227.592C60.0914 228.351 62.2175 228.351 63.5843 227.592L102.006 205.42C102.461 205.116 102.765 204.812 102.765 204.66C102.765 204.357 102.461 204.053 102.006 203.901L82.871 192.815C81.9598 192.207 80.7449 192.056 79.3781 192.056C78.6188 191.752 78.0113 191.904 77.4039 192.056Z" fill="#13050F"/>
<path d="M48.8545 215.898L60.8517 222.884C61.611 223.34 62.9778 223.34 63.7371 222.884L92.8949 206.027C93.6543 205.571 93.6543 204.812 92.8949 204.357L80.8977 197.371C79.6828 196.612 77.7086 196.611 76.3418 197.219L72.2415 199.041C64.3446 202.382 57.3588 206.483 51.588 210.887L48.5507 213.317C47.4877 214.076 47.6396 215.139 48.8545 215.898Z" fill="#13050F"/>
<path d="M52.8023 216.354C58.5731 211.798 65.407 207.849 73.3039 204.508L77.4042 202.686C78.6191 202.23 80.2896 202.23 81.3527 202.838L88.794 207.09L89.5533 205.875L82.112 201.623C80.7452 200.864 78.4673 200.712 76.9486 201.319L72.8483 203.142C64.9514 206.483 57.9657 210.583 52.043 215.139L52.8023 216.354Z" fill="#700327"/>
<path d="M62.5216 228.807H60.6992V238.982H62.5216V228.807Z" fill="#13050F"/>
<path d="M58.5724 227.592H56.75V237.767H58.5724V227.592Z" fill="#13050F"/>
<path d="M100.488 218.328C101.248 212.406 100.488 207.698 100.488 207.546L98.666 207.85C98.666 207.85 99.4253 212.557 98.666 218.176L100.488 218.328Z" fill="#13050F"/>
<path d="M41.1086 229.11L42.931 228.959C42.4754 223.491 42.931 218.936 42.931 218.936L41.1086 218.784C41.1086 218.936 40.8049 223.643 41.1086 229.11Z" fill="#13050F"/>
<path d="M50.5245 197.674L51.8913 197.371C51.8913 197.219 51.5875 195.397 49.3096 194.789L49.0059 196.156C50.2208 196.46 50.3726 197.523 50.5245 197.674Z" fill="#700327"/>
<path d="M80.7442 222.276L83.3259 223.491L130.859 248.549L143.919 256.294L153.942 260.09C155.613 261.002 158.347 261.305 158.498 262.52V267.228C158.65 267.835 157.739 268.291 156.828 268.139L152.576 267.835C152.12 267.835 151.665 267.835 151.361 268.139L144.831 271.936C144.071 272.391 142.705 272.391 141.793 271.936L140.275 271.025C138.301 269.81 138.604 266.924 140.73 266.165L144.375 265.709C145.134 265.254 149.235 263.583 148.324 262.976L146.653 264.798C145.894 264.343 144.527 264.343 143.616 264.798L138.149 267.987C137.389 268.443 136.023 268.443 135.111 267.987L134.352 267.532C132.378 266.317 132.53 263.431 134.656 262.52L138.908 261.457C139.819 260.85 142.097 259.787 141.186 259.331C140.427 258.876 135.567 262.065 134.656 262.52L129.189 264.646L128.733 264.343C127.063 263.431 126 258.116 127.67 257.205L131.77 256.749C133.289 255.838 131.467 257.509 129.796 256.598C128.429 255.838 126.303 255.686 124.633 256.142L120.988 257.205C119.318 257.661 117.191 257.509 115.825 256.749C114.306 255.838 113.395 250.523 114.914 249.612L118.558 248.549L80.1367 226.377V222.276H80.7442Z" fill="#13050F"/>
<path d="M141.491 272.847L139.972 271.936C139.061 271.328 138.302 270.417 138.15 269.354C137.087 269.658 135.872 269.506 134.961 269.05L134.202 268.595C132.987 267.836 132.227 266.469 132.379 265.102C132.379 264.95 132.379 264.798 132.379 264.798L129.494 265.861L128.735 265.406C127.216 264.495 126.457 261.609 126.457 259.787C126.457 258.572 126.608 257.661 127.216 257.053C126.608 257.053 126.001 257.205 125.545 257.357L121.901 258.42C119.926 259.027 117.649 258.876 115.978 257.964C114.459 257.053 113.852 254.168 113.852 252.345C113.852 250.827 114.308 249.612 115.067 249.156L116.889 248.549L79.9863 227.288V222.125C79.9863 221.821 80.1382 221.365 80.4419 221.213L81.0494 220.91L131.62 247.486L144.68 255.079L154.703 258.876H154.855C155.311 259.179 156.07 259.331 156.677 259.635C158.196 260.09 159.563 260.698 159.867 262.065V266.924C159.867 267.38 159.715 267.684 159.411 268.139C158.955 268.595 158.044 268.899 157.133 268.899L152.881 268.595C152.577 268.595 152.273 268.595 152.122 268.747L145.591 272.543C144.984 272.847 144.377 272.999 143.617 272.999C142.706 273.303 142.099 273.151 141.491 272.847ZM152.729 267.076L156.981 267.38C157.285 267.38 157.589 267.38 157.589 267.228V262.672C157.437 262.368 156.222 261.913 155.614 261.761C154.855 261.457 154.096 261.305 153.488 260.85L143.465 257.053L130.253 249.308L81.505 223.643V226.225L121.445 249.308L115.826 250.979C115.674 251.131 115.522 251.586 115.522 252.497C115.522 254.32 116.282 256.142 116.737 256.446C117.8 257.053 119.623 257.205 121.141 256.75L124.786 255.686C126.76 255.079 129.038 255.231 130.709 256.142C130.861 256.142 130.861 256.294 131.013 256.294L131.924 256.142C132.379 255.838 132.987 255.535 133.442 256.142L133.898 256.75L133.442 257.357C133.29 257.509 132.987 257.813 132.531 257.964H132.379C131.924 258.116 131.468 258.116 130.861 258.116L128.431 258.42C128.279 258.572 128.127 259.027 128.127 259.787C128.127 261.609 128.886 263.432 129.494 263.887L134.657 261.913C134.809 261.761 135.72 261.305 136.328 261.002C139.821 258.876 141.187 258.268 141.947 258.876C142.402 259.179 142.706 259.483 142.706 259.939C142.706 260.85 141.643 261.457 140.276 262.368C140.124 262.52 139.972 262.52 139.821 262.672L135.417 263.735C134.809 264.039 134.354 264.646 134.202 265.406C134.202 266.165 134.505 266.772 135.113 267.228L135.872 267.684C136.328 267.987 137.391 267.987 137.998 267.684L138.606 267.38C139.061 266.621 139.669 266.013 140.58 265.709L141.643 265.558L143.465 264.495C144.225 264.039 145.44 263.887 146.351 264.191C146.503 264.039 146.806 264.039 146.958 263.887L148.325 262.368L148.932 262.824C149.236 262.976 149.54 263.432 149.54 263.887C149.54 264.495 149.084 264.95 148.173 265.558L147.11 266.772L146.503 266.469C146.351 266.621 146.047 266.621 145.895 266.772C145.44 266.924 145.136 267.076 144.984 267.228L144.832 267.38L142.25 267.684L139.972 269.05C139.972 269.202 139.972 269.202 139.972 269.354C139.972 270.113 140.276 270.721 140.884 271.025L142.402 271.936C143.01 272.24 143.921 272.24 144.528 271.936L151.059 268.139C151.514 267.836 151.97 267.836 152.577 267.836C152.577 267.076 152.577 267.076 152.729 267.076Z" fill="#13050F"/>
<path d="M86.8197 218.632L128.127 242.474L143.769 251.586L155.462 258.268C157.133 259.179 158.196 260.394 158.347 261.761L158.499 262.52C158.651 263.128 157.74 263.583 156.829 263.432L152.577 263.128C152.121 263.128 151.665 263.128 151.362 263.432L144.832 267.228C144.072 267.684 142.706 267.684 141.794 267.228L141.339 266.924C140.579 266.469 140.579 265.71 141.339 265.254L146.806 262.065C147.565 261.609 147.565 260.85 146.806 260.394C146.047 259.939 144.68 259.939 143.769 260.394L138.301 263.583C137.542 264.039 136.175 264.039 135.264 263.583C134.505 263.128 134.505 262.369 135.264 261.913L137.998 260.394C138.909 259.939 138.909 259.028 137.998 258.42C137.238 257.965 135.872 257.813 134.96 258.268L129.493 260.394L129.038 260.091C127.367 259.179 127.367 257.661 128.886 256.598L130.101 255.838C131.619 254.927 131.619 253.257 129.949 252.346C128.582 251.586 126.456 251.434 124.786 251.89L121.141 252.953C119.47 253.56 117.192 253.257 115.826 252.497C114.459 251.586 114.611 250.219 115.978 249.308L121.748 245.967L80.4414 222.125L86.8197 218.632Z" fill="white"/>
<path d="M141.491 268.139L141.035 267.836C140.276 267.38 139.972 266.773 139.972 266.165C139.972 265.558 140.428 264.95 141.035 264.495L146.502 261.306C146.502 261.306 146.502 261.306 146.654 261.306C146.654 261.306 146.502 261.306 146.502 261.154C145.895 260.85 144.984 260.85 144.376 261.154L138.909 264.343C137.846 264.95 136.175 264.95 134.961 264.343C134.201 263.887 133.897 263.28 133.897 262.672C133.897 262.065 134.353 261.457 134.961 261.002L137.694 259.483C137.846 259.331 137.846 259.331 137.846 259.331C137.846 259.331 137.846 259.179 137.694 259.179C137.087 258.876 136.175 258.724 135.416 259.028L129.493 261.306L128.734 260.85C127.671 260.243 127.064 259.331 127.064 258.268C127.064 257.357 127.671 256.446 128.582 255.687L129.797 254.927C130.253 254.624 130.557 254.32 130.557 254.016C130.557 253.712 130.253 253.409 129.797 253.105C128.734 252.497 126.912 252.346 125.393 252.801L121.748 253.864C119.774 254.472 117.344 254.32 115.674 253.257C114.763 252.649 114.307 251.89 114.307 250.979C114.307 250.068 114.915 249.156 115.826 248.549L120.078 246.119L78.9229 222.125L86.9716 217.569L156.07 257.509C157.892 258.572 159.107 260.091 159.411 261.761L159.562 262.52C159.562 262.976 159.562 263.432 159.107 263.735C158.651 264.191 157.74 264.495 156.829 264.495L152.577 264.191C152.273 264.191 151.969 264.191 151.817 264.343L145.287 268.139C144.68 268.443 144.072 268.595 143.313 268.595C142.706 268.595 142.098 268.443 141.491 268.139ZM152.729 262.369L156.981 262.672C157.285 262.672 157.436 262.672 157.588 262.52L157.436 261.913C157.285 260.85 156.373 259.787 155.007 259.028L86.8198 219.695L82.5676 222.125L124.026 245.967L116.889 250.068C116.433 250.371 116.281 250.675 116.281 250.827C116.281 251.131 116.585 251.434 116.889 251.586C117.952 252.346 119.926 252.497 121.293 252.042L124.938 250.979C126.912 250.371 129.19 250.523 130.86 251.434C131.923 252.042 132.531 252.953 132.531 254.016C132.531 254.927 131.923 255.838 131.012 256.598L129.797 257.357C129.342 257.661 129.038 257.965 129.038 258.268C129.038 258.572 129.342 258.876 129.797 259.179L134.961 257.205C136.175 256.75 137.846 256.902 138.757 257.509C139.516 257.965 139.82 258.572 139.82 259.331C139.82 260.091 139.365 260.698 138.605 261.154L135.872 262.672C135.872 262.672 135.872 262.672 135.72 262.672C135.72 262.672 135.72 262.672 135.872 262.672C136.327 262.976 137.39 262.976 137.998 262.672L143.465 259.483C144.528 258.876 146.198 258.876 147.413 259.483C148.173 259.939 148.476 260.546 148.476 261.154C148.476 261.761 148.021 262.369 147.413 262.824L141.946 266.013C141.946 266.013 141.946 266.013 141.794 266.013C141.794 266.013 141.794 266.013 141.946 266.013L142.402 266.317C143.009 266.621 143.921 266.621 144.528 266.317L151.058 262.52C151.514 262.217 151.969 262.217 152.577 262.217C152.577 262.369 152.577 262.369 152.729 262.369Z" fill="#13050F"/>
<path d="M152.121 264.191H150.754V267.684H152.121V264.191Z" fill="#700327"/>
<path d="M138.757 264.04H137.391V267.684H138.757V264.04Z" fill="#700327"/>
<path d="M131.467 260.395H130.101V264.343H131.467V260.395Z" fill="#700327"/>
<path d="M145.742 267.684H144.375V271.632H145.742V267.684Z" fill="#700327"/>
<path d="M120.837 253.712H119.471V257.661H120.837V253.712Z" fill="#700327"/>
<path d="M91.6793 228.807H90.3125V232.148H91.6793V228.807Z" fill="#700327"/>
<path d="M96.69 231.389H95.3232V235.185H96.69V231.389Z" fill="#700327"/>
<path d="M115.369 242.019H114.002V246.119H115.369V242.019Z" fill="#700327"/>
<path d="M213.473 389.023C216.207 389.023 218.789 388.416 221.218 387.049L220.307 385.379C216.055 387.809 210.74 387.657 206.488 385.227L166.092 361.688L165.181 363.358L205.576 386.897C208.006 388.264 210.74 389.023 213.473 389.023Z" fill="#13050F"/>
<path d="M224.105 385.378C225.776 384.012 228.205 380.215 225.624 376.267L224.105 377.33C226.535 380.974 223.194 384.012 223.042 384.012L224.105 385.378Z" fill="#13050F"/>
<path d="M165.636 320.837V312.788L163.662 313.243C161.384 308.688 157.132 304.435 151.057 300.943C141.034 295.172 128.885 285.301 115.673 285.452C103.22 285.604 89.8563 295.475 80.2889 300.943C74.2143 304.435 69.9621 308.688 67.6842 313.243L65.71 312.788V321.292C65.71 328.734 70.5696 336.023 80.2889 341.642C99.7274 352.88 131.467 352.88 150.905 341.642C160.928 335.871 165.788 328.278 165.636 320.837ZM141.794 336.327C134.504 340.579 124.481 335.112 115.066 335.112C105.65 335.112 96.6902 340.427 89.4007 336.327C74.9736 327.974 74.9736 314.458 89.4007 306.106C103.828 297.753 127.367 297.753 141.794 306.106C156.373 314.458 156.373 327.974 141.794 336.327Z" fill="#13050F"/>
<path d="M79.8343 342.401C70.115 336.782 64.7998 329.189 64.7998 321.14V311.573L67.2296 312.028C69.6594 307.472 74.0635 303.372 79.8343 300.031C81.5048 299.12 83.1753 298.057 85.1495 296.842C94.1095 291.375 105.196 284.541 115.674 284.389C115.826 284.389 115.978 284.389 116.13 284.389C126.76 284.389 136.479 290.616 145.136 296.083C147.414 297.449 149.388 298.816 151.514 300.031C157.285 303.372 161.689 307.472 164.119 312.028L166.548 311.573V320.988C166.7 329.189 161.385 336.782 151.514 342.401C141.643 348.172 128.734 350.905 115.674 350.905C102.614 350.905 89.7054 348.172 79.8343 342.401ZM164.574 313.851L163.056 314.154L162.752 313.547C160.474 309.143 156.222 305.043 150.451 301.702C148.325 300.487 146.199 299.12 144.073 297.753C135.568 292.438 126.153 286.363 115.978 286.363C115.826 286.363 115.674 286.363 115.674 286.363C105.651 286.515 94.8688 293.197 86.0607 298.512C84.2384 299.727 82.416 300.79 80.7455 301.702C74.9747 305.043 70.7225 309.143 68.4445 313.547L68.1408 314.154L66.6222 313.851V321.292C66.6222 328.581 71.6337 335.567 80.7455 340.882C100.032 351.968 131.316 351.968 150.451 340.882C159.715 335.567 164.726 328.43 164.574 320.836V320.077V313.851ZM125.393 337.541C121.901 336.782 118.408 336.175 115.067 336.175C111.574 336.175 108.233 336.934 104.892 337.693C99.121 338.908 93.8058 340.123 88.9461 337.238C81.6567 332.986 77.5564 327.367 77.5564 321.292C77.5564 315.217 81.5048 309.599 88.9461 305.346C103.677 296.842 127.671 296.842 142.25 305.346C149.54 309.599 153.64 315.217 153.64 321.292C153.64 327.367 149.692 332.986 142.25 337.238C140.124 338.453 137.694 338.908 135.113 338.908C132.075 338.908 128.886 338.149 125.393 337.541ZM125.849 335.719C131.62 336.934 137.087 337.997 141.491 335.567C148.173 331.771 151.818 326.607 151.818 321.292C151.818 315.977 148.173 310.813 141.491 307.017C127.368 298.816 104.132 298.816 90.0092 307.017C83.3272 310.813 79.6824 315.977 79.6824 321.292C79.6824 326.607 83.3272 331.771 90.0092 335.567C94.2614 337.997 98.9691 336.934 104.588 335.719C107.929 334.96 111.422 334.2 115.219 334.2C118.711 334.2 122.356 334.96 125.849 335.719Z" fill="#13050F"/>
<path d="M150.906 291.831C131.468 280.593 99.7284 280.593 80.2899 291.831C60.8513 303.069 60.8513 321.292 80.2899 332.682C99.7284 343.92 131.468 343.92 150.906 332.682C170.497 321.292 170.497 303.069 150.906 291.831ZM141.795 327.367C127.368 335.719 103.829 335.719 89.4017 327.367C74.9746 319.014 74.9746 305.499 89.4017 297.146C103.829 288.794 127.368 288.794 141.795 297.146C156.374 305.499 156.374 319.014 141.795 327.367Z" fill="#700327"/>
<path d="M79.8353 333.441C70.116 327.822 64.8008 320.229 64.8008 312.18C64.8008 304.131 70.116 296.538 79.8353 290.919C99.5776 279.53 131.621 279.53 151.363 290.919C161.082 296.538 166.398 304.131 166.398 312.18C166.398 320.229 161.082 327.822 151.363 333.441C141.492 339.212 128.584 341.945 115.523 341.945C102.615 341.945 89.7064 339.06 79.8353 333.441ZM80.7465 292.59C71.6346 297.905 66.6231 304.891 66.6231 312.18C66.6231 319.47 71.6346 326.455 80.7465 331.771C100.033 342.857 131.317 342.857 150.452 331.771C159.564 326.455 164.575 319.47 164.575 312.18C164.575 304.891 159.564 297.905 150.452 292.59C140.884 286.971 128.28 284.237 115.523 284.237C103.07 284.237 90.3139 287.123 80.7465 292.59ZM88.9471 328.126C81.6576 323.874 77.5573 318.255 77.5573 312.18C77.5573 306.106 81.5058 300.487 88.9471 296.235C103.678 287.73 127.672 287.73 142.251 296.235C149.541 300.487 153.641 306.106 153.641 312.18C153.641 318.255 149.693 323.874 142.251 328.126C134.962 332.378 125.243 334.504 115.523 334.504C105.956 334.504 96.2366 332.378 88.9471 328.126ZM141.34 297.905C127.217 289.704 103.982 289.704 89.8583 297.905C83.1763 301.702 79.5316 306.865 79.5316 312.18C79.5316 317.495 83.1763 322.659 89.8583 326.455C104.133 334.656 127.217 334.656 141.34 326.455C148.022 322.659 151.667 317.495 151.667 312.18C151.819 306.865 148.022 301.702 141.34 297.905Z" fill="#13050F"/>
<path d="M136.632 338.604H135.266V347.413H136.632V338.604Z" fill="#700327"/>
<path d="M75.2789 329.037H73.9121V337.845H75.2789V329.037Z" fill="#700327"/>
<path d="M87.4273 335.719H86.0605V344.527H87.4273V335.719Z" fill="#700327"/>
<path d="M136.632 294.412H135.266V303.22H136.632V294.412Z" fill="#700327"/>
<path d="M97.6021 293.653H96.2354V302.461H97.6021V293.653Z" fill="#700327"/>
<path d="M123.874 301.094C115.066 295.931 100.639 295.931 91.6793 301.094C82.8712 306.258 82.8712 314.458 91.6793 319.622C100.487 324.785 114.914 324.785 123.874 319.622C132.682 314.61 132.682 306.258 123.874 301.094Z" fill="white"/>
<path d="M219.246 369.737C219.398 369.433 219.246 369.129 219.094 368.977L153.489 331.467C153.489 331.467 153.185 331.315 152.881 331.467L147.11 334.808C146.503 335.112 146.199 336.023 146.199 336.63V342.857C146.199 343.16 146.351 343.464 146.503 343.464L211.956 380.974C212.26 381.126 212.564 380.974 212.716 380.823L219.246 369.737Z" fill="white"/>
<path d="M211.501 381.885L145.896 344.375L145.744 344.223C145.592 343.92 145.288 343.616 145.288 342.857V336.63C145.288 335.567 145.896 334.504 146.655 333.897L152.426 330.556C152.881 330.252 153.489 330.404 153.641 330.404H153.792L219.398 367.914C219.701 368.066 220.005 368.37 220.157 368.825C220.309 369.281 220.157 369.585 220.005 370.04L213.475 381.126C213.171 381.582 212.716 381.885 212.108 381.885C211.956 382.037 211.804 382.037 211.501 381.885ZM153.185 332.378L147.566 335.567C147.414 335.719 147.11 336.175 147.11 336.63V342.857L212.108 380.063L218.183 369.585L153.185 332.378Z" fill="#13050F"/>
<path d="M218.942 378.089L213.171 381.43C212.563 381.734 212.26 381.43 212.26 380.671V374.444C212.26 373.685 212.715 372.926 213.171 372.622L218.942 369.281C219.549 368.977 219.853 369.281 219.853 370.04V376.267C219.853 377.026 219.397 377.785 218.942 378.089Z" fill="#700327"/>
<path d="M212.108 382.341C211.652 382.038 211.349 381.43 211.349 380.823V374.596C211.349 373.533 211.956 372.47 212.715 371.863L218.486 368.522C218.942 368.218 219.549 368.218 220.005 368.522C220.46 368.825 220.764 369.433 220.764 370.04V376.267C220.764 377.33 220.157 378.393 219.397 379L213.627 382.341C213.323 382.493 213.019 382.645 212.715 382.645C212.564 382.493 212.412 382.493 212.108 382.341ZM218.486 377.33C218.638 377.178 218.942 376.722 218.942 376.267V370.344L213.627 373.381C213.475 373.533 213.171 373.989 213.171 374.444V380.367L218.486 377.33Z" fill="#13050F"/>
<path d="M146.197 338.756V342.856L212.258 380.67V376.57L146.197 338.756Z" fill="#13050F"/>
<path d="M152.311 337.094L151.632 338.28L185.641 357.737L186.32 356.551L152.311 337.094Z" fill="#13050F"/>
<path d="M192.927 360.526L192.248 361.712L203.584 368.198L204.263 367.012L192.927 360.526Z" fill="#13050F"/>
<path d="M116.433 329.037C134.656 329.037 143.464 319.166 143.616 319.014L142.553 318.103C142.401 318.255 131.315 330.556 107.928 326.911L107.776 328.278C110.814 328.885 113.699 329.037 116.433 329.037Z" fill="white"/>
<path d="M130.861 323.267C140.276 319.47 142.403 312.636 142.554 312.333L141.188 311.877C141.188 311.877 139.062 318.255 130.405 321.9L130.861 323.267Z" fill="white"/>
<path d="M83.7818 317.495C85.3005 314.61 87.7303 312.18 90.9194 310.206L90.1601 308.991C86.6672 311.117 84.0855 313.698 82.415 316.888L83.7818 317.495Z" fill="#700327"/>
<path d="M146.805 341.034H145.438V343.768H146.805V341.034Z" fill="#700327"/>
<path d="M109.6 312.636C108.234 313.699 109.297 315.369 109.6 315.521C109.145 315.369 106.411 314.762 104.589 315.521C105.956 314.458 104.741 312.788 104.589 312.636C104.893 312.788 107.626 313.395 109.6 312.636Z" fill="#13050F"/>
<path d="M102.159 308.383C100.792 309.446 101.855 311.117 102.159 311.269C101.703 311.117 98.9698 310.509 97.1475 311.269C98.5142 310.206 97.2993 308.535 97.1475 308.383C97.4512 308.535 100.185 309.143 102.159 308.383Z" fill="#13050F"/>
<path d="M116.889 308.383C115.523 309.446 116.586 311.117 116.889 311.269C116.434 311.117 113.7 310.509 111.878 311.269C113.245 310.206 112.03 308.535 111.878 308.383C112.334 308.535 114.915 309.143 116.889 308.383Z" fill="#13050F"/>
<path d="M109.6 304.131C108.234 305.194 109.297 306.865 109.6 307.017C109.145 306.865 106.411 306.257 104.589 307.017C105.956 305.954 104.741 304.283 104.589 304.131C104.893 304.283 107.626 304.891 109.6 304.131Z" fill="#13050F"/>
<path d="M325.094 380.67L339.521 389.174C341.951 390.541 345.9 390.693 348.329 389.326L362.908 381.126C364.123 380.366 364.731 379.455 364.731 378.544V372.014C364.731 372.014 364.731 371.862 364.579 372.014L358.656 375.051L353.341 365.028C350.911 363.661 338.155 362.446 335.725 363.813L329.347 374.595L323.424 371.406H323.272L323.12 378.088C323.272 379.151 323.879 380.062 325.094 380.67ZM353.037 376.418L349.848 378.088V379.455L336.94 378.544V377.177L334.965 376.114L341.647 372.317C343.014 371.558 345.14 371.558 346.507 372.317L353.037 376.418Z" fill="#700327"/>
<path d="M363.211 381.734L348.632 389.934C346.051 391.453 341.647 391.301 339.065 389.782L324.638 381.278C323.271 380.519 322.512 379.304 322.512 378.089L322.664 371.407V370.951L323.423 370.496L329.194 373.533L335.268 363.206L335.42 363.054C338.002 361.536 351.062 362.751 353.796 364.269L353.948 364.421L358.959 373.989L364.426 371.255L364.882 371.103L365.641 371.559L365.489 378.544C365.489 379.304 365.185 379.911 364.73 380.519C364.426 380.974 363.819 381.43 363.211 381.734ZM358.959 375.659L358.503 375.811L358.048 375.507L352.884 365.636C350.303 364.421 338.761 363.358 336.331 364.421L329.953 375.203L329.346 375.507L324.03 372.622V378.241C324.03 379 324.486 379.607 325.397 380.215L339.824 388.719C341.95 390.086 345.747 390.086 347.873 388.871L362.452 380.671C363.363 380.063 363.971 379.456 363.971 378.696V373.229L358.959 375.659ZM350.607 378.544C350.607 378.696 350.607 378.696 350.607 378.848C350.607 379.911 350.607 379.911 350.303 380.063L350.151 380.215L336.939 379.304C336.331 379.304 336.331 378.848 336.331 377.785C336.331 377.633 336.331 377.633 336.331 377.481L333.598 376.115L341.495 371.711C343.013 370.799 345.443 370.799 346.962 371.711L353.492 375.659L353.948 375.963V376.874L350.607 378.544ZM337.091 376.57C337.546 376.722 337.546 377.026 337.546 377.937C337.546 377.937 337.546 377.937 337.546 378.089L349.088 378.848C349.088 377.937 349.088 377.785 349.543 377.481L351.67 376.418L346.051 373.077C344.988 372.47 343.013 372.47 341.95 373.077L336.331 376.266L337.091 376.57Z" fill="#13050F"/>
<path d="M339.825 360.777L325.246 368.977C322.816 370.344 322.816 372.622 325.246 373.989L339.673 382.493C342.103 383.86 346.052 384.012 348.481 382.645L363.06 374.444C365.49 373.077 365.49 370.8 363.06 369.433L348.633 360.928C346.203 359.562 342.255 359.41 339.825 360.777ZM341.799 365.788C343.166 365.029 345.292 365.029 346.507 365.788L354.556 370.496C355.923 371.255 355.771 372.47 354.556 373.229L346.507 377.785C345.14 378.545 343.014 378.545 341.799 377.785L333.751 373.077C332.384 372.318 332.536 371.103 333.751 370.344L341.799 365.788Z" fill="white"/>
<path d="M363.364 375.204L348.785 383.404C346.052 384.923 341.951 384.923 339.37 383.252L324.942 374.748C323.576 373.989 322.816 372.774 322.816 371.559C322.816 370.344 323.576 369.281 325.094 368.37L339.673 360.169C342.407 358.65 346.507 358.65 349.089 360.321L363.516 368.825C364.883 369.585 365.642 370.799 365.642 372.014C365.642 372.622 365.338 373.381 364.883 373.989C364.427 374.444 363.971 374.9 363.364 375.204ZM348.178 361.536C346.052 360.321 342.255 360.169 340.129 361.384L325.55 369.585C324.639 370.192 324.031 370.799 324.031 371.407C324.031 372.166 324.487 372.774 325.398 373.381L339.825 381.886C341.951 383.1 345.748 383.252 347.874 382.037L362.453 373.837C363.364 373.229 363.971 372.622 363.971 372.014C363.971 371.255 363.516 370.648 362.605 370.04L348.178 361.536ZM354.86 373.989L346.811 378.545C345.292 379.456 342.862 379.456 341.344 378.545L333.295 373.837C332.384 373.381 331.928 372.622 331.928 371.863C331.928 371.103 332.384 370.344 333.295 369.888L341.344 365.332C342.862 364.421 345.292 364.421 346.811 365.332L354.86 370.04C355.771 370.496 356.226 371.255 356.226 372.014C356.226 372.47 356.075 372.926 355.771 373.229C355.467 373.533 355.163 373.685 354.86 373.989ZM334.054 370.951C333.599 371.103 333.447 371.407 333.447 371.711C333.447 372.014 333.751 372.166 334.054 372.47L342.103 377.178C343.166 377.785 344.988 377.785 346.203 377.178L354.252 372.622C354.708 372.47 354.86 372.166 354.86 371.863C354.86 371.559 354.556 371.407 354.252 371.103L346.203 366.395C345.14 365.788 343.318 365.788 342.103 366.395L334.054 370.951L333.751 370.344L334.054 370.951Z" fill="#13050F"/>
<path d="M343.303 383.839L343.238 390.37L344.605 390.383L344.669 383.853L343.303 383.839Z" fill="#13050F"/>
<path d="M343.4 365.199L343.336 371.729L344.703 371.742L344.767 365.212L343.4 365.199Z" fill="#13050F"/>
<path d="M360.842 375.282L360.777 381.812L362.144 381.825L362.208 375.295L360.842 375.282Z" fill="#13050F"/>
<path d="M327.111 375.471L327.047 382.001L328.414 382.015L328.478 375.485L327.111 375.471Z" fill="#13050F"/>
<path d="M355.315 372.622C355.315 372.622 351.822 374.748 351.67 374.9C351.518 375.052 346.203 372.166 346.203 372.166L344.077 371.407V365.181L347.266 366.396C347.266 366.396 354.708 370.496 354.708 370.648C354.859 370.8 355.315 372.622 355.315 372.622Z" fill="#13050F"/>
<path d="M329.194 361.232L340.584 354.55C342.406 353.487 344.532 353.487 346.355 354.55L357.896 361.232L358.807 359.562L347.266 352.88C344.836 351.513 341.95 351.513 339.521 352.88L328.131 359.562L329.194 361.232Z" fill="#13050F"/>
<path d="M75.2779 161.075L89.705 169.58C92.1348 170.946 96.0833 171.098 98.5131 169.731L113.092 161.531C114.307 160.771 114.914 159.86 114.914 158.949V152.419C114.914 152.419 114.914 152.267 114.762 152.419L108.84 155.456L103.525 145.433C101.095 144.066 88.3382 142.852 85.9084 144.218L79.5301 155.001L73.6074 151.812H73.4556L73.3037 158.494C73.4556 159.557 74.063 160.468 75.2779 161.075ZM103.221 156.823L100.032 158.494V159.86L87.1233 158.949V157.582L85.1491 156.519L91.8311 152.723C93.1979 151.963 95.3239 151.963 96.6907 152.723L103.221 156.823Z" fill="#700327"/>
<path d="M113.395 162.138L98.8159 170.339C96.2342 171.858 91.8301 171.706 89.2485 170.187L74.8214 161.683C73.4546 160.923 72.6953 159.709 72.6953 158.494L72.8472 151.812V151.356L73.6065 150.9L79.3773 153.938L85.4519 143.611L85.6037 143.459C88.1854 141.94 101.246 143.155 103.979 144.674L104.131 144.826L109.143 154.393L114.61 151.66L115.065 151.508L115.825 151.963L115.673 158.949C115.673 159.709 115.369 160.316 114.913 160.923C114.458 161.379 114.002 161.835 113.395 162.138ZM109.143 156.064L108.687 156.216L108.231 155.912L103.068 146.041C100.486 144.826 88.9447 143.763 86.5149 144.826L80.1366 155.608L79.5292 155.912L74.2139 153.027V158.645C74.2139 159.405 74.6695 160.012 75.5807 160.62L90.0078 169.124C92.1339 170.491 95.9305 170.491 98.0565 169.276L112.635 161.075C113.547 160.468 114.154 159.86 114.154 159.101V153.634L109.143 156.064ZM100.638 158.949C100.638 159.101 100.638 159.101 100.638 159.253C100.638 160.316 100.638 160.316 100.335 160.468L100.183 160.62L86.9705 159.709C86.363 159.709 86.363 159.253 86.363 158.19C86.363 158.038 86.363 158.038 86.363 157.886L83.6295 156.519L91.5264 152.115C93.045 151.204 95.4749 151.204 96.9935 152.115L103.524 156.064L103.979 156.368V157.279L100.638 158.949ZM87.2742 156.975C87.7298 157.127 87.7298 157.431 87.7298 158.342C87.7298 158.342 87.7298 158.342 87.7298 158.494L99.2715 159.253C99.2715 158.342 99.2715 158.19 99.727 157.886L101.853 156.823L96.2342 153.482C95.1711 152.875 93.1969 152.875 92.1339 153.482L86.5149 156.671L87.2742 156.975Z" fill="#13050F"/>
<path d="M90.0077 141.181L75.4288 149.382C72.999 150.749 72.999 153.027 75.4288 154.393L89.8559 162.898C92.2857 164.265 96.2341 164.416 98.664 163.05L113.243 154.849C115.673 153.482 115.673 151.204 113.243 149.838L98.664 141.333C96.386 139.966 92.4375 139.815 90.0077 141.181ZM91.9819 146.193C93.3487 145.433 95.4748 145.433 96.6897 146.193L104.738 150.901C106.105 151.66 105.953 152.875 104.738 153.634L96.6897 158.19C95.323 158.949 93.1969 158.949 91.9819 158.19L83.9332 153.482C82.5664 152.723 82.7183 151.508 83.9332 150.749L91.9819 146.193Z" fill="white"/>
<path d="M113.548 155.608L98.9687 163.809C96.2351 165.328 92.1348 165.328 89.5531 163.657L75.1261 155.153C73.7593 154.393 73 153.178 73 151.964C73 150.749 73.7593 149.686 75.278 148.774L89.8569 140.574C92.5904 139.055 96.6907 139.055 99.2724 140.726L113.699 149.23C115.066 149.989 115.826 151.204 115.826 152.419C115.826 153.027 115.522 153.786 115.066 154.393C114.611 154.849 114.155 155.305 113.548 155.608ZM98.3612 141.941C96.2351 140.726 92.4386 140.574 90.3125 141.789L75.7335 149.989C74.8224 150.597 74.2149 151.204 74.2149 151.812C74.2149 152.571 74.6705 153.178 75.5817 153.786L90.0087 162.29C92.1348 163.505 95.9314 163.657 98.0575 162.442L112.636 154.242C113.548 153.634 114.155 153.027 114.155 152.419C114.155 151.66 113.699 151.052 112.788 150.445L98.3612 141.941ZM105.043 154.393L96.9945 158.949C95.4758 159.86 93.046 159.86 91.5274 158.949L83.4786 154.242C82.5674 153.786 82.1118 153.027 82.1118 152.267C82.1118 151.508 82.5674 150.749 83.4786 150.293L91.5274 145.737C93.046 144.826 95.4758 144.826 96.9945 145.737L105.043 150.445C105.954 150.901 106.41 151.66 106.41 152.419C106.41 152.875 106.258 153.33 105.954 153.634C105.651 153.938 105.347 154.09 105.043 154.393ZM84.2379 151.356C83.7823 151.508 83.6305 151.812 83.6305 152.115C83.6305 152.419 83.9342 152.571 84.2379 152.875L92.2867 157.583C93.3497 158.19 95.1721 158.19 96.387 157.583L104.436 153.027C104.891 152.875 105.043 152.571 105.043 152.267C105.043 151.964 104.74 151.812 104.436 151.508L96.387 146.8C95.324 146.193 93.5016 146.193 92.2867 146.8L84.2379 151.356L83.9342 150.749L84.2379 151.356Z" fill="#13050F"/>
<path d="M93.4501 164.23L93.3857 170.76L94.7525 170.774L94.8169 164.244L93.4501 164.23Z" fill="#13050F"/>
<path d="M93.5427 145.741L93.4785 152.271L94.8453 152.285L94.9095 145.755L93.5427 145.741Z" fill="#13050F"/>
<path d="M110.987 155.824L110.923 162.354L112.29 162.368L112.354 155.837L110.987 155.824Z" fill="#13050F"/>
<path d="M77.2577 155.861L77.1934 162.392L78.5601 162.405L78.6245 155.875L77.2577 155.861Z" fill="#13050F"/>
<path d="M105.649 153.026C105.649 153.026 102.156 155.152 102.004 155.304C101.852 155.456 96.5372 152.571 96.5372 152.571L94.4111 151.811V145.585L97.6003 146.8C97.6003 146.8 105.042 150.9 105.042 151.052C105.193 151.204 105.649 153.026 105.649 153.026Z" fill="#13050F"/>
<path d="M94.1081 178.084C95.9304 178.084 97.7528 177.628 99.4233 176.717L106.105 173.072L105.194 171.402L98.5121 175.047C95.7786 176.565 92.2857 176.565 89.5522 175.047L83.1739 171.402L82.2627 173.072L88.641 176.717C90.3115 177.628 92.2857 178.084 94.1081 178.084Z" fill="#13050F"/>
<path d="M133.745 153.331H131.923V201.623H133.745V153.331Z" fill="#13050F"/>
<path d="M133.745 130.399H131.923V147.256H133.745V130.399Z" fill="#13050F"/>
<path d="M420.312 219.087H422.134V164.265C422.134 164.113 423.501 146.952 407.252 139.663L406.492 141.333C421.527 148.015 420.464 163.505 420.312 164.113V219.087Z" fill="#13050F"/>
<path d="M422.286 225.77H420.464V244.297H422.286V225.77Z" fill="#13050F"/>
<path d="M189.632 271.177L199.807 271.329C199.959 271.329 200.11 271.329 200.262 271.177L239.139 248.701C241.569 247.334 245.062 247.183 247.188 248.398L335.269 299.272C335.269 299.272 335.421 299.272 335.421 299.424L364.579 309.295C365.034 309.447 365.186 309.75 365.186 310.206V317.495C365.49 318.559 364.731 319.622 363.212 320.533L314.616 348.476C312.186 349.842 308.693 349.994 306.567 348.779L189.784 281.352C188.873 280.744 188.417 280.137 188.417 279.378V272.088C188.569 271.481 189.024 271.177 189.632 271.177Z" fill="#13050F"/>
<path d="M306.263 349.69L189.48 282.263C188.265 281.504 187.657 280.592 187.657 279.378V272.088C187.657 271.633 187.809 271.025 188.265 270.721C188.568 270.418 189.024 270.114 189.631 270.114L199.806 270.266L238.683 247.79C241.417 246.271 245.365 246.119 247.643 247.486L335.724 298.361L364.882 308.232C365.641 308.535 366.249 309.295 366.249 310.054V317.344C366.553 318.862 365.641 320.229 363.819 321.292L315.223 349.235C313.704 350.146 311.882 350.45 310.211 350.45C308.844 350.602 307.326 350.298 306.263 349.69ZM239.595 249.612L200.718 272.088C200.414 272.24 200.11 272.392 199.654 272.392L189.48 272.24V271.329V279.681C189.48 280.289 189.935 280.592 190.391 280.896L307.174 348.324C308.996 349.387 312.185 349.235 314.312 348.02L362.908 320.077C363.971 319.47 364.578 318.71 364.427 318.103V310.51L335.117 300.639C334.965 300.639 334.813 300.487 334.813 300.487L246.732 249.612C245.973 249.157 244.91 249.005 243.695 249.005C242.176 248.549 240.658 248.853 239.595 249.612Z" fill="#13050F"/>
<path d="M189.935 273.455L306.718 340.882C308.845 342.097 312.337 341.945 314.767 340.579L363.364 312.636C365.793 311.269 365.945 309.143 363.971 307.928L247.188 240.501C245.062 239.286 241.569 239.438 239.139 240.804L190.543 268.747C188.113 270.114 187.961 272.24 189.935 273.455Z" fill="white"/>
<path d="M306.263 341.642L189.48 274.214C188.265 273.455 187.657 272.544 187.657 271.329C187.657 270.114 188.568 268.747 190.087 267.836L238.532 239.893C241.265 238.374 245.214 238.222 247.492 239.589L364.275 307.017C365.49 307.776 366.097 308.687 366.097 309.902C366.097 311.117 365.186 312.484 363.667 313.395L315.071 341.338C313.552 342.249 311.73 342.553 310.059 342.553C308.844 342.553 307.326 342.249 306.263 341.642ZM239.595 241.563L191.15 269.506C190.239 270.114 189.631 270.721 189.631 271.329C189.631 271.936 190.087 272.24 190.543 272.544L307.326 339.971C309.148 341.034 312.337 340.882 314.463 339.667L363.06 311.724C363.971 311.117 364.578 310.51 364.578 309.902C364.578 309.295 364.123 308.991 363.667 308.687L246.884 241.26C246.125 240.804 245.062 240.652 243.847 240.652C242.176 240.5 240.658 240.804 239.595 241.563Z" fill="#13050F"/>
<path d="M310.97 342.25H309.604V349.235H310.97V342.25Z" fill="#700327"/>
<path d="M360.63 314.61H359.264V321.596H360.63V314.61Z" fill="#700327"/>
<path d="M194.491 275.885H193.124V282.871H194.491V275.885Z" fill="#700327"/>
<path d="M140.428 6.3264C140.276 6.17454 140.428 6.02267 140.58 5.87081L149.236 1.01117C149.692 0.707443 150.299 0.555579 151.059 1.01117L412.872 152.116C414.238 152.875 415.453 155.153 415.453 156.975V357.283C415.453 358.195 415.15 358.954 414.694 359.258L405.582 364.269L396.47 353.335L400.115 351.816L151.059 208.305C149.692 207.546 148.477 205.268 148.477 203.445V17.2606L140.428 6.3264Z" fill="white"/>
<path d="M394.952 353.335L397.989 351.968L150.603 209.216C148.933 208.305 147.566 205.724 147.566 203.597V17.5644L139.669 6.93396C139.517 6.63024 139.365 6.32651 139.517 6.02278C139.517 5.71905 139.821 5.41533 140.124 5.26346L148.629 0.555689C149.388 -0.051766 150.451 -0.051766 151.514 0.555689L413.327 151.66C414.998 152.571 416.364 155.153 416.364 157.279V357.587C416.364 358.802 415.909 359.713 415.15 360.321L405.278 365.788L394.952 353.335ZM149.692 1.92246L141.643 6.32651L149.388 16.8051V203.446C149.388 204.964 150.299 206.938 151.514 207.546L402.089 352.272L397.989 354.094L405.734 363.51L414.087 358.954C414.238 358.802 414.542 358.346 414.542 357.739V157.279C414.542 155.76 413.631 153.786 412.416 153.179L150.603 1.92246C150.451 1.7706 150.299 1.7706 150.147 1.7706C149.996 1.7706 149.844 1.92246 149.692 1.92246Z" fill="#13050F"/>
<path d="M141.794 213.468L403.607 364.573C404.973 365.332 406.188 364.573 406.188 362.599V162.29C406.188 160.468 404.973 158.19 403.607 157.431L141.794 6.3263C140.427 5.56698 139.212 6.3263 139.212 8.30053V208.609C139.364 210.431 140.427 212.557 141.794 213.468Z" fill="#13050F"/>
<path d="M403.152 365.332L141.339 214.228C139.669 213.316 138.302 210.735 138.302 208.609V8.14864C138.302 6.78186 138.757 5.71882 139.669 5.26323C140.428 4.80764 141.339 4.80764 142.25 5.41509L404.063 156.519C405.734 157.431 407.1 160.012 407.1 162.138V362.447C407.1 363.813 406.645 364.876 405.734 365.332C405.43 365.484 404.974 365.636 404.671 365.636C404.215 365.788 403.759 365.636 403.152 365.332ZM140.732 6.93373C140.58 7.08559 140.276 7.38932 140.276 8.14864V208.457C140.276 209.975 141.187 211.95 142.402 212.557L404.215 363.661C404.367 363.813 404.671 363.965 404.974 363.813C405.126 363.662 405.43 363.358 405.43 362.598V162.29C405.43 160.772 404.519 158.797 403.304 158.19L141.339 7.08559C141.187 7.08559 141.035 6.93373 140.732 6.93373Z" fill="#13050F"/>
<path d="M142.25 209.672L403.303 360.321C403.759 360.624 404.063 360.321 404.063 359.713V161.379C404.063 160.772 403.759 160.164 403.303 160.013L142.25 9.21193C141.794 8.9082 141.49 9.21193 141.49 9.81938V208.305C141.49 208.761 141.794 209.368 142.25 209.672Z" fill="#700327"/>
<g clip-path="url(#clip0)">
<path d="M307.453 258.827C306.982 259.061 306.982 259.531 307.453 260C307.925 260.235 308.869 260.235 309.341 260C309.813 259.766 309.813 259.296 309.341 258.827C308.869 258.357 307.925 258.357 307.453 258.827Z" fill="#16110D"/>
<path d="M302.264 255.775C301.792 256.01 301.792 256.479 302.264 256.949C302.736 257.184 303.68 257.184 304.151 256.949C304.623 256.714 304.623 256.245 304.151 255.775C303.68 255.54 302.972 255.54 302.264 255.775Z" fill="#16110D"/>
<path d="M298.253 254.132C299.035 254.132 299.669 253.817 299.669 253.428C299.669 253.039 299.035 252.724 298.253 252.724C297.472 252.724 296.838 253.039 296.838 253.428C296.838 253.817 297.472 254.132 298.253 254.132Z" fill="#16110D"/>
<path d="M292.119 249.907C291.647 250.142 291.647 250.611 292.119 251.081C292.59 251.315 293.534 251.315 294.006 251.081C294.478 250.846 294.478 250.376 294.006 249.907C293.534 249.672 292.59 249.672 292.119 249.907Z" fill="#16110D"/>
<path d="M287.165 247.09C286.694 247.325 286.694 247.794 287.165 248.264C287.637 248.498 288.581 248.498 289.053 248.264C289.525 248.029 289.525 247.56 289.053 247.09C288.581 246.855 287.637 246.855 287.165 247.09Z" fill="#16110D"/>
<path d="M281.975 244.039C281.503 244.274 281.503 244.743 281.975 245.212C282.447 245.447 283.39 245.447 283.862 245.212C284.334 244.978 284.334 244.508 283.862 244.039C283.39 243.804 282.447 243.804 281.975 244.039Z" fill="#16110D"/>
<path d="M276.785 241.222C276.313 241.457 276.313 241.926 276.785 242.396C277.256 242.63 278.2 242.63 278.672 242.396C279.144 242.161 279.144 241.691 278.672 241.222C278.2 240.987 277.492 240.987 276.785 241.222Z" fill="#16110D"/>
<path d="M271.83 238.405C271.359 238.64 271.359 239.109 271.83 239.579C272.302 239.814 273.246 239.814 273.718 239.579C274.19 239.344 274.19 238.875 273.718 238.405C273.246 237.936 272.302 237.936 271.83 238.405Z" fill="#16110D"/>
<path d="M266.64 235.354C266.168 235.589 266.168 236.058 266.64 236.527C267.112 236.762 268.055 236.762 268.527 236.527C268.999 236.293 268.999 235.823 268.527 235.354C268.055 235.119 267.112 235.119 266.64 235.354Z" fill="#16110D"/>
<path d="M261.45 232.537C260.978 232.772 260.978 233.241 261.45 233.711C261.921 233.946 262.865 233.946 263.337 233.711C263.809 233.476 263.809 233.007 263.337 232.537C262.865 232.068 262.157 232.068 261.45 232.537Z" fill="#16110D"/>
<path d="M256.496 229.486C256.025 229.72 256.025 230.19 256.496 230.659C256.968 230.894 257.912 230.894 258.384 230.659C258.856 230.425 258.856 229.955 258.384 229.486C257.912 229.251 256.968 229.251 256.496 229.486Z" fill="#16110D"/>
<path d="M251.306 226.669C250.834 226.904 250.834 227.373 251.306 227.843C251.778 228.077 252.722 228.077 253.193 227.843C253.665 227.608 253.665 227.138 253.193 226.669C252.722 226.2 252.014 226.2 251.306 226.669Z" fill="#16110D"/>
<path d="M317.599 258.827C317.127 259.061 317.127 259.531 317.599 260C318.071 260.235 319.014 260.235 319.486 260C319.958 259.766 319.958 259.296 319.486 258.827C319.014 258.357 318.307 258.357 317.599 258.827Z" fill="#16110D"/>
<path d="M312.644 255.775C312.172 256.01 312.172 256.479 312.644 256.949C313.116 257.184 314.059 257.184 314.531 256.949C315.003 256.714 315.003 256.245 314.531 255.775C314.059 255.54 313.116 255.54 312.644 255.775Z" fill="#16110D"/>
<path d="M307.453 252.959C306.982 253.193 306.982 253.663 307.453 254.132C307.925 254.367 308.869 254.367 309.341 254.132C309.813 253.897 309.813 253.428 309.341 252.959C308.869 252.489 307.925 252.489 307.453 252.959Z" fill="#16110D"/>
<path d="M302.264 249.907C301.792 250.142 301.792 250.611 302.264 251.081C302.736 251.315 303.68 251.315 304.151 251.081C304.623 250.846 304.623 250.376 304.151 249.907C303.68 249.672 302.972 249.672 302.264 249.907Z" fill="#16110D"/>
<path d="M297.309 247.09C296.837 247.325 296.837 247.794 297.309 248.264C297.781 248.498 298.724 248.498 299.196 248.264C299.668 248.029 299.668 247.56 299.196 247.09C298.724 246.855 297.781 246.855 297.309 247.09Z" fill="#16110D"/>
<path d="M292.119 244.039C291.647 244.274 291.647 244.743 292.119 245.212C292.59 245.447 293.534 245.447 294.006 245.212C294.478 244.978 294.478 244.508 294.006 244.039C293.534 243.804 292.59 243.804 292.119 244.039Z" fill="#16110D"/>
<path d="M287.165 241.222C286.694 241.457 286.694 241.926 287.165 242.396C287.637 242.63 288.581 242.63 289.053 242.396C289.525 242.161 289.525 241.691 289.053 241.222C288.581 240.987 287.637 240.987 287.165 241.222Z" fill="#16110D"/>
<path d="M281.975 238.405C281.503 238.64 281.503 239.109 281.975 239.579C282.447 239.814 283.39 239.814 283.862 239.579C284.334 239.344 284.334 238.875 283.862 238.405C283.39 237.936 282.447 237.936 281.975 238.405Z" fill="#16110D"/>
<path d="M276.785 235.354C276.313 235.589 276.313 236.058 276.785 236.527C277.256 236.762 278.2 236.762 278.672 236.527C279.144 236.293 279.144 235.823 278.672 235.354C278.2 235.119 277.492 235.119 276.785 235.354Z" fill="#16110D"/>
<path d="M271.83 232.537C271.359 232.772 271.359 233.241 271.83 233.711C272.302 233.946 273.246 233.946 273.718 233.711C274.19 233.476 274.19 233.007 273.718 232.537C273.246 232.068 272.302 232.068 271.83 232.537Z" fill="#16110D"/>
<path d="M266.64 229.486C266.168 229.72 266.168 230.19 266.64 230.659C267.112 230.894 268.055 230.894 268.527 230.659C268.999 230.425 268.999 229.955 268.527 229.486C268.055 229.251 267.112 229.251 266.64 229.486Z" fill="#16110D"/>
<path d="M261.45 226.669C260.978 226.904 260.978 227.373 261.45 227.843C261.921 228.077 262.865 228.077 263.337 227.843C263.809 227.608 263.809 227.138 263.337 226.669C262.865 226.2 262.157 226.2 261.45 226.669Z" fill="#16110D"/>
<path d="M256.496 223.617C256.025 223.852 256.025 224.322 256.496 224.791C256.968 225.026 257.912 225.026 258.384 224.791C258.856 224.556 258.856 224.087 258.384 223.617C257.912 223.383 256.968 223.383 256.496 223.617Z" fill="#16110D"/>
<path d="M302.264 244.039C301.792 244.274 301.792 244.743 302.264 245.212C302.736 245.447 303.68 245.447 304.151 245.212C304.623 244.978 304.623 244.508 304.151 244.039C303.68 243.804 302.972 243.804 302.264 244.039Z" fill="#16110D"/>
<path d="M298.253 242.396C299.035 242.396 299.669 242.08 299.669 241.691C299.669 241.303 299.035 240.987 298.253 240.987C297.472 240.987 296.838 241.303 296.838 241.691C296.838 242.08 297.472 242.396 298.253 242.396Z" fill="#16110D"/>
<path d="M292.119 238.405C291.647 238.64 291.647 239.109 292.119 239.579C292.59 239.814 293.534 239.814 294.006 239.579C294.478 239.344 294.478 238.875 294.006 238.405C293.534 237.936 292.59 237.936 292.119 238.405Z" fill="#16110D"/>
<path d="M287.165 235.354C286.694 235.589 286.694 236.058 287.165 236.527C287.637 236.762 288.581 236.762 289.053 236.527C289.525 236.293 289.525 235.823 289.053 235.354C288.581 235.119 287.637 235.119 287.165 235.354Z" fill="#16110D"/>
<path d="M281.975 232.537C281.503 232.772 281.503 233.241 281.975 233.711C282.447 233.946 283.39 233.946 283.862 233.711C284.334 233.476 284.334 233.007 283.862 232.537C283.39 232.068 282.447 232.068 281.975 232.537Z" fill="#16110D"/>
<path d="M276.785 229.486C276.313 229.72 276.313 230.19 276.785 230.659C277.256 230.894 278.2 230.894 278.672 230.659C279.144 230.425 279.144 229.955 278.672 229.486C278.2 229.251 277.492 229.251 276.785 229.486Z" fill="#16110D"/>
<path d="M271.83 226.669C271.359 226.904 271.359 227.373 271.83 227.843C272.302 228.077 273.246 228.077 273.718 227.843C274.19 227.608 274.19 227.138 273.718 226.669C273.246 226.2 272.302 226.2 271.83 226.669Z" fill="#16110D"/>
<path d="M266.64 223.617C266.168 223.852 266.168 224.322 266.64 224.791C267.112 225.026 268.055 225.026 268.527 224.791C268.999 224.556 268.999 224.087 268.527 223.617C268.055 223.383 267.112 223.383 266.64 223.617Z" fill="#16110D"/>
<path d="M261.45 220.801C260.978 221.035 260.978 221.505 261.45 221.974C261.921 222.209 262.865 222.209 263.337 221.974C264.045 221.505 262.157 220.566 261.45 220.801Z" fill="#16110D"/>
<path d="M248.239 223.617C247.767 223.383 246.824 223.383 246.352 223.617C245.88 223.852 245.88 224.322 246.352 224.791C246.824 225.026 247.767 225.026 248.239 224.791C248.711 224.556 248.711 224.087 248.239 223.617Z" fill="#16110D"/>
<path d="M241.161 220.801C240.69 221.036 240.69 221.505 241.161 221.975C241.633 222.209 242.577 222.209 243.049 221.975C243.521 221.74 243.521 221.27 243.049 220.801C242.577 220.566 241.633 220.566 241.161 220.801Z" fill="#16110D"/>
<path d="M235.971 217.984C235.499 218.219 235.499 218.689 235.971 219.158C236.443 219.393 237.387 219.393 237.858 219.158C238.33 218.923 238.33 218.454 237.858 217.984C237.387 217.515 236.443 217.515 235.971 217.984Z" fill="#16110D"/>
<path d="M231.017 214.933C230.545 215.168 230.545 215.637 231.017 216.107C231.489 216.341 232.432 216.341 232.904 216.107C233.376 215.872 233.376 215.402 232.904 214.933C232.432 214.698 231.489 214.698 231.017 214.933Z" fill="#16110D"/>
<path d="M225.827 212.116C225.355 212.351 225.355 212.82 225.827 213.29C226.298 213.525 227.242 213.525 227.714 213.29C228.186 213.055 228.186 212.586 227.714 212.116C227.242 211.647 226.298 211.647 225.827 212.116Z" fill="#16110D"/>
<path d="M220.637 209.065C220.165 209.299 220.165 209.769 220.637 210.238C221.109 210.473 222.053 210.473 222.524 210.238C222.996 210.004 222.996 209.534 222.524 209.065C222.053 208.83 221.345 208.83 220.637 209.065Z" fill="#16110D"/>
<path d="M215.683 206.248C215.211 206.483 215.211 206.952 215.683 207.422C216.155 207.656 217.098 207.656 217.57 207.422C218.042 207.187 218.042 206.718 217.57 206.248C217.098 205.779 216.155 205.779 215.683 206.248Z" fill="#16110D"/>
<path d="M210.493 203.197C210.021 203.431 210.021 203.901 210.493 204.37C210.964 204.605 211.908 204.605 212.38 204.37C212.852 204.135 212.852 203.666 212.38 203.197C211.908 202.962 210.964 202.962 210.493 203.197Z" fill="#16110D"/>
<path d="M253.193 220.801C252.722 220.566 251.778 220.566 251.306 220.801C250.834 221.036 250.834 221.505 251.306 221.975C251.778 222.209 252.722 222.209 253.193 221.975C253.901 221.505 253.901 221.036 253.193 220.801Z" fill="#16110D"/>
<path d="M246.116 217.984C245.644 218.219 245.644 218.689 246.116 219.158C246.587 219.393 247.531 219.393 248.003 219.158C248.475 218.923 248.475 218.454 248.003 217.984C247.531 217.515 246.823 217.515 246.116 217.984Z" fill="#16110D"/>
<path d="M241.161 214.933C240.69 215.168 240.69 215.637 241.161 216.107C241.633 216.341 242.577 216.341 243.049 216.107C243.521 215.872 243.521 215.402 243.049 214.933C242.577 214.698 241.633 214.698 241.161 214.933Z" fill="#16110D"/>
<path d="M235.971 212.116C235.499 212.351 235.499 212.82 235.971 213.29C236.443 213.525 237.387 213.525 237.858 213.29C238.33 213.055 238.33 212.586 237.858 212.116C237.387 211.647 236.443 211.647 235.971 212.116Z" fill="#16110D"/>
<path d="M231.017 209.065C230.545 209.299 230.545 209.769 231.017 210.238C231.489 210.473 232.432 210.473 232.904 210.238C233.376 210.004 233.376 209.534 232.904 209.065C232.432 208.83 231.489 208.83 231.017 209.065Z" fill="#16110D"/>
<path d="M225.827 206.248C225.355 206.483 225.355 206.952 225.827 207.422C226.298 207.656 227.242 207.656 227.714 207.422C228.186 207.187 228.186 206.718 227.714 206.248C227.242 205.779 226.298 205.779 225.827 206.248Z" fill="#16110D"/>
<path d="M221.581 204.605C222.362 204.605 222.996 204.289 222.996 203.9C222.996 203.512 222.362 203.196 221.581 203.196C220.799 203.196 220.165 203.512 220.165 203.9C220.165 204.289 220.799 204.605 221.581 204.605Z" fill="#16110D"/>
<path d="M215.683 200.38C215.211 200.614 215.211 201.084 215.683 201.553C216.155 201.788 217.098 201.788 217.57 201.553C218.042 201.319 218.042 200.849 217.57 200.38C217.098 200.145 216.155 200.145 215.683 200.38Z" fill="#16110D"/>
<path d="M210.493 197.328C210.021 197.563 210.021 198.033 210.493 198.502C210.964 198.737 211.908 198.737 212.38 198.502C212.852 198.267 212.852 197.798 212.38 197.328C211.908 197.094 210.964 197.094 210.493 197.328Z" fill="#16110D"/>
<path d="M258.384 217.984C257.912 217.749 256.968 217.749 256.496 217.984C256.025 218.219 256.025 218.688 256.496 219.158C256.968 219.393 257.912 219.393 258.384 219.158C258.856 218.688 258.856 218.219 258.384 217.984C257.912 217.515 258.856 218.219 258.384 217.984Z" fill="#16110D"/>
<path d="M253.193 214.933C252.722 214.698 251.778 214.698 251.306 214.933C250.834 215.168 250.834 215.637 251.306 216.107C251.778 216.341 252.722 216.341 253.193 216.107C253.901 215.872 253.901 215.168 253.193 214.933C252.722 214.698 253.901 215.168 253.193 214.933Z" fill="#16110D"/>
<path d="M248.239 212.116C247.767 211.881 246.824 211.881 246.352 212.116C245.88 212.351 245.88 212.82 246.352 213.29C246.824 213.524 247.767 213.524 248.239 213.29C248.711 212.82 248.711 212.351 248.239 212.116C247.531 211.647 248.711 212.351 248.239 212.116Z" fill="#16110D"/>
<path d="M241.161 209.065C240.69 209.299 240.69 209.769 241.161 210.238C241.633 210.473 242.577 210.473 243.049 210.238C243.521 210.004 243.521 209.534 243.049 209.065C242.577 208.83 241.633 208.83 241.161 209.065Z" fill="#16110D"/>
<path d="M235.971 206.248C235.499 206.483 235.499 206.952 235.971 207.422C236.443 207.656 237.387 207.656 237.858 207.422C238.33 207.187 238.33 206.718 237.858 206.248C237.387 205.779 236.443 205.779 235.971 206.248Z" fill="#16110D"/>
<path d="M231.017 203.197C230.545 203.431 230.545 203.901 231.017 204.37C231.489 204.605 232.432 204.605 232.904 204.37C233.376 204.135 233.376 203.666 232.904 203.197C232.432 202.962 231.489 202.962 231.017 203.197Z" fill="#16110D"/>
<path d="M225.827 200.38C225.355 200.614 225.355 201.084 225.827 201.553C226.298 201.788 227.242 201.788 227.714 201.553C228.186 201.319 228.186 200.849 227.714 200.38C227.242 200.145 226.298 200.145 225.827 200.38Z" fill="#16110D"/>
<path d="M217.57 188.643C217.098 188.409 216.155 188.409 215.683 188.643C215.211 188.878 215.211 189.348 215.683 189.817C216.155 190.052 217.098 190.052 217.57 189.817C218.042 189.582 218.042 188.878 217.57 188.643C217.098 188.409 218.042 188.878 217.57 188.643Z" fill="#16110D"/>
<path d="M217.806 139.351C219.457 125.267 229.13 119.399 240.69 126.206C244.464 128.553 248.003 131.839 251.306 136.064C256.26 126.206 266.404 123.389 277.728 129.962C294.007 139.585 306.746 164.936 306.51 186.765C306.51 188.643 306.274 190.521 306.038 192.164C314.767 200.38 321.373 214.933 321.137 227.843C320.901 242.865 311.7 249.672 300.612 243.1L224.176 199.206C212.38 192.164 202.943 173.621 203.179 157.894C203.415 145.219 209.549 138.177 217.806 139.351Z" fill="white"/>
<path d="M308.869 247.09C306.038 247.09 302.971 246.151 299.904 244.273L223.468 200.145C211.436 192.868 201.763 174.09 201.999 157.894C201.999 150.383 204.358 144.28 208.133 140.994C210.492 138.881 213.559 137.942 216.862 138.177C218.042 130.9 221.108 125.736 225.827 123.389C230.309 121.277 235.735 121.746 241.397 125.032C244.936 127.145 248.003 129.961 251.07 133.717C253.665 129.492 256.968 126.91 260.978 125.736C266.168 124.328 272.066 125.267 277.964 129.023C294.478 138.881 307.689 164.701 307.454 187C307.454 188.643 307.218 190.286 307.218 191.929C316.182 200.614 322.552 215.402 322.316 228.077C322.316 236.527 319.249 242.865 314.295 245.682C312.88 246.621 310.992 247.09 308.869 247.09ZM216.154 140.289C213.795 140.289 211.436 140.994 209.785 142.637C206.246 145.688 204.358 151.087 204.358 157.894C204.123 173.151 213.323 191.46 224.647 198.032L301.084 242.161C305.566 244.743 309.813 245.212 313.351 243.334C317.598 240.987 319.957 235.354 319.957 227.842C320.193 215.637 314.059 201.318 305.094 193.103L304.623 192.633V191.929C304.859 190.286 304.859 188.408 305.094 186.531C305.33 165.17 292.591 140.055 276.785 130.666C271.358 127.379 266.168 126.441 261.45 127.614C257.439 128.788 254.137 131.605 252.013 136.064L251.542 138.177L250.362 136.769C247.295 132.778 243.756 129.492 240.218 127.379C235.263 124.563 230.781 123.859 227.006 125.736C222.76 127.849 219.929 132.778 219.221 139.585L218.985 140.759L217.806 140.524C217.098 140.289 216.626 140.289 216.154 140.289Z" fill="#15100C"/>
<path d="M238.21 166.104L258.491 154.333L278.782 189.453L266.43 182.377L264.933 181.519V183.245V205.699L252.548 198.629L252.778 175.039L252.784 174.453L252.276 174.161L238.21 166.104Z" fill="#700327" stroke="#13050F" stroke-width="2"/>
</g>
<path d="M402.849 361.232L141.795 210.431C141.036 209.976 140.58 209.064 140.58 208.153V9.81918C140.58 9.21172 140.884 8.60427 141.339 8.4524C141.795 8.14868 142.251 8.14868 142.706 8.4524L403.76 159.101C404.519 159.557 404.975 160.468 404.975 161.379V359.865C404.975 360.472 404.671 361.08 404.215 361.232C404.064 361.384 403.76 361.384 403.608 361.384C403.304 361.384 403.001 361.384 402.849 361.232ZM142.402 208.305C142.402 208.609 142.554 208.912 142.706 208.912L403.152 359.258V161.379C403.152 161.075 403.001 160.772 402.849 160.772L142.402 10.4266V208.305Z" fill="#13050F"/>
<path d="M139.363 208.76V197.371L406.34 351.512V362.902C406.34 364.724 405.125 365.332 403.606 364.421L142.097 213.468C140.578 212.709 139.363 210.583 139.363 208.76Z" fill="#13050F"/>
<path d="M403 365.18L141.642 214.379C139.82 213.316 138.453 210.887 138.453 208.76V195.7L406.796 350.601L407.252 350.905V362.902C407.252 364.117 406.796 365.028 406.037 365.484C405.733 365.636 405.278 365.788 404.822 365.788C404.215 365.788 403.607 365.636 403 365.18ZM140.275 198.889V208.76C140.275 210.127 141.339 211.95 142.553 212.709L403.911 363.661C404.366 363.965 404.67 363.965 404.974 363.813C405.126 363.661 405.278 363.358 405.278 362.902V351.968L140.275 198.889Z" fill="#13050F"/>
<path d="M256.258 271.324L255.574 272.507L289.365 292.034L290.049 290.85L256.258 271.324Z" fill="#700327"/>
<path d="M414.864 153.544L405.88 158.938L406.818 160.5L415.802 155.107L414.864 153.544Z" fill="#13050F"/>
<path d="M165.162 8.63938L156.178 14.0327L157.116 15.5952L166.1 10.2019L165.162 8.63938Z" fill="#13050F"/>
<path d="M414.881 343.352L405.896 348.746L406.834 350.308L415.819 344.915L414.881 343.352Z" fill="#13050F"/>
<path d="M343.47 331.619L344.229 330.404L338.61 327.063L337.851 328.278L343.47 331.619Z" fill="#700327"/>
<path d="M310.82 337.389C311.731 337.389 312.794 337.086 313.553 336.63L323.728 330.404L322.817 328.885L312.642 335.112C311.579 335.719 310.212 335.871 309.149 335.112L208.615 277.707L207.704 279.378L308.238 336.782C308.997 337.086 309.908 337.389 310.82 337.389Z" fill="#13050F"/>
<path d="M204.666 277.555L205.577 275.884L198.136 271.784C197.832 271.632 197.832 271.329 197.832 271.177C197.832 271.025 197.832 270.721 198.136 270.569L208.463 264.495L207.551 262.824L197.225 268.899C196.465 269.354 196.01 270.114 196.01 271.025C196.01 271.936 196.465 272.695 197.225 273.151L204.666 277.555Z" fill="#13050F"/>
<path d="M415.42 336.355L406.436 341.748L407.374 343.311L416.358 337.917L415.42 336.355Z" fill="#13050F"/>
<path d="M170.968 11.9684L161.984 17.3628L162.923 18.9251L171.906 13.5307L170.968 11.9684Z" fill="#13050F"/>
<path d="M415.469 163.04L406.484 168.433L407.422 169.996L416.407 164.602L415.469 163.04Z" fill="#13050F"/>
<path d="M197.073 158.797V182.792C197.073 182.944 196.921 182.944 196.769 182.792L192.365 175.351C192.213 175.199 192.213 175.199 192.061 175.199L188.568 180.818H188.416L185.835 177.932C185.683 177.78 185.683 177.78 185.835 177.629L189.176 172.01C189.176 171.858 189.176 171.706 189.024 171.706L182.19 167.757C182.038 167.606 182.038 167.454 182.038 167.454L196.617 158.797C196.921 158.494 197.073 158.646 197.073 158.797Z" fill="#13050F"/>
<path d="M196.466 183.096L192.365 176.262L189.328 181.273L189.176 181.577H188.872C188.721 181.577 188.417 181.425 188.265 181.273L185.683 178.388C185.38 178.084 185.38 177.78 185.531 177.477L188.721 172.01L182.039 168.213C181.735 168.061 181.583 167.757 181.583 167.454V166.998L196.466 158.19L196.769 158.038L197.073 158.19C197.377 158.342 197.529 158.646 197.529 158.949V182.944V183.399L197.073 183.551H196.921C196.769 183.399 196.618 183.247 196.466 183.096ZM182.95 167.454L189.328 171.098C189.48 171.25 189.632 171.402 189.784 171.706C189.784 171.858 189.784 172.161 189.784 172.313L186.595 177.78L188.721 180.21L191.91 175.199L192.213 174.895H192.517C192.821 174.895 192.973 175.047 193.125 175.351L196.769 181.577V159.405L182.95 167.454Z" fill="#13050F"/>
<path d="M148.323 22.4238H146.501V47.7851H148.323V22.4238Z" fill="#13050F"/>
<path d="M148.323 52.1895H146.501V59.4789H148.323V52.1895Z" fill="#13050F"/>
<defs>
<clipPath id="clip0">
<rect width="134" height="146" fill="white" transform="translate(202 114)"/>
</clipPath>
</defs>
</svg>
