<svg width="20" height="16" viewBox="0 0 20 16" fill="none" xmlns="http://www.w3.org/2000/svg">
<path d="M17.5 -1.56198e-05H13.719C12.542 -1.56198e-05 11.556 0.798437 11.29 1.87352H2.5C1.119 1.87352 0 2.97367 0 4.3303V13.5432C0 14.9003 1.119 16 2.5 16H17.5C18.881 16 20 14.9003 20 13.5432V2.45676C20 1.10062 18.881 -1.56198e-05 17.5 -1.56198e-05ZM12.0225 12.5015C12.04 12.5988 12.012 12.6986 11.9485 12.7752C11.883 12.8509 11.7875 12.8941 11.687 12.8941H8.315C8.215 12.8941 8.118 12.8509 8.0545 12.7762C7.989 12.701 7.961 12.6023 7.9775 12.5045L8.5715 8.97262C8.176 8.59379 7.9525 8.08179 7.9525 7.53934C7.9525 6.42888 8.872 5.52577 10.002 5.52577C11.133 5.52577 12.052 6.42838 12.052 7.53934C12.052 8.09604 11.8185 8.61786 11.4055 8.99916L12.0225 12.5015Z" fill="#A4A4A4"/>
<path d="M12.0225 12.5015C12.04 12.5988 12.012 12.6986 11.9485 12.7752C11.883 12.8509 11.7875 12.8941 11.687 12.8941H8.315C8.215 12.8941 8.118 12.8509 8.0545 12.7762C7.989 12.701 7.961 12.6023 7.9775 12.5045L8.5715 8.97262C8.176 8.59379 7.9525 8.08179 7.9525 7.53934C7.9525 6.42888 8.872 5.52577 10.002 5.52577C11.133 5.52577 12.052 6.42838 12.052 7.53934C12.052 8.09604 11.8185 8.61786 11.4055 8.99916L12.0225 12.5015Z" fill="#A4A4A4"/>
</svg>
