<svg width="24" height="24" viewBox="0 0 24 24" fill="none" xmlns="http://www.w3.org/2000/svg">
<path d="M10.0004 6.35V4.26C9.20035 4.47 8.45035 4.8 7.77035 5.22L9.23035 6.68C9.48035 6.56 9.73035 6.44 10.0004 6.35ZM2.86035 5.41L5.22035 7.77C4.45035 8.99 4.00035 10.44 4.00035 12C4.00035 14.21 4.91035 16.2 6.36035 17.64L4.00035 20H10.0004V14L7.76035 16.24C6.68035 15.15 6.00035 13.66 6.00035 12C6.00035 11 6.25035 10.06 6.68035 9.23L14.7604 17.31C14.5104 17.44 14.2604 17.56 13.9904 17.65V19.74C14.7904 19.53 15.5404 19.2 16.2204 18.78L18.5804 21.14L19.8504 19.87L4.14035 4.14L2.86035 5.41ZM20.0004 4H14.0004V10L16.2404 7.76C17.3204 8.85 18.0004 10.34 18.0004 12C18.0004 13 17.7504 13.94 17.3204 14.77L18.7804 16.23C19.5504 15.01 20.0004 13.56 20.0004 12C20.0004 9.79 19.0904 7.8 17.6404 6.36L20.0004 4Z" fill="white"/>
</svg>
