<svg width="1461" height="164" viewBox="0 0 1461 164" fill="none" xmlns="http://www.w3.org/2000/svg">
<path fill-rule="evenodd" clip-rule="evenodd" d="M37.4371 120.469H128.273L147.814 164H166L91.5128 1H74.4872L0 164H17.8963L37.4371 120.469ZM82.9033 18.8961L121.985 106.442H43.8217L82.9033 18.8961Z" fill="black"/>
<path fill-rule="evenodd" clip-rule="evenodd" d="M326.982 110.6L364.166 163H383L343.208 107.12C366.871 99.3855 380.392 81.5 380.392 55.8802C380.392 20.9792 355.281 0 313.944 0H253V162.903H270.192V111.277H313.944C318.579 111.277 322.829 111.084 326.982 110.6ZM313.461 14.9852C346.009 14.9852 363.201 29.8737 363.201 55.9769C363.201 81.5 346.009 96.6785 313.461 96.6785H270.192V14.9852H313.461Z" fill="black"/>
<path fill-rule="evenodd" clip-rule="evenodd" d="M548.208 0H477V163H548.208C600.961 163 637 130.381 637 81.5C637 32.6194 600.961 0 548.208 0ZM606.565 81.5C606.565 115.281 582.99 137.447 546.758 137.447V137.35H507.242V25.5534H546.758C583.087 25.5534 606.565 47.7191 606.565 81.5Z" fill="black"/>
<path fill-rule="evenodd" clip-rule="evenodd" d="M807.219 116.309L840.448 164H873L835.521 110.408C857.641 101.799 870.199 83.6125 870.199 58.9448C870.199 22.8623 843.732 1 800.94 1H734V164H764.234V116.503H800.94C803.065 116.503 805.094 116.503 807.219 116.309ZM764.138 26.635H799.491C826.055 26.635 839.771 38.4368 839.675 59.0415C839.675 79.5496 825.958 91.6415 799.491 91.6415H764.138V26.635Z" fill="black"/>
<path d="M967 1H997V164H967V1Z" fill="black"/>
<path d="M1254 1L1183.03 164H1153.26L1082 1H1114.78L1169.02 126.757L1223.74 1H1254Z" fill="black"/>
<path d="M1461 137.655V163H1339V0H1457.72V25.3448H1369.21V67.7151H1447.78V92.673H1369.21V137.655H1461Z" fill="black"/>
</svg>
