<svg width="40" height="40" viewBox="0 0 40 40" fill="none" xmlns="http://www.w3.org/2000/svg">
<circle cx="20" cy="20" r="20" fill="#E6E6E6"/>
<g clip-path="url(#clip0)">
<path d="M24.4728 28.4448L24.1719 29.675C23.269 30.0314 22.5478 30.3026 22.0108 30.4891C21.4732 30.6761 20.8485 30.7692 20.1368 30.7692C19.0438 30.7692 18.1937 30.5014 17.5874 29.9696C16.9811 29.4357 16.6778 28.7591 16.6778 27.9383C16.6778 27.6206 16.6998 27.2937 16.7455 26.9608C16.7917 26.6274 16.865 26.2519 16.9654 25.8323L18.0937 21.8387C18.1941 21.4563 18.2794 21.094 18.3478 20.7513C18.4171 20.4108 18.4504 20.0975 18.4504 19.8155C18.4504 19.3055 18.3449 18.9488 18.1346 18.7482C17.9244 18.5482 17.5233 18.4467 16.9278 18.4467C16.6361 18.4467 16.3363 18.4934 16.0307 18.5837C15.7238 18.6745 15.4615 18.7621 15.2412 18.8436L15.5429 17.6124C16.2821 17.3114 16.9886 17.0537 17.6644 16.8398C18.3402 16.6254 18.9788 16.518 19.5828 16.518C20.6682 16.518 21.5058 16.7804 22.094 17.3051C22.6822 17.8301 22.9762 18.5108 22.9762 19.3495C22.9762 19.523 22.9569 19.8288 22.9154 20.2659C22.8748 20.7039 22.7994 21.1052 22.6893 21.4702L21.5659 25.4477C21.4738 25.7672 21.391 26.1324 21.319 26.5434C21.2447 26.9517 21.2091 27.2636 21.2091 27.4729C21.2091 28.001 21.3269 28.3616 21.563 28.5533C21.8008 28.745 22.2104 28.8404 22.7922 28.8404C23.0654 28.8404 23.3762 28.7919 23.7215 28.6967C24.0659 28.6016 24.317 28.518 24.4728 28.4448ZM24.7577 11.746C24.7577 12.439 24.4966 13.0308 23.9717 13.5175C23.4482 14.0059 22.8173 14.2502 22.0793 14.2502C21.339 14.2502 20.7067 14.0059 20.1772 13.5175C19.6486 13.0306 19.3838 12.439 19.3838 11.746C19.3838 11.0543 19.6486 10.4615 20.1772 9.96869C20.7057 9.47664 21.3392 9.23071 22.0793 9.23071C22.8171 9.23071 23.4482 9.47722 23.9717 9.96869C24.4969 10.4615 24.7577 11.0545 24.7577 11.746Z" fill="#B8B8B8"/>
</g>
<defs>
<clipPath id="clip0">
<rect width="21.5385" height="21.5385" fill="white" transform="translate(9.23047 9.23071)"/>
</clipPath>
</defs>
</svg>
