<svg width="532" height="391" viewBox="0 0 532 391" fill="none" xmlns="http://www.w3.org/2000/svg">
<path d="M328.484 377.898L328.207 375.947C329.873 375.668 331.817 375.111 333.205 374.274L334.038 375.947C332.372 377.062 330.428 377.62 328.484 377.898ZM322.375 377.898C320.431 377.62 318.487 377.062 316.821 376.226L317.654 374.553C319.32 375.39 320.986 375.947 322.652 376.226L322.375 377.898ZM339.037 373.438L338.204 371.766L343.202 368.978L344.036 370.651L339.037 373.438ZM311.822 373.16L306.823 370.372L307.656 368.699L312.655 371.487L311.822 373.16ZM349.034 367.584L348.201 365.912L353.2 363.124L354.033 364.797L349.034 367.584ZM302.102 367.584L297.104 364.797L297.937 363.124L302.935 365.912L302.102 367.584ZM358.754 362.009L357.921 360.337L362.919 357.549L363.753 359.222L358.754 362.009ZM292.105 362.009L287.106 359.222L287.94 357.549L292.938 360.337L292.105 362.009ZM368.751 356.434L367.918 354.762L372.917 351.974L373.75 353.647L368.751 356.434ZM282.385 356.155L277.387 353.368L278.22 351.695L283.219 354.483L282.385 356.155ZM378.471 350.859L377.638 349.187L382.636 346.399L383.47 348.072L378.471 350.859ZM272.388 350.58L267.389 347.793L268.223 346.12L273.221 348.908L272.388 350.58ZM388.468 345.284L387.635 343.612L392.634 340.824L393.467 342.497L388.468 345.284ZM262.668 344.727L257.67 341.939L258.503 340.266L263.502 343.054L262.668 344.727ZM398.188 339.43L397.355 337.758L402.353 334.97L403.186 336.643L398.188 339.43ZM252.949 339.151L247.95 336.364L248.783 334.691L253.782 337.479L252.949 339.151ZM408.185 333.855L407.352 332.183L412.351 329.395L413.184 331.068L408.185 333.855ZM417.905 328.28L417.072 326.608L422.07 323.82L422.903 325.492L417.905 328.28ZM427.069 321.032L425.125 320.475C425.403 319.917 425.403 319.639 425.403 319.081C425.403 317.966 425.125 316.851 424.292 316.015L425.68 314.9C426.791 316.015 427.347 317.687 427.347 319.081C427.624 319.639 427.347 320.475 427.069 321.032ZM420.126 313.227L415.128 310.44L415.961 308.767L420.959 311.555L420.126 313.227ZM410.129 307.373L405.13 304.586L405.964 302.913L410.962 305.701L410.129 307.373ZM400.409 301.52L399.299 300.962L400.132 299.29L401.243 299.847L400.409 301.52Z" fill="white"/>
<path d="M366.807 237.685L361.808 234.897L362.641 233.225L367.64 236.012L366.807 237.685ZM356.809 232.11L351.811 229.322L352.644 227.65L357.642 230.437L356.809 232.11ZM347.09 226.256L342.091 223.468L342.924 221.796L347.923 224.583L347.09 226.256ZM337.37 220.681L332.371 217.893L333.204 216.221L338.203 219.008L337.37 220.681ZM327.373 214.827L322.374 212.039L323.207 210.367L328.206 213.154L327.373 214.827ZM317.653 209.252L312.654 206.464L313.487 204.792L318.486 207.579L317.653 209.252ZM307.933 203.398L302.935 200.61L303.768 198.938L308.766 201.725L307.933 203.398ZM297.936 196.987C297.103 195.872 296.825 194.478 296.825 193.363C296.825 192.527 297.103 191.69 297.381 190.854L299.047 191.69C298.769 192.248 298.769 192.805 298.769 193.642C298.769 194.478 299.047 195.593 299.602 196.15L297.936 196.987ZM302.935 188.345L302.102 186.673L307.1 183.885L307.933 185.558L302.935 188.345ZM312.932 182.77L312.099 181.098L317.098 178.31L317.931 179.983L312.932 182.77Z" fill="white"/>
<path d="M114.93 297.617L109.931 294.829L110.764 293.157L115.763 295.944L114.93 297.617ZM105.21 291.763L100.211 288.976L101.044 287.303L106.043 290.091L105.21 291.763ZM95.2126 285.909L90.2139 283.122L91.047 281.449L96.0457 284.237L95.2126 285.909ZM85.493 280.334L80.4943 277.547L81.3274 275.874L86.3261 278.662L85.493 280.334ZM75.7733 274.48L74.1071 273.644C72.7186 272.808 71.8855 271.693 71.3301 270.299L72.9963 269.742C73.274 270.857 74.1071 271.693 74.9402 272.25L76.6064 273.087L75.7733 274.48ZM73.8294 265.003L72.4409 263.888C72.9963 263.33 73.5517 262.773 74.3848 262.215L77.4396 260.264L78.2727 261.936L75.2179 263.888C74.6625 264.166 74.1071 264.445 73.8294 265.003ZM82.9936 259.149L82.1605 257.476L87.1592 254.689L87.9923 256.361L82.9936 259.149ZM92.7133 253.295L91.8801 251.623L96.8788 248.835L97.7119 250.508L92.7133 253.295Z" fill="white"/>
<path d="M139.923 227.092C136.869 223.468 133.536 224.026 125.483 222.353C118.262 220.681 111.042 220.959 103.822 222.632C96.8793 224.304 92.436 225.698 89.659 228.765L86.0488 230.716V238.521V238.8C86.3265 244.096 90.4921 248.835 98.8232 252.459C107.154 256.083 116.596 256.361 125.483 254.41C137.979 251.344 144.367 244.932 144.367 238.8V238.521V230.995L139.923 227.092Z" fill="#13050F"/>
<path d="M115.207 256.919C109.375 256.919 103.821 255.804 98.545 253.574C89.9362 249.95 84.9375 244.654 84.9375 238.8V230.158L89.1031 227.928C92.4355 224.304 97.1565 223.189 103.821 221.517C111.042 219.566 118.54 219.566 126.038 221.238C128.259 221.796 130.203 222.074 131.869 222.353C136.035 222.911 138.812 223.468 141.034 226.534L146.032 230.437V238.8C145.755 246.326 138.257 252.737 126.038 255.525C122.427 256.361 118.817 256.919 115.207 256.919ZM87.1591 231.552V238.521C87.4368 243.539 91.6024 247.999 99.3781 251.065C107.431 254.41 116.596 254.967 125.205 253.016C136.035 250.229 142.978 244.654 143.255 238.521V238.242V231.552L138.812 227.928C136.868 225.698 135.202 225.419 131.036 224.583C129.37 224.304 127.426 224.026 124.927 223.468C117.984 221.796 110.764 222.074 103.821 223.747C96.6011 225.698 92.9909 226.813 90.2139 229.601L89.9362 229.88L87.1591 231.552Z" fill="#13050F"/>
<path d="M115.485 247.998C131.743 247.998 144.922 240.385 144.922 230.994C144.922 221.603 131.743 213.99 115.485 213.99C99.228 213.99 86.0488 221.603 86.0488 230.994C86.0488 240.385 99.228 247.998 115.485 247.998Z" fill="white"/>
<path d="M115.485 249.114C107.709 249.114 99.9335 247.441 94.1017 244.096C88.2699 240.751 84.9375 236.012 84.9375 230.995C84.9375 225.977 88.2699 221.238 94.1017 217.893C105.765 211.203 124.927 211.203 136.868 217.893C142.7 221.238 146.032 225.977 146.032 230.995C146.032 236.012 142.7 240.751 136.868 244.096C130.759 247.441 122.983 249.114 115.485 249.114ZM115.485 215.106C108.265 215.106 100.767 216.778 95.4902 219.844C90.2139 222.911 87.4368 226.813 87.4368 230.716C87.4368 234.897 90.2139 238.8 95.4902 241.587C106.598 247.999 124.649 247.999 135.757 241.587C141.034 238.521 143.811 234.618 143.811 230.716C143.811 226.534 141.034 222.632 135.757 219.844C129.925 216.778 122.705 215.106 115.485 215.106Z" fill="#13050F"/>
<path d="M129.925 223.469C121.872 219.287 108.82 219.287 101.044 223.469C92.9906 227.65 92.9906 234.061 101.044 238.243C109.097 242.424 122.149 242.424 129.925 238.243C137.979 234.061 137.979 227.65 129.925 223.469Z" fill="#13050F"/>
<path d="M115.485 242.424C109.931 242.424 104.655 241.309 100.489 239.357C96.0459 237.127 93.8242 234.061 93.8242 230.995C93.8242 227.65 96.3236 224.862 100.489 222.632C108.82 218.451 122.15 218.451 130.481 222.632C134.647 224.862 137.146 227.928 137.146 230.995C137.146 234.34 134.647 237.127 130.481 239.357C126.316 241.309 120.761 242.424 115.485 242.424ZM115.485 221.796C110.486 221.796 105.488 222.632 101.6 224.583C98.2675 226.256 96.3236 228.486 96.3236 230.716C96.3236 232.946 98.2675 235.176 101.6 236.849C109.376 240.751 121.872 240.751 129.37 236.849C132.703 235.176 134.647 232.946 134.647 230.716C134.647 228.486 132.703 226.256 129.37 224.583C125.482 222.632 120.484 221.796 115.485 221.796Z" fill="#13050F"/>
<path d="M129.925 227.928C121.872 223.747 108.82 223.747 101.044 227.928C98.2673 229.322 96.3233 231.274 95.4902 232.946C96.3233 234.897 97.9896 236.57 101.044 237.964C109.098 242.145 122.15 242.145 129.925 237.964C132.703 236.57 134.646 234.619 135.48 232.946C134.646 231.274 132.703 229.322 129.925 227.928Z" fill="#700327"/>
<path d="M115.485 242.423C109.931 242.423 104.654 241.308 100.489 239.357C97.434 237.685 95.2124 235.733 94.3793 233.503L94.1016 232.946L94.3793 232.388C95.2124 230.158 97.434 228.207 100.489 226.534C108.82 222.353 122.15 222.353 130.481 226.534C133.535 228.207 135.757 230.158 136.59 232.388L136.868 232.946L136.59 233.503C135.757 235.733 133.535 237.685 130.481 239.357C126.315 241.308 120.761 242.423 115.485 242.423ZM96.6009 232.946C97.434 234.34 99.1002 235.733 101.322 236.848C109.098 240.751 121.594 240.751 129.092 236.848C131.314 235.733 132.98 234.34 133.813 232.946C132.98 231.552 131.314 230.158 129.092 229.043C121.317 225.141 108.82 225.141 101.322 229.043C99.1002 230.158 97.434 231.552 96.6009 232.946Z" fill="#13050F"/>
<path d="M136.868 243.539H134.924V249.95H136.868V243.539Z" fill="#700327"/>
<path d="M141.034 239.915H139.09V246.326H141.034V239.915Z" fill="#700327"/>
<path d="M91.0465 240.472H89.1025V246.884H91.0465V240.472Z" fill="#700327"/>
<path d="M103.544 222.632H101.6V229.043H103.544V222.632Z" fill="#700327"/>
<path d="M107.987 221.238H106.043V227.65H107.987V221.238Z" fill="#700327"/>
<path d="M158.251 35.8664C155.197 32.2426 152.142 32.8001 143.811 31.1276C136.591 29.4551 129.37 29.7338 122.15 31.4064C115.207 33.0789 110.764 34.4727 107.987 37.539L104.377 39.4902V47.2954V47.5741C104.655 52.8704 108.82 57.6093 117.151 61.2331C125.482 64.8569 134.924 65.1356 143.811 63.1844C156.308 60.1181 162.695 53.7067 162.695 47.5741V47.2954V39.769L158.251 35.8664Z" fill="#13050F"/>
<path d="M133.258 65.4144C127.426 65.4144 121.872 64.2993 116.596 62.0693C107.987 58.4455 102.988 53.1492 102.988 47.2953V38.6539L107.154 36.4239C110.486 32.8001 115.207 31.6851 121.872 30.0125C129.092 28.0612 136.59 28.0612 144.088 29.7338C146.31 30.2913 148.254 30.57 149.92 30.8488C154.086 31.4063 156.863 31.9638 159.084 35.0301L164.083 38.9327V47.2953C163.805 54.8217 156.307 61.233 144.088 64.0206C140.756 65.1356 136.868 65.4144 133.258 65.4144ZM105.488 40.3265V47.2953C105.765 52.3129 109.931 56.773 117.707 59.8393C125.76 63.1843 134.924 63.7418 143.533 61.7906C154.363 59.003 161.306 53.4279 161.584 47.2953V47.0166V40.3265L157.14 36.7026C155.197 34.4726 153.53 34.1939 149.365 33.3576C147.699 33.0788 145.755 32.8001 143.255 32.2426C136.313 30.57 129.092 30.8488 122.15 32.5213C114.93 34.4726 111.319 35.5876 108.542 38.3752L108.265 38.6539L105.488 40.3265Z" fill="#13050F"/>
<path d="M154.364 27.5034C165.749 34.1935 165.749 44.7862 154.364 51.4763C142.978 58.1664 124.372 58.1664 112.986 51.4763C101.6 44.7862 101.6 34.1935 112.986 27.5034C124.372 20.8133 142.978 20.8133 154.364 27.5034Z" fill="white"/>
<path d="M133.536 57.6092C125.76 57.6092 117.984 55.9366 112.152 52.5916C106.321 49.2465 102.988 44.5077 102.988 39.4901C102.988 34.4725 106.321 29.7337 112.152 26.3887C123.816 19.6986 142.978 19.6986 154.919 26.3887C160.751 29.7337 164.083 34.4725 164.083 39.4901C164.083 44.5077 160.751 49.2465 154.919 52.5916C149.087 55.9366 141.311 57.6092 133.536 57.6092ZM133.536 23.6011C126.315 23.6011 119.095 25.2736 113.541 28.3399C108.265 31.4062 105.488 35.3088 105.488 39.2114C105.488 43.3927 108.265 47.2953 113.541 50.0828C124.649 56.4942 142.7 56.4942 153.808 50.0828C159.084 47.0165 161.861 43.1139 161.861 39.2114C161.861 35.0301 159.084 31.1275 153.808 28.3399C148.254 25.2736 140.756 23.6011 133.536 23.6011Z" fill="#13050F"/>
<path d="M147.976 32.2429C139.923 28.0616 126.87 28.0616 119.095 32.2429C111.041 36.4242 111.041 42.8356 119.095 47.0169C127.148 51.1982 140.2 51.1982 147.976 47.0169C156.029 42.8356 156.029 36.1455 147.976 32.2429Z" fill="#13050F"/>
<path d="M133.536 51.1981C127.982 51.1981 122.705 50.083 118.54 48.1318C114.374 45.9017 111.875 42.8354 111.875 39.7691C111.875 36.4241 114.374 33.6365 118.54 31.4065C126.871 27.2252 140.201 27.2252 148.532 31.4065C152.975 33.6365 155.197 36.7028 155.197 39.7691C155.197 43.1142 152.697 45.9017 148.532 48.1318C144.366 50.083 139.09 51.1981 133.536 51.1981ZM133.536 30.2915C128.537 30.2915 123.539 31.1277 119.651 33.079C116.318 34.7515 114.374 36.9816 114.374 39.2116C114.374 41.4417 116.318 43.6717 119.651 45.3442C127.426 49.2468 139.923 49.2468 147.421 45.3442C150.754 43.6717 152.697 41.4417 152.697 39.2116C152.697 36.9816 150.754 34.7515 147.421 33.079C143.811 31.4065 138.535 30.2915 133.536 30.2915Z" fill="#13050F"/>
<path d="M147.976 36.4236C139.923 32.2423 126.871 32.2423 119.095 36.4236C116.318 37.8174 114.374 39.7686 113.541 41.4412C114.374 43.3925 116.04 45.065 119.095 46.4587C127.148 50.6401 140.201 50.6401 147.976 46.4587C150.753 45.065 152.697 43.1137 153.53 41.4412C152.697 39.7686 151.031 38.0961 147.976 36.4236Z" fill="#700327"/>
<path d="M133.536 51.1978C127.981 51.1978 122.705 50.0828 118.54 48.1316C115.485 46.459 113.263 44.5077 112.43 42.2777L112.152 41.7202L112.43 41.1627C113.263 38.9327 115.485 36.9814 118.54 35.3088C126.871 31.1275 140.2 31.1275 148.532 35.3088C151.586 36.9814 153.808 38.9327 154.641 41.1627L154.919 41.7202L154.641 42.2777C153.808 44.5077 151.586 46.459 148.532 48.1316C144.366 50.0828 139.09 51.1978 133.536 51.1978ZM114.929 41.7202C115.762 43.114 117.429 44.5077 119.65 45.6228C127.426 49.5253 139.923 49.5253 147.421 45.6228C149.642 44.5077 151.309 43.114 152.142 41.7202C151.309 40.3264 149.642 38.9327 147.421 37.8176C139.645 33.9151 127.148 33.9151 119.65 37.8176C117.429 38.9327 115.762 40.3264 114.929 41.7202Z" fill="#13050F"/>
<path d="M155.196 52.313H153.252V58.7243H155.196V52.313Z" fill="#700327"/>
<path d="M159.362 48.4102H157.418V54.8215H159.362V48.4102Z" fill="#700327"/>
<path d="M109.376 48.9678H107.432V55.3791H109.376V48.9678Z" fill="#700327"/>
<path d="M121.872 31.1274H119.928V37.5388H121.872V31.1274Z" fill="#700327"/>
<path d="M126.316 29.7339H124.372V36.1452H126.316V29.7339Z" fill="#700327"/>
<path d="M393.188 240.194C390.133 236.57 387.078 237.127 378.747 235.455C371.527 233.782 364.307 234.061 357.086 235.733C350.144 237.406 345.701 238.8 342.924 241.866L339.313 243.817V251.622V251.901C339.591 257.198 343.757 261.936 352.088 265.56C360.419 269.184 369.861 269.463 378.747 267.511C391.244 264.445 397.631 258.034 397.631 251.901V251.622V244.096L393.188 240.194Z" fill="#13050F"/>
<path d="M368.194 269.741C362.363 269.741 356.809 268.626 351.532 266.396C342.923 262.773 337.925 257.476 337.925 251.622V242.981L342.09 240.751C345.423 237.127 350.144 236.012 356.809 234.34C364.029 232.388 371.527 232.388 379.025 234.061C381.247 234.618 383.19 234.897 384.857 235.176C389.022 235.733 391.799 236.291 394.021 239.357L399.02 243.26V251.622C398.742 259.149 391.244 265.56 379.025 268.348C375.692 269.463 371.805 269.741 368.194 269.741ZM340.424 244.654V251.622C340.702 256.64 344.867 261.1 352.643 264.166C360.696 267.511 369.861 268.069 378.47 266.118C389.3 263.33 396.243 257.755 396.52 251.622V251.344V244.654L392.077 241.03C390.133 238.8 388.467 238.521 384.301 237.685C382.635 237.406 380.691 237.127 378.192 236.57C371.249 234.897 364.029 235.176 357.086 236.848C349.866 238.8 346.256 239.915 343.479 242.702L343.201 242.981L340.424 244.654Z" fill="#13050F"/>
<path d="M389.3 231.831C400.686 238.521 400.686 249.113 389.3 255.803C377.914 262.494 359.308 262.494 347.922 255.803C336.536 249.113 336.536 238.521 347.922 231.831C359.308 225.14 377.914 225.14 389.3 231.831Z" fill="white"/>
<path d="M368.472 261.936C360.696 261.936 352.921 260.264 347.089 256.919C341.257 253.574 337.925 248.835 337.925 243.817C337.925 238.8 341.257 234.061 347.089 230.716C358.753 224.026 377.914 224.026 389.855 230.716C395.687 234.061 399.02 238.8 399.02 243.817C399.02 248.835 395.687 253.574 389.855 256.919C384.024 260.264 376.248 261.936 368.472 261.936ZM368.472 228.207C361.252 228.207 354.032 229.88 348.478 232.946C343.201 236.012 340.424 239.915 340.424 243.817C340.424 247.999 343.201 251.901 348.478 254.689C359.586 261.1 377.636 261.1 388.745 254.689C394.021 251.622 396.798 247.72 396.798 243.817C396.798 239.636 394.021 235.733 388.745 232.946C383.19 229.601 375.97 228.207 368.472 228.207Z" fill="#13050F"/>
<path d="M382.912 236.57C374.859 232.389 361.807 232.389 354.031 236.57C345.978 240.751 345.978 247.163 354.031 251.344C362.085 255.525 375.137 255.525 382.912 251.344C390.966 247.163 390.966 240.473 382.912 236.57Z" fill="#13050F"/>
<path d="M368.472 255.525C362.918 255.525 357.642 254.41 353.476 252.459C349.311 250.229 346.812 247.163 346.812 244.096C346.812 240.751 349.311 237.964 353.476 235.734C361.808 231.552 375.137 231.552 383.468 235.734C387.912 237.964 390.133 241.03 390.133 244.096C390.133 247.441 387.634 250.229 383.468 252.459C379.581 254.41 374.026 255.525 368.472 255.525ZM368.472 234.619C363.474 234.619 358.475 235.455 354.587 237.406C351.255 239.079 349.311 241.309 349.311 243.539C349.311 245.769 351.255 247.999 354.587 249.671C362.363 253.574 374.86 253.574 382.358 249.671C385.69 247.999 387.634 245.769 387.634 243.539C387.634 241.309 385.69 239.079 382.358 237.406C378.747 235.734 373.471 234.619 368.472 234.619Z" fill="#13050F"/>
<path d="M382.913 241.03C374.859 236.849 361.807 236.849 354.032 241.03C351.255 242.424 349.311 244.375 348.478 246.048C349.311 247.999 350.977 249.671 354.032 251.065C362.085 255.247 375.137 255.247 382.913 251.065C385.69 249.671 387.634 247.72 388.467 246.048C387.634 244.096 385.968 242.424 382.913 241.03Z" fill="#700327"/>
<path d="M368.472 255.525C362.918 255.525 357.642 254.41 353.476 252.459C350.421 250.786 348.2 248.835 347.367 246.605L347.089 246.047L347.367 245.49C348.2 243.26 350.421 241.309 353.476 239.636C361.807 235.455 375.137 235.455 383.468 239.636C386.523 241.309 388.744 243.26 389.578 245.49L389.855 246.047L389.578 246.605C388.744 248.835 386.523 250.786 383.468 252.459C379.58 254.41 374.026 255.525 368.472 255.525ZM349.866 246.047C350.699 247.441 352.365 248.835 354.587 249.95C362.363 253.852 374.859 253.852 382.357 249.95C384.579 248.835 386.245 247.441 387.078 246.047C386.245 244.654 384.579 243.26 382.357 242.145C374.582 238.242 362.085 238.242 354.587 242.145C352.365 243.26 350.699 244.654 349.866 246.047Z" fill="#13050F"/>
<path d="M390.132 256.64H388.188V263.051H390.132V256.64Z" fill="#700327"/>
<path d="M394.298 252.737H392.354V259.149H394.298V252.737Z" fill="#700327"/>
<path d="M344.311 253.295H342.367V259.706H344.311V253.295Z" fill="#700327"/>
<path d="M356.808 235.733H354.864V242.145H356.808V235.733Z" fill="#700327"/>
<path d="M361.253 234.34H359.309V240.751H361.253V234.34Z" fill="#700327"/>
<path d="M413.182 276.432C410.127 272.808 406.795 273.366 398.742 271.693C391.521 270.02 384.301 270.299 377.081 271.972C370.138 273.644 365.695 275.038 362.918 278.104L359.308 280.056V287.861V288.14C359.585 293.436 363.751 298.175 372.082 301.799C380.413 305.422 389.855 305.701 398.742 303.75C411.238 300.684 417.625 294.272 417.625 288.14V287.861V280.334L413.182 276.432Z" fill="#13050F"/>
<path d="M388.189 306.259C382.357 306.259 376.803 305.144 371.526 302.914C362.918 299.29 357.919 293.993 357.919 288.14V279.498L362.085 277.268C365.417 273.644 370.138 272.529 376.803 270.857C384.023 268.905 391.521 268.905 399.019 270.578C401.241 271.136 403.185 271.414 404.851 271.693C409.016 272.251 411.793 272.808 414.015 275.874L419.014 279.777V288.14C418.736 295.666 411.238 302.077 399.019 304.865C395.687 305.701 391.799 306.259 388.189 306.259ZM360.418 280.892V287.861C360.696 292.878 364.862 297.338 372.637 300.405C380.691 303.75 389.855 304.307 398.464 302.356C409.294 299.847 416.237 293.993 416.514 287.861V287.582V280.892L412.071 277.268C410.127 275.038 408.461 274.759 404.295 273.923C402.629 273.644 400.685 273.366 398.186 272.808C391.243 271.136 384.023 271.414 377.081 273.087C369.86 275.038 366.25 276.153 363.473 278.941L363.195 279.219L360.418 280.892Z" fill="#13050F"/>
<path d="M409.294 268.069C420.68 274.759 420.68 285.352 409.294 292.042C397.908 298.732 379.302 298.732 367.916 292.042C356.53 285.352 356.53 274.759 367.916 268.069C379.302 261.379 397.908 261.379 409.294 268.069Z" fill="white"/>
<path d="M388.466 298.453C380.691 298.453 372.915 296.781 367.083 293.436C361.251 290.091 357.919 285.352 357.919 280.334C357.919 275.317 361.251 270.578 367.083 267.233C378.747 260.543 397.908 260.543 409.85 267.233C415.681 270.578 419.014 275.317 419.014 280.334C419.014 285.352 415.681 290.091 409.85 293.436C404.018 296.781 396.242 298.453 388.466 298.453ZM388.466 264.445C381.246 264.445 374.026 266.118 368.472 269.184C363.195 272.25 360.418 276.153 360.418 280.056C360.418 284.237 363.195 288.14 368.472 290.927C379.58 297.338 397.631 297.338 408.739 290.927C414.015 287.861 416.792 283.958 416.792 280.056C416.792 275.874 414.015 271.972 408.739 269.184C403.185 266.118 395.964 264.445 388.466 264.445Z" fill="#13050F"/>
<path d="M402.907 272.808C394.853 268.627 381.801 268.627 374.025 272.808C365.972 276.99 365.972 283.401 374.025 287.582C382.079 291.764 395.131 291.764 402.907 287.582C410.96 283.401 410.96 276.99 402.907 272.808Z" fill="#13050F"/>
<path d="M388.467 291.764C382.912 291.764 377.636 290.649 373.471 288.697C369.305 286.467 366.806 283.401 366.806 280.335C366.806 276.99 369.305 274.202 373.471 271.972C381.802 267.791 395.131 267.791 403.463 271.972C407.906 274.202 410.127 277.268 410.127 280.335C410.127 283.68 407.628 286.467 403.463 288.697C399.575 290.649 394.021 291.764 388.467 291.764ZM388.467 271.136C383.468 271.136 378.469 271.972 374.581 273.923C371.249 275.596 369.305 277.826 369.305 280.056C369.305 282.286 371.249 284.516 374.581 286.188C382.357 290.091 394.854 290.091 402.352 286.188C405.684 284.516 407.628 282.286 407.628 280.056C407.628 277.826 405.684 275.596 402.352 273.923C398.742 271.972 393.465 271.136 388.467 271.136Z" fill="#13050F"/>
<path d="M402.907 277.268C394.854 273.087 381.801 273.087 374.026 277.268C371.249 278.662 369.305 280.613 368.472 282.286C369.305 284.237 370.971 285.91 374.026 287.303C382.079 291.485 395.131 291.485 402.907 287.303C405.684 285.91 407.628 283.958 408.461 282.286C407.628 280.613 405.962 278.662 402.907 277.268Z" fill="#700327"/>
<path d="M388.466 291.763C382.912 291.763 377.636 290.648 373.47 288.697C370.415 287.024 368.194 285.073 367.361 282.843L367.083 282.286L367.361 281.728C368.194 279.498 370.415 277.547 373.47 275.874C381.801 271.693 395.131 271.693 403.462 275.874C406.517 277.547 408.739 279.498 409.572 281.728L409.849 282.286L409.572 282.843C408.739 285.073 406.517 287.024 403.462 288.697C399.574 290.648 394.02 291.763 388.466 291.763ZM369.86 282.286C370.693 283.679 372.359 285.073 374.581 286.188C382.357 290.091 394.853 290.091 402.351 286.188C404.573 285.073 406.239 283.679 407.072 282.286C406.239 280.892 404.573 279.498 402.351 278.383C394.576 274.481 382.079 274.481 374.581 278.383C372.359 279.498 370.693 280.892 369.86 282.286Z" fill="#13050F"/>
<path d="M410.127 292.878H408.183V299.29H410.127V292.878Z" fill="#700327"/>
<path d="M414.293 289.254H412.349V295.666H414.293V289.254Z" fill="#700327"/>
<path d="M364.306 289.812H362.362V296.223H364.306V289.812Z" fill="#700327"/>
<path d="M376.802 271.972H374.858V278.383H376.802V271.972Z" fill="#700327"/>
<path d="M381.247 270.578H379.303V276.99H381.247V270.578Z" fill="#700327"/>
<path d="M449.562 294.272C448.451 289.533 445.119 288.975 438.454 283.679C432.622 279.219 425.957 276.153 418.737 274.759C411.517 273.365 407.351 272.808 403.185 274.48L399.02 274.759L395.687 281.728V282.007C393.744 286.745 395.41 293.157 401.797 299.847C407.906 306.537 416.238 310.997 425.124 312.67C437.621 315.178 446.23 312.112 449.007 306.537L449.284 306.258L452.339 299.568L449.562 294.272Z" fill="#13050F"/>
<path d="M433.733 314.9C430.956 314.9 428.179 314.621 425.124 314.063C415.682 312.112 407.073 307.373 400.964 300.683C394.577 293.714 392.355 287.024 394.854 281.449L398.465 273.644L403.186 273.365C407.629 271.414 412.35 272.529 419.015 273.644C426.235 275.038 433.178 278.104 439.287 282.564C441.231 283.958 442.62 285.073 444.008 285.909C447.618 288.418 449.84 289.812 450.673 293.436L453.728 299.289L450.118 307.095C447.618 312.112 441.786 314.9 433.733 314.9ZM399.853 275.874L396.798 282.285C394.854 287.024 396.798 292.878 402.63 299.011C408.462 305.422 416.515 309.882 425.402 311.555C436.51 313.785 445.119 311.555 447.896 305.98L448.174 305.701L450.951 299.568L448.451 294.551C447.618 291.763 446.23 290.648 442.62 288.139C441.231 287.303 439.565 286.188 437.621 284.516C432.067 280.055 425.402 277.268 418.459 275.874C411.239 274.48 407.351 273.923 403.741 275.595H403.186L399.853 275.874Z" fill="#13050F"/>
<path d="M449.562 285.073C457.06 295.945 452.617 305.701 439.565 306.816C426.512 307.931 409.573 300.126 401.797 289.255C394.299 278.383 398.742 268.627 411.794 267.512C425.124 266.397 442.064 274.202 449.562 285.073Z" fill="white"/>
<path d="M436.788 308.21C423.736 308.21 408.185 300.405 400.687 290.091C396.799 284.516 395.688 278.941 397.91 274.202C400.131 269.742 404.852 266.954 411.795 266.118C425.402 265.003 442.62 273.087 450.673 284.237C454.561 289.812 455.672 295.387 453.45 300.126C451.229 304.586 446.508 307.374 439.565 308.21C438.732 308.21 437.899 308.21 436.788 308.21ZM414.85 268.627C414.016 268.627 413.183 268.627 412.073 268.627C406.241 269.184 402.075 271.414 400.131 275.317C398.465 278.941 399.298 283.679 402.908 288.697C410.406 299.29 426.791 306.816 439.565 305.701C445.397 305.144 449.563 302.913 451.506 299.011C453.173 295.387 452.34 290.648 448.729 285.631C441.787 275.874 427.069 268.627 414.85 268.627Z" fill="#13050F"/>
<path d="M442.066 286.467C436.512 279.498 424.848 273.923 415.684 274.202C406.797 274.481 404.02 280.335 409.574 287.582C415.128 294.551 426.792 300.126 435.956 299.847C444.843 299.569 447.62 293.715 442.066 286.467Z" fill="#13050F"/>
<path d="M435.122 301.241C425.958 301.241 414.294 295.666 408.463 288.697C405.408 284.795 404.575 281.171 405.963 278.105C407.352 275.038 410.684 273.366 415.683 273.366C415.961 273.366 416.238 273.366 416.516 273.366C425.68 273.366 437.344 278.941 443.176 285.91C446.23 289.812 447.064 293.436 445.675 296.502C444.287 299.569 440.954 301.241 435.955 301.241C435.678 301.241 435.4 301.241 435.122 301.241ZM416.516 275.596C416.238 275.596 415.961 275.596 415.961 275.596C412.073 275.596 409.574 276.99 408.463 278.941C407.63 280.892 408.463 283.958 410.684 286.746C415.961 293.436 427.347 298.732 435.955 298.454C439.843 298.454 442.343 297.06 443.453 295.109C444.287 293.157 443.453 290.091 441.232 287.303C435.678 280.892 424.847 275.596 416.516 275.596Z" fill="#13050F"/>
<path d="M440.121 290.648C434.567 283.679 422.903 278.104 413.739 278.383C410.406 278.383 408.185 279.219 406.519 280.613C406.519 282.564 407.352 285.073 409.296 287.581C414.85 294.55 426.513 300.125 435.677 299.847C439.01 299.847 441.231 299.01 442.898 297.617C443.175 295.387 442.065 293.157 440.121 290.648Z" fill="#700327"/>
<path d="M435.122 301.241C425.958 301.241 414.295 295.666 408.463 288.697C406.241 285.909 405.13 283.4 405.408 280.892V280.334L405.686 280.055C407.352 278.383 410.129 277.547 413.739 277.268C422.903 276.989 435.4 282.564 440.954 289.812C443.176 292.599 444.287 295.108 444.009 297.617V298.174L443.731 298.453C442.065 300.126 439.288 300.962 435.678 301.241C435.678 301.241 435.4 301.241 435.122 301.241ZM407.907 281.17C407.907 282.843 409.018 284.794 410.407 286.745C415.683 293.436 427.069 298.732 435.678 298.453C438.177 298.453 440.399 297.896 441.51 296.781C441.51 295.108 440.399 293.157 439.01 291.206C433.734 284.515 422.348 279.219 413.739 279.498C411.24 279.777 409.296 280.334 407.907 281.17Z" fill="#13050F"/>
<path d="M438.18 306.875L435.497 312.693L437.261 313.513L439.945 307.695L438.18 306.875Z" fill="#700327"/>
<path d="M443.546 305.457L440.866 311.276L442.631 312.095L445.311 306.276L443.546 305.457Z" fill="#700327"/>
<path d="M397.805 284.66L395.127 290.48L396.892 291.299L399.57 285.478L397.805 284.66Z" fill="#700327"/>
<path d="M416.718 273.721L414.031 279.537L415.795 280.358L418.482 274.542L416.718 273.721Z" fill="#700327"/>
<path d="M421.48 274.615L418.797 280.433L420.561 281.253L423.244 275.435L421.48 274.615Z" fill="#700327"/>
<path d="M398.696 295.951L397.168 297.158L401.975 303.293L403.503 302.086L398.696 295.951Z" fill="#700327"/>
<path d="M425.402 263.609L434.011 258.034V257.755L422.903 244.375H422.625L420.959 252.738L420.403 258.313L425.402 263.609C425.124 263.609 425.124 263.609 425.402 263.609Z" fill="#13050F"/>
<path d="M425.124 264.446C424.847 264.446 424.569 264.446 424.291 264.167L419.57 258.592V258.034L420.126 252.459L422.07 243.539L422.625 243.26C422.903 243.26 423.458 243.26 423.736 243.539L435.122 257.477V258.034C435.122 258.313 434.844 258.592 434.566 258.871L425.957 264.446C425.68 264.446 425.402 264.446 425.124 264.446ZM421.514 257.756L425.402 262.216L432.9 257.477L423.458 246.048L422.07 252.738L421.514 257.756Z" fill="#13050F"/>
<path d="M458.448 222.632L416.793 198.381C415.682 197.823 414.849 197.823 414.016 198.102L405.962 203.12C405.962 203.12 405.685 203.398 405.962 203.398L415.682 213.712C415.682 213.712 415.682 213.712 415.682 213.991V230.995C415.682 233.783 417.626 237.128 419.847 238.521L425.957 242.145C426.235 242.424 426.235 242.424 426.512 242.703C426.79 244.375 428.456 252.18 436.232 257.198C436.51 257.477 436.787 257.198 436.51 256.641C435.399 254.689 433.733 250.508 434.288 247.163C434.566 247.163 434.566 246.884 434.843 246.884L447.618 254.41L452.894 268.906C452.894 268.906 453.172 269.184 453.172 268.906L461.225 264.167C461.781 263.609 462.336 262.773 462.336 261.658V230.159C462.614 227.371 460.67 224.026 458.448 222.632Z" fill="white"/>
<path d="M453.45 270.3H452.895C452.617 270.3 452.339 270.021 452.062 269.742L446.785 255.526L434.844 248.557C434.566 251.623 436.232 254.968 437.066 256.641C437.343 257.198 437.343 258.034 436.788 258.313C436.51 258.592 435.677 258.592 435.399 258.313C427.901 253.017 425.957 245.769 425.402 243.26L425.124 242.982L419.015 239.358C416.238 237.685 414.294 234.061 414.294 230.995V214.27L404.852 204.235C404.574 203.956 404.574 203.677 404.574 203.12C404.574 202.841 404.852 202.562 405.13 202.283L413.183 197.266C414.294 196.708 415.682 196.987 416.793 197.545L458.449 221.796C461.226 223.469 463.17 227.093 463.17 230.159V261.658C463.17 263.052 462.614 264.446 461.781 265.003L453.45 270.3ZM434.844 246.048L448.451 253.853L448.729 254.411L453.728 268.069L460.948 263.609C461.226 263.331 461.503 262.773 461.503 261.937V230.159C461.503 227.65 459.837 224.863 457.616 223.469L416.238 199.496C415.405 198.938 414.849 198.938 414.294 199.217L407.074 203.677L416.515 213.712V214.27V231.274C416.515 233.783 418.182 236.57 420.403 237.964L426.791 241.867L427.346 242.982C427.624 244.375 428.734 250.229 434.289 255.247C433.455 253.017 432.622 250.229 433.178 247.72V247.163L434.844 246.048Z" fill="#13050F"/>
<path d="M450.117 227.928L408.184 203.677C405.962 202.283 404.019 203.398 404.019 206.185V237.964C404.019 240.751 405.962 243.817 408.184 245.211L414.571 248.835C414.849 248.835 414.849 249.114 414.849 249.392C415.127 251.065 416.793 258.87 424.569 264.166C424.846 264.445 425.124 264.166 424.846 263.609C423.736 261.658 421.792 257.198 422.625 253.853C422.625 253.574 422.902 253.574 422.902 253.853L449.84 269.463C452.061 270.857 454.005 269.742 454.005 266.954V235.176C454.283 232.388 452.617 229.043 450.117 227.928Z" fill="#700327"/>
<path d="M452.061 270.578C451.228 270.578 450.673 270.299 449.84 269.742L423.736 254.689C423.458 257.755 425.124 261.1 425.957 262.773C426.235 263.33 426.235 264.167 425.68 264.445C425.402 264.724 424.569 264.724 424.291 264.445C416.238 258.87 414.571 251.065 414.294 249.393L407.907 245.769C405.407 244.375 403.186 240.751 403.186 237.685V205.907C403.186 204.234 403.741 203.119 404.852 202.283C405.963 201.726 407.351 201.726 408.74 202.562L450.395 226.813C452.895 228.207 455.116 231.831 455.116 234.897V266.675C455.116 268.348 454.561 269.463 453.45 270.299C453.172 270.578 452.617 270.578 452.061 270.578ZM423.18 252.459C423.458 252.459 423.736 252.459 423.736 252.738L450.673 268.348C451.506 268.905 452.061 268.905 452.617 268.627C453.172 268.348 453.45 267.79 453.45 266.675V234.897C453.45 232.667 451.784 229.601 449.84 228.486L407.907 204.513C407.073 203.956 406.518 203.956 405.963 204.234C405.407 204.513 405.129 205.071 405.129 206.186V237.964C405.129 240.194 406.796 243.26 408.74 244.375L415.127 247.999C415.405 248.278 415.96 248.556 415.96 249.114C416.238 250.508 417.348 256.361 422.902 261.379C422.069 259.149 421.236 256.083 421.792 253.574V253.016L422.347 252.738C422.625 252.459 422.902 252.459 423.18 252.459Z" fill="#13050F"/>
<path d="M459.01 222.982L451.648 227.463L452.656 229.131L460.018 224.651L459.01 222.982Z" fill="#13050F"/>
<path d="M419.809 200.514L412.447 204.994L413.455 206.663L420.817 202.182L419.809 200.514Z" fill="#13050F"/>
<path d="M454.838 237.685L453.728 236.013L461.781 230.995L462.892 232.668L454.838 237.685Z" fill="#13050F"/>
<path d="M462.614 236.292L454.283 241.309V268.627L462.337 264.167L462.614 262.216V236.292Z" fill="#13050F"/>
<path d="M416.933 181.17L416.184 190.338L418.121 190.497L418.87 181.33L416.933 181.17Z" fill="#13050F"/>
<path d="M407.967 181.09L406.187 181.874L410.424 191.575L412.205 190.791L407.967 181.09Z" fill="#13050F"/>
<path d="M398.68 189.202L397.724 190.901L405.459 195.291L406.416 193.593L398.68 189.202Z" fill="#13050F"/>
<path d="M429.846 250.787H429.29C429.013 250.787 428.457 250.508 428.457 249.95L419.015 232.668C418.738 232.11 418.738 231.274 419.293 230.995C419.571 230.716 420.126 230.438 420.682 230.716L423.736 232.389V221.239C423.736 220.681 424.014 220.402 424.292 220.124C424.569 219.845 425.125 219.845 425.403 220.124L434.567 225.42C435.122 225.699 435.4 226.256 435.4 226.814V239.079L439.288 241.309C439.843 241.588 440.121 242.145 440.121 242.703C440.121 243.26 439.843 243.539 439.565 243.818L429.846 250.787ZM421.515 233.783L429.568 248.557L437.621 242.981L434.011 241.03C433.456 240.751 433.178 240.194 433.178 239.636V227.371L425.125 222.632V233.783C425.125 234.34 424.847 234.619 424.569 234.898C424.292 235.176 423.736 235.176 423.459 234.898L421.515 233.783Z" fill="white"/>
<path d="M211.569 55.1011L187.409 70.9901C186.854 71.5476 187.131 72.3839 187.687 72.3839L194.352 73.2201L224.899 85.4853L244.061 73.2201L224.621 55.1011H211.569Z" fill="white"/>
<path d="M225.178 86.6L194.352 74.0561L187.965 73.2198C187.132 73.2198 186.577 72.6623 186.577 71.8261C186.299 70.9898 186.577 70.4323 187.41 69.8748L211.848 53.707H225.733L246.283 72.9411L225.178 86.6ZM188.521 71.5473L194.908 72.3836L224.9 84.37L242.673 73.2198L224.345 56.2158H211.848L188.521 71.5473Z" fill="#13050F"/>
<path d="M232.675 81.5825L208.238 65.6935C207.96 65.6935 207.96 65.4147 207.96 65.136L205.738 53.707C205.738 53.4283 205.461 53.1495 205.183 52.8708L196.852 49.5257L189.076 46.4594C188.243 46.1807 188.243 45.0657 189.076 44.7869L300.435 6.31877C300.991 6.04002 301.824 6.59753 301.824 7.15504V11.8939C301.824 12.4514 302.379 13.0089 302.934 12.7301L307.655 11.3364C307.933 11.3364 308.211 11.3364 308.211 11.3364L339.869 25.2741C340.702 25.5528 340.702 26.6678 339.869 26.9466L233.509 81.8612C233.231 81.8612 232.953 81.8612 232.675 81.5825Z" fill="white"/>
<path d="M233.231 82.6972C232.954 82.6972 232.398 82.6973 232.12 82.4185L207.683 66.5295C207.127 66.2507 206.849 65.6932 206.849 65.4145L204.628 53.9855L196.297 50.6405L188.521 47.5742C187.688 47.2954 187.41 46.4591 187.41 45.9016C187.41 45.0654 187.966 44.5079 188.799 44.2291L300.158 5.76097C300.713 5.48222 301.269 5.76097 301.824 6.03973C302.379 6.31848 302.657 6.87599 302.657 7.71226V12.4511L307.378 11.0573C307.934 11.0573 308.211 11.0573 308.767 11.0573L340.425 24.995C340.98 25.2738 341.536 25.8313 341.536 26.6676C341.536 27.5038 341.258 28.0613 340.425 28.3401L234.064 82.6972C233.787 82.6972 233.509 82.6972 233.231 82.6972ZM300.436 7.4335L189.354 45.9016L197.13 48.9679L205.461 52.313C206.016 52.5918 206.572 53.1493 206.572 53.7068L208.793 65.1357L233.231 81.0247L339.314 26.3888L307.656 12.4511L302.935 13.8449C302.379 14.1236 301.824 13.8449 301.269 13.5661C300.713 13.2873 300.436 12.7298 300.436 12.1723V7.4335Z" fill="#13050F"/>
<path d="M471.501 104.997L428.179 79.6304L328.483 149.598L327.095 168.553L335.148 184.721L345.701 182.212L470.112 109.736L471.501 104.997Z" fill="#700327"/>
<path d="M334.593 185.836L326.262 168.832L327.65 149.041L327.928 148.762L428.179 78.5156L472.612 104.44L470.945 110.015L470.668 110.294L346.256 183.049L334.593 185.836ZM328.206 168.553L335.704 183.885L345.423 181.655L469.279 109.179L470.39 105.555L428.179 80.7457L329.316 150.156L328.206 168.553Z" fill="#13050F"/>
<path d="M334.593 9.94263C333.76 9.10636 332.649 9.10636 331.26 9.94263L203.795 83.8126C197.407 87.4364 192.409 96.914 192.964 104.162C193.242 107.228 194.63 108.901 196.574 109.737L332.094 188.624C332.649 188.903 333.482 188.624 333.76 187.788L335.148 179.983V179.704L339.314 170.505C339.314 170.227 339.592 170.227 339.869 169.948L424.569 122.559L465.391 96.3565C465.391 96.3565 465.391 96.3565 465.669 96.3565L471.223 91.0602C471.778 90.5027 471.778 89.6664 470.945 89.3877L334.593 9.94263Z" fill="#700327"/>
<path d="M332.926 189.739C332.649 189.739 332.093 189.739 331.816 189.46L196.296 110.573C194.075 109.737 192.408 107.507 192.131 104.162C191.298 96.9139 196.574 86.8787 203.239 82.9762L330.427 9.1062C332.093 8.26994 333.76 8.26994 334.87 9.1062L471.223 88.2725C471.778 88.5513 472.056 89.1088 472.334 89.6663C472.334 90.2238 472.056 91.0601 471.778 91.3388L466.224 96.6351L465.947 96.9139L425.124 123.117L340.424 170.505L335.981 179.983L334.593 187.788C334.593 188.345 334.037 188.903 333.482 189.182C333.482 189.46 333.204 189.739 332.926 189.739ZM332.926 10.5C332.371 10.5 331.816 10.7787 331.538 11.0575L204.35 84.6487C198.24 88.2725 193.242 97.1927 194.075 103.883C194.352 106.392 195.463 108.064 197.129 108.622L332.926 187.788H334.037L332.926 187.509L334.315 179.704C334.315 179.425 334.315 179.425 334.593 179.146L338.758 169.948C339.036 169.669 339.314 169.111 339.591 169.111L424.291 121.723L465.113 95.5201L470.667 90.2238V89.945L334.037 10.7787C333.482 10.5 333.204 10.5 332.926 10.5Z" fill="#13050F"/>
<path d="M470.946 89.3877L334.593 9.94263C333.76 9.10636 332.649 9.10636 331.261 9.94263L203.795 83.8126C202.962 84.3701 202.129 84.9276 201.573 85.4851L343.757 168.275L384.024 145.696L439.565 113.361L465.669 96.3566C465.669 96.3566 465.669 96.3566 465.947 96.3566L471.501 91.0602C471.779 90.5027 471.501 89.6664 470.946 89.3877Z" fill="#700327"/>
<path d="M332.927 15.7965C334.316 14.9602 335.427 14.9602 336.26 15.7965L469.002 93.0115L470.946 91.0602C471.502 90.5027 471.502 89.6664 470.668 89.3877L334.038 9.94263C333.205 9.10636 332.094 9.10636 330.706 9.94263L203.518 83.8126C202.684 84.3701 201.851 84.9276 201.296 85.4851L207.128 88.8302L332.927 15.7965Z" fill="white"/>
<path d="M343.48 169.39L342.925 169.111L199.907 85.485L201.018 84.6487C201.851 84.0912 202.684 83.2549 203.517 82.9762L330.706 9.1062C332.372 8.26994 334.038 8.26994 335.149 9.1062L471.501 88.2725C472.057 88.5513 472.334 89.1088 472.612 89.6663C472.612 90.2238 472.334 91.0601 472.057 91.3388L466.503 96.6352L466.225 96.9139L440.121 113.918L384.58 146.253L343.48 169.39ZM203.24 85.2062L343.48 166.881L383.192 144.581L438.732 112.245L464.836 95.5201L470.39 90.2238V89.945L334.038 10.7787C333.483 10.2212 332.372 10.7787 331.816 10.7787L204.35 84.6487C204.073 84.9275 203.517 84.9275 203.24 85.2062Z" fill="#13050F"/>
<path d="M201.96 84.6688L200.984 86.3564L338.851 166.663L339.827 164.975L201.96 84.6688Z" fill="#13050F"/>
<path d="M195.02 96.3157L194.044 98.0034L331.911 178.31L332.886 176.622L195.02 96.3157Z" fill="#13050F"/>
<path d="M207.031 81.2459L206.056 82.9336L343.922 163.24L344.898 161.553L207.031 81.2459Z" fill="#13050F"/>
<path d="M192.964 101.652L192.687 103.882C192.964 106.949 194.353 108.621 196.297 109.457L331.816 188.345C332.371 188.624 333.205 188.345 333.482 187.509L334.871 184.442L192.964 101.652Z" fill="#13050F"/>
<path d="M469.002 115.311L342.091 188.903C336.537 192.248 331.539 190.296 330.983 184.443C330.15 177.195 335.427 167.996 341.814 164.094L469.002 90.2236C471.224 88.8298 473.168 89.9448 473.168 92.7324C473.168 95.5199 471.224 98.5862 469.002 99.98L341.814 173.85C340.425 174.686 339.314 176.359 339.314 178.031C339.314 179.704 340.425 180.261 341.814 179.425L469.002 105.555C471.224 104.161 473.168 105.276 473.168 108.064C473.168 110.573 471.224 113.918 469.002 115.311Z" fill="#13050F"/>
<path d="M336.815 191.133C335.704 191.133 334.593 190.854 333.76 190.297C331.538 189.182 330.427 186.952 329.872 184.164C329.039 176.916 334.315 166.881 340.98 162.979L468.168 89.1087C469.557 88.2725 470.945 88.2724 472.056 88.83C473.167 89.3875 473.722 90.7812 473.722 92.4538C473.722 95.5201 471.778 99.1439 469.001 100.538L342.091 174.408C340.98 174.965 340.147 176.638 340.147 177.753C340.147 178.31 340.147 178.31 340.425 178.589C340.425 178.589 340.702 178.589 341.258 178.31L468.446 104.719C469.835 103.883 471.223 103.883 472.334 104.44C473.445 104.998 474 106.391 474 108.064C474 111.13 472.056 114.754 469.279 116.148L342.369 189.739C340.702 190.575 338.758 191.133 336.815 191.133ZM470.945 90.5025C470.668 90.5025 470.112 90.7812 469.557 91.06L342.369 164.93C336.259 168.554 331.26 177.474 332.094 184.164C332.371 186.394 333.204 188.067 334.871 188.903C336.814 189.739 339.314 189.46 341.813 188.067L468.724 114.475C470.668 113.36 472.334 110.294 472.334 108.064C472.334 107.228 472.056 106.391 471.501 106.113C470.945 105.834 470.39 105.834 469.557 106.391L342.091 179.983C341.258 180.54 340.147 180.54 339.592 180.261C338.758 179.704 338.481 178.868 338.481 178.031C338.481 176.08 339.869 174.129 341.258 173.014L468.446 99.1439C470.39 98.0289 472.056 94.9626 472.056 92.7325C472.056 91.8963 471.778 91.06 471.223 90.7812C471.223 90.5025 471.223 90.5025 470.945 90.5025Z" fill="#13050F"/>
<path d="M454.283 99.144H452.895V108.9H454.283V99.144Z" fill="#700327"/>
<path d="M349.589 174.965H348.2V184.721H349.589V174.965Z" fill="#700327"/>
<path d="M355.698 171.62H354.31V181.377H355.698V171.62Z" fill="#700327"/>
<path d="M459.559 95.7988H458.171V105.555H459.559V95.7988Z" fill="#700327"/>
<path d="M275.007 22.2061L235.662 39.0254L236.424 40.8206L275.769 24.0013L275.007 22.2061Z" fill="#13050F"/>
<path d="M227.433 42.5378L204.688 52.2456L205.448 54.0414L228.194 44.3335L227.433 42.5378Z" fill="#13050F"/>
<path d="M256.003 40.6055L255.17 38.933L288.494 20.814L289.327 22.4865L256.003 40.6055Z" fill="#13050F"/>
<path d="M247.034 43.6412L207.832 65.2192L208.767 66.9301L247.969 45.3521L247.034 43.6412Z" fill="#13050F"/>
<path d="M202.397 67.5852L193.984 72.4722L194.958 74.161L203.37 69.274L202.397 67.5852Z" fill="#13050F"/>
<path d="M355.421 165.766L382.636 172.735L387.635 184.722L468.169 122.002L453.728 119.214L450.396 110.852L355.421 165.766Z" fill="white"/>
<path d="M387.079 186.115L382.08 173.571L353.199 166.045L450.951 109.458L454.561 118.378L470.668 121.444L387.079 186.115ZM357.92 165.208L383.469 171.899L387.912 183.049L465.947 122.559L452.895 120.05L449.84 111.966L357.92 165.208Z" fill="#13050F"/>
<path d="M452.984 118.615L396.174 161.518L397.343 163.077L454.152 120.175L452.984 118.615Z" fill="#13050F"/>
<path d="M391.67 164.868L382.127 172.073L383.295 173.632L392.839 166.427L391.67 164.868Z" fill="#13050F"/>
<path d="M452.181 115.653L422.193 136.329L423.294 137.938L453.281 117.262L452.181 115.653Z" fill="#13050F"/>
<path d="M413.285 142.49L398.878 152.453L399.981 154.06L414.388 144.097L413.285 142.49Z" fill="#13050F"/>
<path d="M299.602 57.6087L295.715 56.2149L290.716 54.5424L296.27 59.8387L293.493 61.5112L281.552 57.3299L284.051 55.9361L289.327 57.6087C290.161 57.8874 291.549 58.4449 292.938 59.0024C292.66 58.7237 292.104 58.4449 291.271 57.6087L290.438 57.3299L287.106 53.9849L289.883 52.3123L295.437 54.2636C295.715 54.2636 295.715 54.2636 295.992 54.5424C296.27 54.5424 296.548 54.8211 296.825 54.8211C297.103 54.8211 297.381 55.0999 297.659 55.0999C297.936 55.0999 298.214 55.3786 298.214 55.3786C297.936 55.0999 297.381 54.8211 296.825 54.2636C296.27 53.7061 295.992 53.4273 295.715 53.4273L292.66 50.3611L295.159 48.9673L301.824 55.9361L299.602 57.6087Z" fill="white"/>
<path d="M312.376 50.0825L310.71 49.8037C310.71 50.3612 310.71 50.9187 310.432 51.1975C310.155 51.4762 309.599 52.0338 309.044 52.3125C308.211 52.87 307.1 53.1488 306.267 53.1488C305.156 53.1488 304.323 52.87 303.212 52.3125C302.101 51.755 301.824 51.1975 302.101 50.3612C302.379 49.8037 303.212 48.9675 304.323 48.1312L305.989 47.2949L305.711 47.0162C304.878 46.4587 303.768 46.4587 302.934 47.0162C302.101 47.5737 301.546 48.1312 300.991 48.9675L298.491 48.4099C299.047 47.5737 299.88 46.7374 301.268 45.9012C302.379 45.0649 303.768 44.7861 304.878 44.7861C305.989 44.7861 307.1 45.0649 308.211 45.6224L314.32 49.2462L312.376 50.0825ZM307.378 48.1312L306.545 48.6887C305.712 49.2462 305.434 49.525 305.434 49.8037C305.434 50.0825 305.434 50.3612 305.989 50.64C306.822 50.9187 307.378 50.9187 308.211 50.64C308.766 50.3612 309.044 49.8037 309.044 49.525C309.044 49.2462 308.489 48.9675 307.933 48.6887L307.378 48.1312Z" fill="white"/>
<path d="M319.319 46.1802L316.819 47.574L304.045 40.0476L306.544 38.6538L319.319 46.1802Z" fill="white"/>
<path d="M324.319 43.1138L321.819 44.7864L309.045 37.26L311.544 35.8662L324.319 43.1138Z" fill="white"/>
<path d="M331.26 39.49C329.871 40.3262 328.205 40.8837 326.539 40.8837C324.872 40.8837 323.206 40.3262 321.818 39.49C320.151 38.6537 319.596 37.5387 319.318 36.7024C319.318 35.8662 319.874 35.0299 321.262 34.1936C322.651 33.3574 324.039 33.0786 325.428 33.0786C326.816 33.0786 328.205 33.3574 329.593 34.1936L330.704 35.0299L324.872 38.375C325.706 38.6537 326.261 38.9325 327.094 38.9325C327.927 38.9325 328.76 38.6537 329.316 38.375C329.871 38.0962 330.427 37.8174 330.704 37.2599C330.982 36.9812 331.537 36.4237 331.815 36.1449L333.759 37.2599C333.481 37.5387 333.204 38.0962 332.926 38.375C332.648 38.6537 332.093 38.9325 331.26 39.49ZM323.206 35.0299C322.651 35.3087 322.373 35.5874 322.373 36.1449C322.373 36.4237 322.651 36.9812 323.206 37.2599L326.816 35.3087C326.261 35.0299 325.428 34.7511 324.872 34.7511C324.317 34.4724 323.762 34.7511 323.206 35.0299Z" fill="white"/>
<path d="M339.037 32.521C339.592 32.2422 339.87 31.9635 340.425 31.406L342.369 32.521C342.092 33.0785 341.259 33.636 340.425 34.1935C339.315 34.751 338.482 35.0298 337.371 35.0298C336.538 35.0298 335.427 34.751 334.316 34.1935L329.873 31.6847L328.762 32.2422L327.651 31.6847L328.207 30.291L327.096 28.6184L328.762 27.7822L330.706 28.8972L333.205 27.5034L335.149 28.6184L332.65 30.0122L337.093 32.521C337.371 32.7997 337.926 32.7998 338.204 32.7998C338.482 32.7998 338.759 32.7997 339.037 32.521Z" fill="white"/>
<path d="M426.513 89.1089C428.179 90.5027 426.79 92.7327 426.513 93.0115C427.068 92.7327 430.678 91.8964 433.178 93.0115C431.511 91.6177 432.9 89.3876 433.178 89.1089C432.622 89.1089 429.012 90.2239 426.513 89.1089Z" fill="#13050F"/>
<path d="M329.039 145.695C330.705 147.089 329.317 149.319 329.039 149.598C329.594 149.319 333.205 148.483 335.704 149.598C334.038 148.204 335.426 145.974 335.704 145.695C335.149 145.695 331.538 146.532 329.039 145.695C329.039 145.417 329.039 145.417 329.039 145.695Z" fill="#13050F"/>
<path d="M338.759 139.842C340.425 141.236 339.036 143.466 338.759 143.744C339.314 143.466 342.924 142.629 345.424 143.744C343.757 142.351 345.146 140.121 345.424 139.842C345.146 140.121 341.536 140.957 338.759 139.842Z" fill="#13050F"/>
<path d="M348.479 134.267C350.145 135.66 348.756 137.89 348.479 138.169C349.034 137.89 352.644 137.054 355.143 138.169C353.477 136.775 354.866 134.545 355.143 134.267C354.866 134.267 351.256 135.382 348.479 134.267Z" fill="#13050F"/>
<path d="M358.198 128.692C359.864 130.086 358.476 132.316 358.198 132.594C358.754 132.316 362.364 131.479 364.863 132.594C363.197 131.201 364.585 128.971 364.863 128.692C364.585 128.692 360.975 129.528 358.198 128.692Z" fill="#13050F"/>
<path d="M368.196 122.838C369.862 124.232 368.473 126.462 368.196 126.74C368.751 126.462 372.361 125.625 374.861 126.74C373.194 125.347 374.583 123.117 374.861 122.838C374.305 123.117 370.695 123.953 368.196 122.838C368.196 122.838 367.918 122.838 368.196 122.838Z" fill="#13050F"/>
<path d="M377.914 117.263C379.58 118.656 378.192 120.887 377.914 121.165C378.469 120.887 382.08 120.05 384.579 121.165C382.913 119.771 384.301 117.541 384.579 117.263C384.024 117.541 380.413 118.378 377.914 117.263Z" fill="#13050F"/>
<path d="M387.634 111.688C389.3 113.081 387.911 115.311 387.634 115.59C388.189 115.311 391.799 114.475 394.299 115.59C392.632 114.196 394.021 111.966 394.299 111.688C393.743 111.688 390.133 112.803 387.634 111.688Z" fill="#13050F"/>
<path d="M397.354 106.112C399.02 107.506 397.631 109.736 397.354 110.015C397.909 109.736 401.519 108.9 404.018 110.015C402.352 108.621 403.741 106.391 404.018 106.112C403.463 106.112 399.853 106.949 397.354 106.112Z" fill="#13050F"/>
<path d="M407.073 100.259C408.739 101.653 407.351 103.883 407.073 104.161C407.629 103.883 411.239 103.046 413.738 104.161C412.072 102.768 413.461 100.538 413.738 100.259C413.183 100.538 409.573 101.374 407.073 100.259Z" fill="#13050F"/>
<path d="M416.793 94.6836C418.459 96.0774 417.071 98.3074 416.793 98.5862C417.348 98.3074 420.959 97.4711 423.458 98.5862C421.792 97.1924 423.18 94.9623 423.458 94.6836C422.902 94.9623 419.292 95.7986 416.793 94.6836Z" fill="#13050F"/>
<path d="M416.793 83.5333C418.459 84.9271 417.071 87.1571 416.793 87.4358C417.348 87.1571 420.959 86.3208 423.458 87.4358C421.792 86.0421 423.18 83.812 423.458 83.5333C422.902 83.5333 419.292 84.3695 416.793 83.5333C416.793 83.2545 416.793 83.2545 416.793 83.5333Z" fill="#13050F"/>
<path d="M426.513 77.6797C428.179 79.0735 426.79 81.3035 426.513 81.5822C427.068 81.3035 430.678 80.4672 433.178 81.5822C431.511 80.1885 432.9 77.9584 433.178 77.6797C432.622 77.9584 429.012 78.7947 426.513 77.6797Z" fill="#13050F"/>
<path d="M329.039 134.267C330.705 135.66 329.317 137.89 329.039 138.169C329.594 137.89 333.205 137.054 335.704 138.169C334.038 136.775 335.426 134.545 335.704 134.267C335.149 134.267 331.538 135.382 329.039 134.267Z" fill="#13050F"/>
<path d="M338.759 128.692C340.425 130.086 339.036 132.316 338.759 132.594C339.314 132.316 342.924 131.479 345.424 132.594C343.757 131.201 345.146 128.971 345.424 128.692C344.868 128.692 341.258 129.528 338.759 128.692C338.759 128.413 338.759 128.692 338.759 128.692Z" fill="#13050F"/>
<path d="M348.479 122.838C350.145 124.232 348.756 126.462 348.479 126.74C349.034 126.462 352.644 125.625 355.143 126.74C353.477 125.347 354.866 123.117 355.143 122.838C354.588 123.117 351.256 123.953 348.479 122.838Z" fill="#13050F"/>
<path d="M358.198 117.263C359.864 118.656 358.476 120.887 358.198 121.165C358.754 120.887 362.364 120.05 364.863 121.165C363.197 119.771 364.585 117.541 364.863 117.263C364.585 117.541 360.975 118.378 358.198 117.263Z" fill="#13050F"/>
<path d="M367.917 111.688C369.583 113.081 368.195 115.311 367.917 115.59C368.472 115.311 372.083 114.475 374.582 115.59C372.916 114.196 374.304 111.966 374.582 111.688C374.304 111.688 370.694 112.524 367.917 111.688Z" fill="#13050F"/>
<path d="M377.638 106.113C379.304 107.506 377.915 109.736 377.638 110.015C378.193 109.736 381.803 108.9 384.303 110.015C382.636 108.621 384.025 106.391 384.303 106.113C384.025 106.113 380.415 106.949 377.638 106.113C377.915 105.834 377.638 106.113 377.638 106.113Z" fill="#13050F"/>
<path d="M387.634 100.259C389.3 101.653 387.911 103.883 387.634 104.161C388.189 103.883 391.799 103.046 394.299 104.161C392.632 102.768 394.021 100.538 394.299 100.259C393.743 100.538 390.133 101.374 387.634 100.259Z" fill="#13050F"/>
<path d="M397.354 94.6836C399.02 96.0774 397.631 98.3074 397.354 98.5862C397.909 98.3074 401.519 97.4711 404.018 98.5862C402.352 97.1924 403.741 94.9623 404.018 94.6836C403.463 94.9623 399.853 95.7986 397.354 94.6836Z" fill="#13050F"/>
<path d="M407.073 89.1089C408.739 90.5027 407.351 92.7327 407.073 93.0115C407.629 92.7327 411.239 91.8964 413.738 93.0115C412.072 91.6177 413.461 89.3876 413.738 89.1089C413.183 89.1089 409.573 89.9452 407.073 89.1089Z" fill="#13050F"/>
<path d="M407.073 77.6797C408.739 79.0735 407.351 81.3035 407.073 81.5822C407.629 81.3035 411.239 80.4672 413.738 81.5822C412.072 80.1885 413.461 77.9584 413.738 77.6797C413.183 77.9584 409.573 78.7947 407.073 77.6797Z" fill="#13050F"/>
<path d="M416.793 72.1045C418.459 73.4983 417.071 75.7283 416.793 76.007C417.348 75.7283 420.959 74.892 423.458 76.007C421.792 74.6133 423.18 72.3832 423.458 72.1045C422.902 72.1045 419.292 73.2195 416.793 72.1045Z" fill="#13050F"/>
<path d="M329.039 122.838C330.705 124.232 329.317 126.462 329.039 126.74C329.594 126.462 333.205 125.625 335.704 126.74C334.038 125.347 335.426 123.117 335.704 122.838C335.149 123.117 331.538 123.953 329.039 122.838Z" fill="#13050F"/>
<path d="M338.759 117.263C340.425 118.656 339.036 120.887 338.759 121.165C339.314 120.887 342.924 120.05 345.424 121.165C343.757 119.771 345.146 117.541 345.424 117.263C344.868 117.541 341.258 118.378 338.759 117.263Z" fill="#13050F"/>
<path d="M348.479 111.688C350.145 113.081 348.756 115.311 348.479 115.59C349.034 115.311 352.644 114.475 355.143 115.59C353.477 114.196 354.866 111.966 355.143 111.688C354.588 111.688 350.978 112.524 348.479 111.688Z" fill="#13050F"/>
<path d="M358.198 105.834C359.864 107.228 358.476 109.458 358.198 109.737C358.754 109.458 362.364 108.622 364.863 109.737C363.197 108.343 364.585 106.113 364.863 105.834C364.308 106.113 360.698 106.949 358.198 105.834Z" fill="#13050F"/>
<path d="M367.917 100.259C369.583 101.653 368.195 103.883 367.917 104.161C368.472 103.883 372.083 103.046 374.582 104.161C372.916 102.768 374.304 100.538 374.582 100.259C374.304 100.538 370.694 101.374 367.917 100.259Z" fill="#13050F"/>
<path d="M377.638 94.6836C379.304 96.0774 377.915 98.3074 377.638 98.5862C378.193 98.3074 381.803 97.4711 384.303 98.5862C382.636 97.1924 384.025 94.9623 384.303 94.6836C384.025 94.6836 380.415 95.7986 377.638 94.6836Z" fill="#13050F"/>
<path d="M387.356 89.1089C389.023 90.5027 387.634 92.7327 387.356 93.0115C387.912 92.7327 391.522 91.8964 394.021 93.0115C392.355 91.6177 393.744 89.3876 394.021 89.1089C393.744 89.1089 390.133 89.9452 387.356 89.1089C387.634 89.1089 387.356 89.1089 387.356 89.1089Z" fill="#13050F"/>
<path d="M397.354 83.2549C399.02 84.6486 397.632 86.8787 397.354 87.1574C397.909 86.8787 401.519 86.0424 404.019 87.1574C402.353 85.7637 403.741 83.5336 404.019 83.2549C403.463 83.5336 399.853 84.3699 397.354 83.2549C397.354 83.2549 397.076 83.2549 397.354 83.2549Z" fill="#13050F"/>
<path d="M288.216 312.391L157.418 388.212C153.807 390.442 147.143 390.164 142.699 387.655L63.2761 341.103C58.8328 338.594 57.9997 328.838 61.6098 326.607L192.964 256.64C196.574 254.41 203.239 254.689 207.682 257.198L289.327 298.732C293.215 301.241 291.826 310.161 288.216 312.391Z" fill="#13050F"/>
<path d="M151.031 391C147.976 391 144.644 390.164 142.144 388.77L62.4433 341.939C59.3885 340.267 58 335.528 58 332.183C58 329.117 59.1108 326.608 60.777 325.493L192.131 255.525C196.296 253.017 203.239 253.295 207.96 256.083L289.327 297.617C291.549 298.732 292.66 301.241 292.66 304.586C292.66 308.489 290.993 312.113 288.494 313.506L157.973 389.328C156.029 390.443 153.53 391 151.031 391ZM199.073 256.64C196.852 256.64 194.908 257.198 193.242 258.034L62.1656 327.723C61.0547 328.28 60.4993 329.953 60.4993 332.183C60.4993 335.528 61.8879 338.873 63.8318 339.988L143.533 386.54C147.421 388.77 153.53 389.049 156.862 387.098L287.661 311.276C289.327 310.44 290.438 307.374 290.438 304.586C290.438 302.356 289.605 300.684 288.494 299.847L207.127 258.313C204.628 257.198 201.85 256.64 199.073 256.64Z" fill="#13050F"/>
<path d="M288.217 305.979L157.418 381.801C153.808 384.031 147.143 383.752 142.7 381.243L63.2766 334.691C58.8334 332.182 58.5556 328.28 62.1658 326.328L192.964 250.507C196.574 248.277 203.239 248.556 207.682 251.065L287.383 297.617C291.549 300.126 291.827 304.028 288.217 305.979Z" fill="#700327"/>
<path d="M62.4428 331.904L193.241 256.082C196.851 253.852 203.516 254.131 207.959 256.64L287.66 303.192C288.493 303.749 289.327 304.307 289.882 304.864C291.826 302.634 290.993 299.568 287.383 297.617L207.682 251.065C203.238 248.556 196.851 248.277 192.963 250.507L62.1651 326.329C59.1103 328.001 58.8326 330.789 61.0542 333.019C61.332 332.74 61.8874 332.182 62.4428 331.904Z" fill="white"/>
<path d="M151.03 384.589C147.976 384.589 144.643 383.752 142.144 382.359L62.4429 335.807C59.6659 334.134 58.2773 332.183 58.2773 329.953C58.2773 328.001 59.3882 326.329 61.3321 325.214L192.13 249.393C196.296 246.884 203.239 247.163 207.96 249.95L287.661 296.502C290.438 298.175 291.826 300.126 291.826 302.356C291.826 304.307 290.715 305.98 288.771 307.095L157.973 382.916C156.029 384.031 153.53 384.589 151.03 384.589ZM199.073 250.229C196.851 250.229 194.908 250.786 193.241 251.623L62.7206 327.165C61.8875 327.723 60.7767 328.559 60.7767 329.953C60.7767 331.346 61.8875 332.74 63.8314 333.577L143.532 380.129C147.42 382.359 153.53 382.637 156.862 380.686L287.661 304.865C288.494 304.307 289.604 303.471 289.604 302.356C289.604 300.962 288.494 299.568 286.55 298.732L206.849 252.18C204.627 250.786 201.85 250.229 199.073 250.229Z" fill="#13050F"/>
<path d="M287.383 297.617L207.682 251.065C207.682 251.065 207.682 251.065 207.404 251.065L280.718 293.994C285.161 296.502 285.439 300.405 281.829 302.356L151.03 378.178C147.42 380.408 141.033 380.129 136.59 377.62L142.977 381.244C147.42 383.753 153.807 384.031 157.695 381.801L288.494 305.98C292.104 304.029 291.548 300.126 287.383 297.617Z" fill="#13050F"/>
<path d="M151.308 384.31C148.253 384.31 145.199 383.474 142.699 382.08L143.532 380.407C147.698 382.637 153.807 382.916 157.14 380.965L287.938 305.144C289.882 304.029 290.438 302.635 289.604 300.962L291.271 300.126C292.381 302.635 291.548 305.144 288.771 306.816L157.973 382.637C156.307 383.752 153.807 384.31 151.308 384.31Z" fill="#700327"/>
<path d="M126.87 332.461L105.487 344.727C104.099 345.563 101.599 345.563 99.933 344.448L88.8249 338.036C87.1587 337.2 86.881 335.528 88.5472 334.691L109.93 322.426C111.319 321.59 113.818 321.59 115.484 322.705L126.593 329.116C127.981 330.231 128.259 331.625 126.87 332.461Z" fill="#700327"/>
<path d="M102.988 346.678C101.599 346.678 100.211 346.399 99.0999 345.841L87.9918 339.43C86.6033 338.594 86.0479 337.758 86.0479 336.643C86.0479 335.528 86.6033 334.691 87.7141 334.134L109.097 321.869C111.041 320.753 113.818 321.032 116.04 322.147L127.148 328.559C128.536 329.395 129.092 330.231 129.092 331.346C129.092 332.461 128.536 333.297 127.426 333.855L106.043 346.12C105.209 346.399 104.099 346.678 102.988 346.678ZM111.874 323.262C111.319 323.262 110.486 323.262 109.93 323.541L88.5472 335.806C88.2695 336.085 88.2695 336.085 88.2695 336.085C88.2695 336.085 88.5472 336.364 89.1026 336.921L100.211 343.333C101.599 344.169 103.543 344.169 104.654 343.611L126.037 331.346C126.315 331.067 126.315 331.067 126.315 331.067C126.315 331.067 126.037 330.789 125.482 330.231L114.374 323.82C113.818 323.541 112.985 323.262 111.874 323.262Z" fill="white"/>
<path d="M116.317 338.594L115.762 338.872C114.096 339.987 111.041 339.709 108.819 338.594L99.0997 333.019C97.1557 331.904 96.878 329.952 98.5443 329.116L99.0997 328.837C100.766 327.722 103.821 328.001 106.042 329.116L115.762 334.691C117.984 335.806 118.261 337.479 116.317 338.594Z" fill="#700327"/>
<path d="M112.985 340.824C111.319 340.824 109.653 340.545 108.542 339.709L98.8222 334.134C97.4337 333.297 96.6006 332.182 96.6006 330.789C96.6006 329.674 97.156 328.559 98.5445 328.001L99.0999 327.722C101.322 326.607 104.932 326.607 107.153 328.001L116.873 333.576C118.261 334.412 119.095 335.527 119.095 336.921C119.095 338.036 118.539 339.151 117.151 339.709L116.595 339.988C115.484 340.545 114.374 340.824 112.985 340.824ZM102.155 329.116C101.322 329.116 100.488 329.395 99.6553 329.674L99.0999 329.952C98.8222 329.952 98.5445 330.231 98.5445 330.51C98.5445 330.789 98.8222 331.346 99.6553 331.625L109.375 337.2C111.041 338.036 113.541 338.315 114.929 337.479L115.484 337.2C115.762 337.2 116.04 336.921 116.04 336.642C116.04 336.364 115.762 335.806 114.929 335.527L105.209 329.952C104.654 329.395 103.265 329.116 102.155 329.116Z" fill="white"/>
<path d="M106.087 336.172L96.2334 341.899L97.4858 344.07L107.339 338.343L106.087 336.172Z" fill="white"/>
<path d="M101.026 333.083L91.1758 338.815L92.4295 340.986L102.279 335.253L101.026 333.083Z" fill="white"/>
<path d="M122.397 326.48L112.53 332.183L113.777 334.357L123.644 328.654L122.397 326.48Z" fill="white"/>
<path d="M117.438 323.635L107.58 329.353L108.83 331.525L118.688 325.807L117.438 323.635Z" fill="white"/>
<path d="M208.792 275.038C212.958 277.547 212.958 281.449 208.792 283.958C204.627 286.467 197.684 286.467 193.519 283.958C189.353 281.449 189.353 277.547 193.519 275.038C197.684 272.529 204.627 272.529 208.792 275.038Z" fill="#700327"/>
<path d="M201.017 287.024C197.962 287.024 195.185 286.467 192.686 285.073C190.186 283.679 188.798 281.728 188.798 279.498C188.798 277.268 190.186 275.316 192.686 273.923C197.407 271.135 204.627 271.135 209.348 273.923C211.847 275.316 213.236 277.268 213.236 279.498C213.236 281.728 211.847 283.679 209.348 285.073C207.126 286.467 204.072 287.024 201.017 287.024ZM201.017 274.48C198.517 274.48 195.74 275.038 194.074 276.153C192.408 276.989 191.575 278.383 191.575 279.498C191.575 280.613 192.408 282.007 194.074 282.843C197.962 285.073 204.349 285.073 208.237 282.843C209.903 282.007 210.736 280.613 210.736 279.498C210.736 278.383 209.903 276.989 208.237 276.153C206.293 275.038 203.794 274.48 201.017 274.48Z" fill="white"/>
<path d="M216.568 270.578C220.733 273.087 220.733 276.989 216.568 279.498C212.402 282.007 205.46 282.007 201.294 279.498C197.129 276.989 197.129 273.087 201.294 270.578C205.46 268.069 212.125 268.069 216.568 270.578Z" fill="#700327"/>
<path d="M208.792 282.564C205.737 282.564 202.96 282.007 200.461 280.613C197.962 279.219 196.573 277.268 196.573 275.038C196.573 272.808 197.962 270.857 200.461 269.463C205.182 266.675 212.402 266.675 217.123 269.463C219.623 270.857 221.011 272.808 221.011 275.038C221.011 277.268 219.623 279.219 217.123 280.613C214.902 282.007 211.847 282.564 208.792 282.564ZM208.792 270.02C206.293 270.02 203.516 270.578 201.85 271.693C200.183 272.529 199.35 273.923 199.35 275.038C199.35 276.153 200.183 277.547 201.85 278.383C205.737 280.613 212.125 280.613 216.012 278.383C217.679 277.547 218.512 276.153 218.512 275.038C218.512 273.923 217.679 272.529 216.012 271.693C214.069 270.578 211.292 270.02 208.792 270.02Z" fill="white"/>
<path d="M129.092 354.762C130.758 355.598 131.591 356.434 131.869 357.271C132.147 358.107 131.591 358.664 130.48 359.222C129.37 359.779 128.259 360.058 126.87 359.779C125.482 359.501 124.093 359.222 122.705 358.107C121.039 357.271 120.205 356.434 119.928 355.598C119.65 354.762 120.205 354.204 121.039 353.647C122.149 353.089 123.26 352.811 124.649 353.089C126.037 353.368 127.426 353.926 129.092 354.762ZM124.649 357.271C125.759 357.828 126.593 358.386 127.426 358.386C127.981 358.664 128.537 358.386 129.092 358.107C129.647 357.828 129.647 357.549 129.37 356.992C129.092 356.713 128.259 356.156 127.148 355.319C126.037 354.762 125.204 354.204 124.371 354.204C123.816 353.926 122.982 354.204 122.705 354.204C122.149 354.483 122.149 354.762 122.427 355.319C122.705 356.156 123.538 356.713 124.649 357.271Z" fill="white"/>
<path d="M136.312 350.58C137.978 351.416 138.811 352.253 139.089 353.089C139.367 353.925 138.811 354.483 137.701 355.04C136.59 355.598 135.479 355.877 134.091 355.598C132.702 355.319 131.313 355.04 129.925 353.925C128.259 353.089 127.426 352.253 127.148 351.416C126.87 350.58 127.426 350.023 128.536 349.465C129.647 348.908 130.758 348.629 132.147 348.908C133.257 349.186 134.924 349.744 136.312 350.58ZM131.869 353.089C132.98 353.647 133.813 354.204 134.646 354.204C135.201 354.483 135.757 354.204 136.312 353.925C136.868 353.646 136.868 353.368 136.59 352.81C136.312 352.531 135.479 351.974 134.368 351.138C133.257 350.58 132.424 350.023 131.591 350.023C131.036 349.744 130.203 350.023 129.925 350.023C129.37 350.301 129.37 350.58 129.647 351.138C130.203 351.974 130.758 352.532 131.869 353.089Z" fill="white"/>
<path d="M143.532 346.399C145.198 347.235 146.031 348.072 146.309 348.908C146.587 349.744 146.031 350.302 144.92 350.859C143.81 351.417 142.699 351.695 141.31 351.417C139.922 351.138 138.533 350.859 137.145 349.744C135.478 348.908 134.645 348.072 134.368 347.235C134.09 346.399 134.645 345.842 135.756 345.284C136.867 344.727 137.978 344.448 139.366 344.727C140.755 345.005 142.143 345.563 143.532 346.399ZM139.089 348.908C140.199 349.465 141.033 350.023 141.866 350.023C142.421 350.302 142.976 350.023 143.532 349.744C144.087 349.465 144.087 349.187 143.81 348.629C143.532 348.35 142.699 347.793 141.588 346.957C140.477 346.399 139.644 345.842 138.811 345.842C138.255 345.563 137.422 345.842 137.145 345.842C136.589 346.12 136.589 346.399 136.867 346.957C137.145 347.514 137.978 348.35 139.089 348.908Z" fill="white"/>
<path d="M150.754 342.218C152.42 343.054 153.253 343.89 153.531 344.727C153.808 345.563 153.253 346.12 152.142 346.678C151.031 347.235 149.92 347.514 148.532 347.235C147.143 346.957 145.755 346.678 144.366 345.563C142.7 344.727 141.867 343.89 141.589 343.054C141.312 342.218 141.867 341.66 142.978 341.103C144.089 340.545 145.199 340.267 146.588 340.545C147.977 340.824 149.365 341.103 150.754 342.218ZM146.31 344.727C147.421 345.284 148.254 345.842 149.087 345.842C149.643 346.12 150.198 345.842 150.754 345.563C151.309 345.284 151.309 345.005 151.031 344.448C150.754 344.169 149.92 343.612 148.81 342.775C147.699 342.218 146.866 341.66 146.033 341.66C145.477 341.382 144.644 341.66 144.366 341.66C143.811 341.939 143.811 342.218 144.089 342.775C144.644 343.612 145.199 344.169 146.31 344.727Z" fill="white"/>
<path d="M161.306 336.085C162.972 336.921 163.806 337.758 164.083 338.594C164.361 339.43 163.806 339.988 162.695 340.545C161.584 341.103 160.473 341.382 159.085 341.103C157.696 340.824 156.308 340.545 154.919 339.43C153.253 338.594 152.42 337.758 152.142 336.921C151.864 336.085 152.42 335.528 153.531 334.97C154.641 334.413 155.752 334.134 157.141 334.413C158.529 334.691 159.918 334.97 161.306 336.085ZM157.141 338.594C158.252 339.151 159.085 339.709 159.918 339.709C160.473 339.988 161.029 339.709 161.584 339.43C162.139 339.151 162.139 338.873 161.862 338.315C161.584 338.036 160.751 337.479 159.64 336.643C158.529 336.085 157.696 335.528 156.863 335.528C156.308 335.249 155.474 335.528 155.197 335.528C154.641 335.806 154.641 336.085 154.919 336.643C155.197 337.479 155.752 338.036 157.141 338.594Z" fill="white"/>
<path d="M168.804 331.904C170.471 332.74 171.304 333.576 171.581 334.413C171.859 335.249 171.304 335.806 170.193 336.364C169.082 336.922 167.971 337.2 166.583 336.921C165.194 336.643 163.806 336.364 162.417 335.249C160.751 334.413 159.918 333.576 159.64 332.74C159.362 331.904 159.918 331.346 161.029 330.789C162.139 330.231 163.25 329.953 164.639 330.231C165.75 330.231 167.138 330.789 168.804 331.904ZM164.361 334.413C165.472 334.97 166.305 335.528 167.138 335.528C167.694 335.806 168.249 335.528 168.804 335.249C169.36 334.97 169.36 334.691 169.082 334.134C168.804 333.855 167.971 333.298 166.86 332.461C165.75 331.904 164.916 331.346 164.083 331.346C163.528 331.068 162.695 331.346 162.417 331.346C161.862 331.625 161.862 331.904 162.139 332.461C162.417 333.298 163.25 333.576 164.361 334.413Z" fill="white"/>
<path d="M176.024 327.444C177.69 328.28 178.523 329.116 178.801 329.953C179.079 330.789 178.523 331.346 177.413 331.904C176.302 332.461 175.191 332.74 173.802 332.461C172.414 332.183 171.025 331.904 169.637 330.789C167.971 329.953 167.138 329.116 166.86 328.28C166.582 327.444 167.138 326.886 168.248 326.329C169.359 325.771 170.47 325.493 171.858 325.771C172.969 326.05 174.358 326.608 176.024 327.444ZM171.581 330.231C172.692 330.789 173.525 331.346 174.358 331.346C174.913 331.625 175.469 331.346 176.024 331.068C176.579 330.789 176.579 330.51 176.302 329.953C176.024 329.674 175.191 329.116 174.08 328.28C172.969 327.723 172.136 327.165 171.303 327.165C170.748 326.886 169.915 327.165 169.637 327.165C169.081 327.444 169.081 327.723 169.359 328.28C169.637 328.838 170.47 329.395 171.581 330.231Z" fill="white"/>
<path d="M183.245 323.262C184.911 324.099 185.744 324.935 186.022 325.771C186.299 326.607 185.744 327.165 184.633 327.722C183.522 328.28 182.412 328.559 181.023 328.28C179.635 328.001 178.246 327.722 176.858 326.607C175.191 325.771 174.358 324.935 174.081 324.099C173.803 323.262 174.358 322.705 175.469 322.147C176.58 321.59 177.691 321.311 179.079 321.59C180.19 321.869 181.579 322.426 183.245 323.262ZM178.801 326.05C179.912 326.607 180.745 327.165 181.579 327.165C182.134 327.444 182.689 327.165 183.245 326.886C183.8 326.607 183.8 326.329 183.522 325.771C183.245 325.492 182.412 324.935 181.301 324.099C180.19 323.541 179.357 322.984 178.524 322.984C177.968 322.705 177.135 322.984 176.858 322.984C176.302 323.262 176.302 323.541 176.58 324.099C176.858 324.656 177.691 325.214 178.801 326.05Z" fill="white"/>
<path d="M193.797 317.13C195.464 317.966 196.297 318.803 196.575 319.639C196.852 320.475 196.297 321.033 195.186 321.59C194.075 322.148 192.964 322.426 191.576 322.148C190.187 321.869 188.799 321.59 187.41 320.475C185.744 319.639 184.911 318.803 184.633 317.966C184.356 317.13 184.911 316.573 186.022 316.015C187.133 315.457 188.243 315.179 189.632 315.458C190.743 315.736 192.131 316.294 193.797 317.13ZM189.354 319.918C190.465 320.475 191.298 321.033 192.131 321.033C192.687 321.311 193.242 321.033 193.797 320.754C194.353 320.475 194.353 320.196 194.075 319.639C193.797 319.36 192.964 318.803 191.854 317.966C190.743 317.409 189.91 316.851 189.077 316.851C188.521 316.573 187.688 316.851 187.41 316.851C186.855 317.13 186.855 317.409 187.133 317.966C187.41 318.524 188.243 319.081 189.354 319.918Z" fill="white"/>
<path d="M201.016 312.948C202.682 313.785 203.516 314.621 203.793 315.457C204.071 316.293 203.516 316.851 202.405 317.408C201.294 317.966 200.183 318.245 198.795 317.966C197.406 317.687 196.018 317.408 194.629 316.293C192.963 315.457 192.13 314.621 191.852 313.785C191.574 312.948 192.13 312.391 193.241 311.833C194.351 311.276 195.462 310.997 196.851 311.276C197.961 311.555 199.628 312.112 201.016 312.948ZM196.573 315.457C197.684 316.015 198.517 316.572 199.35 316.572C199.905 316.851 200.461 316.572 201.016 316.293C201.572 316.015 201.572 315.736 201.294 315.178C201.016 314.9 200.183 314.342 199.072 313.506C197.961 312.948 197.128 312.391 196.295 312.391C195.74 312.112 194.907 312.391 194.629 312.391C194.074 312.67 194.074 312.948 194.351 313.506C194.907 314.342 195.462 314.9 196.573 315.457Z" fill="white"/>
<path d="M208.237 308.767C209.904 309.604 210.737 310.44 211.014 311.276C211.292 312.112 210.737 312.67 209.626 313.227C208.515 313.785 207.404 314.064 206.016 313.785C204.627 313.506 203.239 313.227 201.85 312.112C200.184 311.276 199.351 310.44 199.073 309.604C198.796 308.767 199.351 308.21 200.184 307.652C201.295 307.095 202.406 306.816 203.794 307.095C205.46 307.373 206.849 307.931 208.237 308.767ZM203.794 311.276C204.905 311.834 205.738 312.391 206.571 312.391C207.127 312.67 207.682 312.391 208.237 312.112C208.793 311.834 208.793 311.555 208.515 310.997C208.237 310.719 207.404 310.161 206.294 309.325C205.183 308.767 204.35 308.21 203.516 308.21C202.961 307.931 202.128 308.21 201.85 308.21C201.295 308.488 201.295 308.767 201.573 309.325C202.128 310.161 202.683 310.719 203.794 311.276Z" fill="white"/>
<path d="M215.458 304.586C217.124 305.422 217.957 306.259 218.235 307.095C218.512 307.931 217.957 308.489 216.846 309.046C215.735 309.604 214.625 309.882 213.236 309.604C211.847 309.325 210.459 309.046 209.07 307.931C207.404 307.095 206.571 306.259 206.293 305.422C206.016 304.586 206.571 304.029 207.682 303.471C208.793 302.914 209.904 302.635 211.292 302.914C212.681 303.192 214.069 303.75 215.458 304.586ZM211.014 307.095C212.125 307.652 212.958 308.21 213.791 308.21C214.347 308.489 214.902 308.21 215.458 307.931C216.013 307.652 216.013 307.374 215.735 306.816C215.458 306.537 214.625 305.98 213.514 305.144C212.403 304.586 211.57 304.029 210.737 304.029C210.181 303.75 209.348 304.029 209.07 304.029C208.515 304.307 208.515 304.586 208.793 305.144C209.348 305.98 209.904 306.537 211.014 307.095Z" fill="white"/>
<path d="M226.289 298.453C227.955 299.29 228.788 300.126 229.066 300.962C229.343 301.798 228.788 302.356 227.677 302.913C226.566 303.471 225.456 303.75 224.067 303.471C222.679 303.192 221.29 302.913 219.902 301.798C218.235 300.962 217.402 300.126 217.124 299.29C216.847 298.453 217.402 297.896 218.513 297.338C219.624 296.781 220.735 296.502 222.123 296.781C223.234 297.059 224.622 297.617 226.289 298.453ZM221.845 300.962C222.956 301.52 223.789 302.077 224.622 302.077C225.178 302.356 225.733 302.077 226.289 301.798C226.844 301.52 226.844 301.241 226.566 300.683C226.289 300.405 225.456 299.847 224.345 299.011C223.234 298.453 222.401 297.896 221.568 297.896C221.012 297.617 220.179 297.896 219.902 297.896C219.346 298.175 219.346 298.453 219.624 299.011C219.902 299.847 220.735 300.405 221.845 300.962Z" fill="white"/>
<path d="M233.508 294.272C235.175 295.108 236.008 295.945 236.285 296.781C236.563 297.617 236.008 298.175 234.897 298.732C233.786 299.29 232.675 299.568 231.287 299.29C229.898 299.011 228.51 298.732 227.121 297.617C225.455 296.781 224.622 295.945 224.344 295.108C224.067 294.272 224.622 293.715 225.733 293.157C226.844 292.6 227.954 292.321 229.343 292.6C230.454 292.878 231.842 293.436 233.508 294.272ZM229.065 296.781C230.176 297.338 231.009 297.896 231.842 297.896C232.398 298.175 232.953 297.896 233.508 297.617C234.064 297.338 234.064 297.06 233.786 296.502C233.508 296.223 232.675 295.666 231.564 294.83C230.454 294.272 229.621 293.715 228.787 293.715C228.232 293.436 227.399 293.715 227.121 293.715C226.566 293.993 226.566 294.272 226.844 294.83C227.121 295.666 227.954 296.223 229.065 296.781Z" fill="white"/>
<path d="M240.728 290.09C242.394 290.927 243.228 291.763 243.505 292.599C243.783 293.436 243.228 293.993 242.117 294.551C241.006 295.108 239.895 295.387 238.507 295.108C237.118 294.829 235.729 294.551 234.341 293.436C232.675 292.599 231.842 291.763 231.564 290.927C231.286 290.091 231.842 289.533 232.952 288.975C234.063 288.418 235.174 288.139 236.563 288.418C237.673 288.697 239.062 289.254 240.728 290.09ZM236.285 292.599C237.396 293.157 238.229 293.714 239.062 293.714C239.617 293.993 240.173 293.714 240.728 293.436C241.284 293.157 241.284 292.878 241.006 292.321C240.728 292.042 239.895 291.484 238.784 290.648C237.673 290.09 236.84 289.533 236.007 289.533C235.452 289.254 234.619 289.533 234.341 289.533C233.786 289.812 233.786 290.09 234.063 290.648C234.341 291.484 235.174 292.042 236.285 292.599Z" fill="white"/>
<path d="M247.949 285.909C249.616 286.746 250.449 287.582 250.726 288.418C251.004 289.254 250.449 289.812 249.338 290.369C248.227 290.927 247.116 291.206 245.728 290.927C244.339 290.648 242.951 290.369 241.562 289.254C239.896 288.418 239.063 287.582 238.785 286.746C238.507 285.909 239.063 285.352 239.896 284.794C241.007 284.237 242.118 283.958 243.506 284.237C244.895 284.516 246.283 285.073 247.949 285.909ZM243.506 288.418C244.617 288.976 245.45 289.533 246.283 289.533C246.839 289.812 247.394 289.533 247.949 289.254C248.505 288.976 248.505 288.697 248.227 288.139C247.949 287.861 247.116 287.303 246.005 286.467C244.895 285.909 244.061 285.352 243.228 285.352C242.673 285.073 241.84 285.352 241.562 285.352C241.007 285.631 241.007 285.909 241.284 286.467C241.562 287.303 242.395 287.861 243.506 288.418Z" fill="white"/>
<path d="M136.035 363.403C135.48 363.682 135.48 363.961 135.48 364.239C135.48 364.518 135.757 364.797 136.313 365.076C137.424 365.633 138.534 365.912 139.367 365.354C139.645 365.076 140.201 364.797 140.478 364.518L141.311 365.076C141.034 365.354 140.756 365.633 140.201 366.191C139.367 366.748 138.534 366.748 137.701 366.748C136.868 366.748 136.035 366.469 135.202 365.912C134.646 365.633 134.369 365.354 134.091 364.797C133.813 364.518 133.813 364.239 134.091 363.682C134.369 363.403 134.646 363.124 135.202 362.846C135.757 362.567 136.313 362.288 137.146 362.288L137.701 363.124C137.424 363.124 137.146 363.124 136.868 363.403C136.313 363.124 136.313 363.124 136.035 363.403Z" fill="white"/>
<path d="M146.033 362.567L144.367 362.009L142.423 363.124L143.256 363.961L142.145 364.518L138.812 360.337L140.201 359.5L147.421 361.452L146.033 362.567ZM143.256 361.731C141.867 361.173 141.034 360.894 140.756 360.894C140.479 360.894 140.479 360.894 140.201 360.616C140.479 360.894 141.034 361.452 141.867 362.288L143.256 361.731Z" fill="white"/>
<path d="M147.143 359.78L149.087 360.895L147.977 361.452L142.7 358.386L144.089 357.55C144.922 357.271 145.477 356.992 146.033 356.992C146.588 356.992 147.143 356.992 147.699 357.271C147.977 357.55 148.254 357.55 148.254 357.828C148.254 358.107 148.254 358.386 147.977 358.665C149.921 358.943 151.309 358.943 151.864 359.222L150.754 360.058L147.421 359.501L147.143 359.78ZM146.033 359.222L146.31 358.943C146.588 358.665 146.866 358.665 146.866 358.386C146.866 358.107 146.866 358.107 146.588 357.828C146.31 357.55 146.033 357.55 145.755 357.55C145.477 357.55 145.2 357.828 144.922 357.828L144.644 358.107L146.033 359.222Z" fill="white"/>
<path d="M154.363 354.762C155.197 355.319 155.752 355.877 155.474 356.434C155.474 356.992 154.919 357.549 154.086 358.107L152.697 358.943L147.421 355.877L149.087 355.04C149.92 354.483 150.753 354.204 151.864 354.204C152.697 353.925 153.53 354.204 154.363 354.762ZM153.253 355.319C152.142 354.762 151.031 354.762 150.198 355.319L149.643 355.598L152.975 357.549L153.53 357.27C154.363 356.713 154.363 355.877 153.253 355.319Z" fill="white"/>
<path d="M164.361 351.974L163.25 352.532L161.028 351.138L159.085 352.253L161.306 353.647L160.195 354.205L154.919 351.138L156.03 350.581L157.974 351.696L159.918 350.581L157.974 349.466L159.085 348.908L164.361 351.974Z" fill="white"/>
<path d="M167.693 346.956C168.526 347.514 169.081 348.071 169.081 348.35C169.081 348.908 168.804 349.465 167.971 349.744C167.137 350.301 166.304 350.301 165.471 350.301C164.638 350.301 163.805 350.023 162.694 349.465C161.861 348.908 161.306 348.35 161.306 348.071C161.306 347.514 161.583 346.956 162.416 346.678C163.25 346.12 164.083 346.12 164.916 346.12C166.027 346.12 166.86 346.399 167.693 346.956ZM164.083 349.186C164.638 349.465 165.194 349.744 165.749 349.744C166.304 349.744 166.86 349.744 167.137 349.465C167.971 348.908 167.971 348.35 166.582 347.793C165.471 347.235 164.36 346.956 163.527 347.514C162.972 347.793 162.972 348.071 162.972 348.35C162.972 348.629 163.25 348.908 164.083 349.186Z" fill="white"/>
<path d="M171.581 347.793L166.305 344.726L167.416 344.169L171.859 346.678L174.08 345.563L174.913 346.12L171.581 347.793Z" fill="white"/>
<path d="M177.412 341.382C178.245 341.939 178.801 342.497 178.523 343.054C178.523 343.612 177.968 344.169 177.135 344.727L175.746 345.563L170.47 342.497L172.136 341.66C172.969 341.103 173.802 340.824 174.913 340.824C175.746 340.824 176.579 340.824 177.412 341.382ZM176.301 341.939C175.191 341.382 174.08 341.382 173.247 341.939L172.691 342.218L176.024 344.169L176.579 343.891C177.412 343.333 177.412 342.776 176.301 341.939Z" fill="white"/>
<path d="M184.077 340.545L181.022 342.218L175.746 339.152L178.801 337.479L179.634 338.037L177.69 339.152L178.801 339.709L180.467 338.594L181.3 339.152L179.634 340.267L181.022 341.103L182.966 339.988L184.077 340.545Z" fill="white"/>
<path d="M184.355 338.037L186.299 339.152L185.188 339.709L179.912 336.643L181.301 335.807C182.134 335.528 182.689 335.249 183.245 335.249C183.8 335.249 184.355 335.249 184.911 335.528C185.188 335.807 185.466 335.807 185.466 336.085C185.466 336.364 185.466 336.643 185.188 336.922C187.132 337.2 188.521 337.2 189.076 337.479L187.965 338.315L184.633 337.758L184.355 338.037ZM183.245 337.479L183.522 337.2C183.8 336.922 184.078 336.922 184.078 336.643C184.078 336.364 184.078 336.364 183.8 336.085C183.522 335.807 183.245 335.807 182.967 335.807C182.689 335.807 182.411 336.085 182.134 336.085L181.856 336.364L183.245 337.479Z" fill="white"/>
<path d="M65.4976 335.528H63.5537V341.939H65.4976V335.528Z" fill="#700327"/>
<path d="M283.496 309.325H281.552V315.736H283.496V309.325Z" fill="#700327"/>
<path d="M70.775 338.594H68.8311V345.006H70.775V338.594Z" fill="#700327"/>
<path d="M144.087 380.407H142.144V387.655H144.087V380.407Z" fill="#700327"/>
<path d="M220.734 324.656C222.401 326.05 221.012 328.28 220.734 328.559C221.29 328.28 224.9 327.444 227.399 328.559C225.733 327.165 227.122 324.935 227.399 324.656C226.844 324.935 223.234 325.771 220.734 324.656Z" fill="#13050F"/>
<path d="M230.454 319.082C232.12 320.475 230.732 322.705 230.454 322.984C231.01 322.705 234.62 321.869 237.119 322.984C235.453 321.59 236.841 319.36 237.119 319.082C236.564 319.082 232.953 320.197 230.454 319.082Z" fill="#13050F"/>
<path d="M240.174 313.506C241.84 314.9 240.452 317.13 240.174 317.409C240.729 317.13 244.339 316.294 246.839 317.409C245.173 316.015 246.561 313.785 246.839 313.506C246.283 313.506 242.673 314.343 240.174 313.506Z" fill="#13050F"/>
<path d="M249.894 307.652C251.56 309.046 250.171 311.276 249.894 311.555C250.449 311.276 254.059 310.44 256.558 311.555C254.892 310.161 256.281 307.931 256.558 307.652C256.003 307.931 252.393 308.767 249.894 307.652Z" fill="#13050F"/>
<path d="M259.612 302.077C261.279 303.471 259.89 305.701 259.612 305.98C260.168 305.701 263.778 304.865 266.277 305.98C264.611 304.586 266 302.356 266.277 302.077C265.722 302.356 262.112 303.192 259.612 302.077Z" fill="#13050F"/>
<path d="M269.333 296.502C270.999 297.896 269.611 300.126 269.333 300.405C269.888 300.126 273.499 299.289 275.998 300.405C274.332 299.011 275.72 296.781 275.998 296.502C275.72 296.502 272.11 297.617 269.333 296.502Z" fill="#13050F"/>
<path d="M220.734 313.506C222.401 314.9 221.012 317.13 220.734 317.409C221.29 317.13 224.9 316.294 227.399 317.409C225.733 316.015 227.122 313.785 227.399 313.506C226.844 313.506 223.234 314.342 220.734 313.506C220.734 313.227 220.734 313.506 220.734 313.506Z" fill="#13050F"/>
<path d="M230.454 307.652C232.12 309.046 230.732 311.276 230.454 311.555C231.01 311.276 234.62 310.44 237.119 311.555C235.453 310.161 236.841 307.931 237.119 307.652C236.564 307.931 232.953 308.767 230.454 307.652Z" fill="#13050F"/>
<path d="M240.174 302.077C241.84 303.471 240.452 305.701 240.174 305.98C240.729 305.701 244.339 304.865 246.839 305.98C245.173 304.586 246.561 302.356 246.839 302.077C246.283 302.356 242.673 303.192 240.174 302.077Z" fill="#13050F"/>
<path d="M249.894 296.502C251.56 297.896 250.171 300.126 249.894 300.405C250.449 300.126 254.059 299.289 256.558 300.405C254.892 299.011 256.281 296.781 256.558 296.502C256.003 296.502 252.393 297.338 249.894 296.502Z" fill="#13050F"/>
<path d="M259.612 290.927C261.279 292.321 259.89 294.551 259.612 294.83C260.168 294.551 263.778 293.715 266.277 294.83C264.611 293.436 266 291.206 266.277 290.927C265.722 290.927 262.112 291.763 259.612 290.927C259.612 290.648 259.612 290.927 259.612 290.927Z" fill="#13050F"/>
<path d="M95.7682 193.362L104.377 187.787V187.509L93.2689 174.128H92.9912L91.3249 182.212L90.7695 187.787L95.7682 193.362C95.4905 193.362 95.4905 193.362 95.7682 193.362Z" fill="#13050F"/>
<path d="M95.4906 194.199C95.2129 194.199 94.9352 194.199 94.6575 193.92L89.9365 188.345V187.788L90.4919 182.213L92.4359 173.292L92.9913 173.014C93.5467 173.014 93.8244 173.014 94.1021 173.292L105.488 187.23V187.788C105.488 188.066 105.21 188.345 104.933 188.624L96.3237 194.199C96.046 194.199 95.7683 194.199 95.4906 194.199ZM91.8804 187.509L95.7683 191.969L103.266 187.23L93.8244 175.801L92.4359 182.491L91.8804 187.509Z" fill="#13050F"/>
<path d="M128.814 152.386L87.1589 128.134C86.0481 127.577 85.215 127.577 84.3819 127.855L76.3285 132.873C76.3285 132.873 76.0508 133.152 76.3285 133.152L86.0481 143.466C86.0481 143.466 86.0481 143.466 86.0481 143.744V160.748C86.0481 163.536 87.9921 166.881 90.2137 168.275L96.3232 171.899C96.6009 172.177 96.6009 172.177 96.8786 172.456C97.1563 174.129 98.8225 181.934 106.598 186.951C106.876 187.23 107.154 186.951 106.876 186.394C105.765 184.443 104.099 180.261 104.654 176.916C104.932 176.916 104.932 176.637 105.21 176.637L117.984 184.164L123.26 198.659C123.26 198.659 123.538 198.938 123.538 198.659L131.592 193.92C132.147 193.363 132.702 192.526 132.702 191.411V159.912C132.98 157.125 131.036 153.78 128.814 152.386Z" fill="white"/>
<path d="M123.816 200.053H123.261C122.983 200.053 122.705 199.774 122.428 199.495L117.151 185.279L105.21 178.31C104.932 181.376 106.599 184.721 107.432 186.394C107.709 186.951 107.709 187.788 107.154 188.066C106.876 188.345 106.043 188.345 105.766 188.066C98.2675 182.77 96.3236 175.523 95.7682 173.014L95.4905 172.735L89.381 169.111C86.604 167.439 84.6601 163.815 84.6601 160.749V144.023L75.2181 133.988C74.9404 133.709 74.9404 133.431 74.9404 132.873C74.9404 132.594 75.2181 132.316 75.4958 132.037L83.8269 127.019C84.9378 126.462 86.3263 126.74 87.4371 127.298L129.093 151.55C131.87 153.222 133.814 156.846 133.814 159.912V191.412C133.814 192.805 133.258 194.199 132.425 194.757L123.816 200.053ZM105.21 175.801L118.818 183.606L119.095 184.164L124.094 197.823L131.314 193.363C131.592 193.084 131.87 192.527 131.87 191.69V159.912C131.87 157.403 130.203 154.616 127.982 153.222L86.3263 128.97C85.4932 128.413 84.9378 128.413 84.3824 128.692L77.4398 133.152L86.8817 143.187V143.744V160.749C86.8817 163.257 88.5479 166.045 90.7695 167.439L97.1567 171.341L97.7121 172.456C97.9898 173.85 99.1006 179.704 104.655 184.721C103.822 182.491 102.988 179.704 103.544 177.195V176.638L105.21 175.801Z" fill="#13050F"/>
<path d="M120.484 157.403L78.8286 133.43C76.607 132.037 74.6631 133.152 74.6631 135.66V167.438C74.6631 170.226 76.607 173.292 78.8286 174.686L85.2158 178.31C85.4935 178.31 85.4935 178.589 85.4935 178.867C85.7712 180.54 87.4374 188.345 95.2132 193.641C95.4909 193.92 95.7686 193.641 95.4909 193.084C94.38 191.133 92.4361 186.673 93.2692 183.327C93.2692 183.049 93.5469 183.049 93.5469 183.327L120.484 198.938C122.706 200.331 124.65 199.216 124.65 196.429V164.651C124.65 162.142 122.984 158.797 120.484 157.403Z" fill="#700327"/>
<path d="M122.428 200.331C121.594 200.331 121.039 200.053 120.206 199.495L94.1018 184.442C93.8241 187.23 95.4903 190.854 96.3235 192.526C96.6012 193.084 96.6012 193.641 96.0457 194.199C95.768 194.477 94.9349 194.477 94.6572 194.199C86.6038 188.624 84.9376 180.819 84.6599 179.146L78.2727 175.522C75.7734 174.128 73.5518 170.505 73.5518 167.438V135.66C73.5518 133.988 74.1072 132.873 75.218 132.037C76.3288 131.479 77.7173 131.479 79.1058 132.315L121.039 156.567C123.538 157.961 125.76 161.584 125.76 164.651V196.429C125.76 198.101 125.205 199.216 124.094 200.053C123.538 200.331 122.983 200.331 122.428 200.331ZM93.5464 182.212C93.8241 182.212 94.1018 182.212 94.1018 182.491L121.039 198.101C121.872 198.659 122.428 198.659 122.983 198.38C123.538 198.101 123.816 197.544 123.816 196.429V164.651C123.816 162.421 122.15 159.354 120.206 158.239L78.2727 134.267C77.4396 133.709 76.8842 133.709 76.3288 133.988C75.7734 134.267 75.4957 134.824 75.4957 135.939V167.717C75.4957 169.947 77.1619 173.013 79.1058 174.128L85.493 177.752C85.7707 178.031 86.3261 178.31 86.3261 178.867C86.6038 180.261 87.7146 186.115 93.2687 191.132C92.4356 188.902 91.6025 185.836 92.1579 183.327V182.77L92.7133 182.491C93.2687 182.212 93.2687 182.212 93.5464 182.212Z" fill="#13050F"/>
<path d="M129.387 152.716L122.038 157.218L123.051 158.883L130.399 154.382L129.387 152.716Z" fill="#13050F"/>
<path d="M90.1933 130.257L82.8379 134.747L83.848 136.414L91.2033 131.924L90.1933 130.257Z" fill="#13050F"/>
<path d="M132.221 160.577L124.238 165.638L125.276 167.287L133.259 162.226L132.221 160.577Z" fill="#13050F"/>
<path d="M132.981 165.766L124.649 171.062V198.38L132.703 193.92L132.981 191.969V165.766Z" fill="#13050F"/>
<path d="M87.3693 110.875L86.6211 120.044L88.5586 120.203L89.3068 111.035L87.3693 110.875Z" fill="#13050F"/>
<path d="M80.7724 121.165L76.3291 111.409L78.273 110.852L82.4386 120.329L80.7724 121.165Z" fill="#13050F"/>
<path d="M69.0822 118.932L68.126 120.631L75.8635 125.019L76.8197 123.32L69.0822 118.932Z" fill="#13050F"/>
<path d="M100.21 180.541H99.6547C99.377 180.541 98.8216 180.262 98.8216 179.704L89.3797 162.421C89.102 161.864 89.102 161.028 89.6574 160.749C89.9351 160.47 90.4905 160.191 91.0459 160.47L94.1006 162.143V150.993C94.1006 150.435 94.3783 150.156 94.656 149.878C94.9337 149.599 95.4892 149.599 95.7669 149.878L104.931 155.174C105.486 155.453 105.764 156.01 105.764 156.568V168.833L109.652 171.063C110.207 171.342 110.485 171.899 110.485 172.457C110.485 173.014 110.207 173.293 109.93 173.572L100.21 180.541ZM91.879 163.537L99.9324 178.311L107.986 172.735L104.376 170.784C103.82 170.505 103.543 169.948 103.543 169.39V157.125L95.4892 152.386V163.537C95.4892 164.094 95.2115 164.373 94.9337 164.652C94.656 164.93 94.1006 164.93 93.8229 164.652L91.879 163.537Z" fill="white"/>
</svg>
